SplineFontDB: 3.2
FontName: TDATextCondensed
FullName: TDAText Condensed
FamilyName: TDAText Condensed
Weight: Regular
Copyright: Copyright (c) 2024 Dmitry Tretyakov\n\nBased on Philips SAA52XX/SAA55XX/TDA93XX IC character set:\nCopyright (c) 1993-2001 NXP Semiconductors N.V.

StartChar: exclam
Encoding: 33 33 4
Width: 384
Flags: HW
HStem: 0 100<250 350> 680 20G<250 350>
VStem: 250 100<0 100 200 700>
LayerCount: 2
Back
Fore
SplineSet
167 700 m 13
 189 700 211 700 233 700 c 25
 233 533 233 367 233 200 c 25
 211 200 189 200 167 200 c 25
 167 367 167 533 167 700 c 13
233 0 m 9
 211 0 189 0 167 0 c 1
 167 33 167 67 167 100 c 25
 189 100 211 100 233 100 c 1
 233 67 233 33 233 0 c 9
EndSplineSet
Validated: 1
EndChar

StartChar: asterisk
Encoding: 42 42 5
Width: 384
Flags: HW
HStem: 0 21G<250 350> 100 100<50 100 500 550> 300 100<200 250 350 400> 500 100<50 100 500 550> 680 20G<250 350>
VStem: 50 100<100 200 500 600> 100 100<200 300 400 500> 250 100<0 300 400 700> 400 100<200 300 400 500> 450 100<100 200 500 600>
LayerCount: 2
Back
Fore
SplineSet
33 600 m 13
 55 600 78 600 100 600 c 25
 100 567 100 533 100 500 c 25
 111 500 122 500 133 500 c 25
 133 467 133 433 133 400 c 25
 144 400 156 400 167 400 c 25
 167 500 167 600 167 700 c 25
 189 700 211 700 233 700 c 25
 233 600 233 500 233 400 c 25
 244 400 256 400 267 400 c 25
 267 433 267 467 267 500 c 25
 278 500 289 500 300 500 c 25
 300 533 300 567 300 600 c 25
 322 600 345 600 367 600 c 25
 367 567 367 533 367 500 c 25
 356 500 344 500 333 500 c 25
 333 467 333 433 333 400 c 25
 322 400 311 400 300 400 c 25
 300 367 300 333 300 300 c 25
 311 300 322 300 333 300 c 25
 333 267 333 233 333 200 c 25
 344 200 356 200 367 200 c 25
 367 167 367 133 367 100 c 25
 345 100 322 100 300 100 c 25
 300 133 300 167 300 200 c 25
 289 200 278 200 267 200 c 25
 267 233 267 267 267 300 c 25
 256 300 244 300 233 300 c 25
 233 200 233 100 233 0 c 25
 211 0 189 0 167 0 c 25
 167 100 167 200 167 300 c 25
 156 300 144 300 133 300 c 25
 133 267 133 233 133 200 c 25
 122 200 111 200 100 200 c 25
 100 167 100 133 100 100 c 25
 78 100 55 100 33 100 c 25
 33 133 33 167 33 200 c 25
 44 200 56 200 67 200 c 25
 67 233 67 267 67 300 c 25
 78 300 89 300 100 300 c 25
 100 333 100 367 100 400 c 25
 89 400 78 400 67 400 c 25
 67 433 67 467 67 500 c 25
 56 500 44 500 33 500 c 25
 33 533 33 567 33 600 c 13
EndSplineSet
Validated: 8388609
EndChar

StartChar: plus
Encoding: 43 43 6
Width: 384
Flags: HW
HStem: 250 100<100 250 350 500>
VStem: 250 100<50 250 350 550>
LayerCount: 2
Back
Fore
SplineSet
167 550 m 13
 189 550 211 550 233 550 c 25
 233 483 233 417 233 350 c 25
 266 350 300 350 333 350 c 25
 333 317 333 283 333 250 c 25
 300 250 266 250 233 250 c 25
 233 183 233 117 233 50 c 25
 211 50 189 50 167 50 c 25
 167 117 167 183 167 250 c 25
 134 250 100 250 67 250 c 25
 67 283 67 317 67 350 c 25
 100 350 134 350 167 350 c 25
 167 417 167 483 167 550 c 13
EndSplineSet
Validated: 1
EndChar

StartChar: comma
Encoding: 44 44 7
Width: 384
Flags: HW
HStem: -200 100<199 249> 0 100<199 249>
VStem: 199 100<-200 -100> 249 100<-100 0>
LayerCount: 2
Back
Fore
SplineSet
133 -100 m 5
 144 -100 155 -100 166 -100 c 29
 166 -67 166 -33 166 0 c 5
 155 0 144 0 133 0 c 29
 133 33 133 67 133 100 c 29
 166 100 200 100 233 100 c 29
 233 33 233 -33 233 -100 c 29
 222 -100 210 -100 199 -100 c 29
 199 -133 199 -167 199 -200 c 29
 177 -200 155 -200 133 -200 c 29
 133 -167 133 -133 133 -100 c 5
EndSplineSet
Validated: 8388609
EndChar

StartChar: hyphen
Encoding: 45 45 8
Width: 384
Flags: HW
HStem: 250 100<100 500>
LayerCount: 2
Back
Fore
SplineSet
67 250 m 13
 67 283 67 317 67 350 c 25
 156 350 244 350 333 350 c 25
 333 317 333 283 333 250 c 25
 244 250 156 250 67 250 c 13
EndSplineSet
Validated: 1
EndChar

StartChar: period
Encoding: 46 46 9
Width: 384
Flags: HW
HStem: 0 100<250 350>
VStem: 250 100<0 100>
LayerCount: 2
Back
Fore
SplineSet
233 0 m 13
 211 0 189 0 167 0 c 29
 167 33 167 67 167 100 c 29
 189 100 211 100 233 100 c 29
 233 67 233 33 233 0 c 13
EndSplineSet
Validated: 1
EndChar

StartChar: slash
Encoding: 47 47 10
Width: 384
Flags: HW
HStem: 0 100<100 150> 600 100<450 500>
VStem: 100 100<0 100> 150 100<100 200> 200 100<200 300> 250 100<300 400> 300 100<400 500> 350 100<500 600> 400 100<600 700>
LayerCount: 2
Back
Fore
SplineSet
267 700 m 13
 289 700 311 700 333 700 c 25
 333 667 333 633 333 600 c 25
 322 600 311 600 300 600 c 25
 300 567 300 533 300 500 c 25
 289 500 278 500 267 500 c 25
 267 467 267 433 267 400 c 25
 256 400 244 400 233 400 c 25
 233 367 233 333 233 300 c 25
 222 300 211 300 200 300 c 25
 200 267 200 233 200 200 c 25
 189 200 178 200 167 200 c 25
 167 167 167 133 167 100 c 25
 156 100 144 100 133 100 c 25
 133 67 133 33 133 0 c 25
 111 0 89 0 67 0 c 25
 67 33 67 67 67 100 c 25
 78 100 89 100 100 100 c 25
 100 133 100 167 100 200 c 25
 111 200 122 200 133 200 c 25
 133 233 133 267 133 300 c 25
 144 300 156 300 167 300 c 25
 167 333 167 367 167 400 c 25
 178 400 189 400 200 400 c 25
 200 433 200 467 200 500 c 25
 211 500 222 500 233 500 c 25
 233 533 233 567 233 600 c 25
 244 600 256 600 267 600 c 25
 267 633 267 667 267 700 c 13
EndSplineSet
Validated: 8388609
EndChar

StartChar: zero
Encoding: 48 48 11
Width: 384
Flags: HW
HStem: 0 100<250 400> 600 100<250 400>
VStem: 100 150<100 600> 400 150<100 600>
LayerCount: 2
Back
Fore
SplineSet
267 600 m 13
 234 600 200 600 167 600 c 25
 167 433 167 267 167 100 c 25
 200 100 234 100 267 100 c 25
 267 267 267 433 267 600 c 13
100 700 m 9
 178 700 255 700 333 700 c 25
 333 667 333 633 333 600 c 25
 344 600 356 600 367 600 c 25
 367 433 367 267 367 100 c 25
 356 100 344 100 333 100 c 25
 333 67 333 33 333 0 c 25
 255 0 178 0 100 0 c 25
 100 33 100 67 100 100 c 25
 89 100 78 100 67 100 c 25
 67 267 67 433 67 600 c 25
 78 600 89 600 100 600 c 25
 100 633 100 667 100 700 c 9
EndSplineSet
Validated: 1
EndChar

StartChar: one
Encoding: 49 49 12
Width: 384
Flags: HW
HStem: 0 21G<300 450> 500 100<200 300> 680 20G<300 450>
VStem: 300 150<0 500 600 700>
LayerCount: 2
Back
Fore
SplineSet
133 500 m 13
 133 533 133 567 133 600 c 29
 155 600 178 600 200 600 c 29
 200 633 200 667 200 700 c 29
 233 700 267 700 300 700 c 29
 300 467 300 233 300 0 c 29
 267 0 233 0 200 0 c 29
 200 167 200 333 200 500 c 29
 178 500 155 500 133 500 c 13
EndSplineSet
Validated: 1
EndChar

StartChar: two
Encoding: 50 50 13
Width: 384
Flags: HW
HStem: 0 100<100 150 350 550> 500 100<100 150> 600 100<200 400>
VStem: 100 100<500 600> 350 150<300 400> 400 150<400 600>
LayerCount: 2
Back
Fore
SplineSet
133 500 m 13
 111 500 89 500 67 500 c 1
 67 533 67 567 67 600 c 25
 78 600 89 600 100 600 c 25
 100 633 100 667 100 700 c 25
 178 700 255 700 333 700 c 25
 333 667 333 633 333 600 c 25
 344 600 356 600 367 600 c 25
 367 533 367 467 367 400 c 25
 356 400 344 400 333 400 c 25
 333 367 333 333 333 300 c 25
 322 300 311 300 300 300 c 25
 300 267 300 233 300 200 c 25
 278 200 255 200 233 200 c 25
 233 167 233 133 233 100 c 25
 277 100 323 100 367 100 c 25
 367 67 367 33 367 0 c 25
 267 0 167 0 67 0 c 25
 67 33 67 67 67 100 c 25
 78 100 89 100 100 100 c 25
 100 133 100 167 100 200 c 25
 122 200 145 200 167 200 c 25
 167 233 167 267 167 300 c 25
 189 300 211 300 233 300 c 25
 233 333 233 367 233 400 c 25
 244 400 256 400 267 400 c 25
 267 467 267 533 267 600 c 25
 223 600 177 600 133 600 c 1
 133 567 133 533 133 500 c 13
EndSplineSet
Validated: 8388609
EndChar

StartChar: three
Encoding: 51 51 14
Width: 384
Flags: HW
HStem: 0 100<100 450> 300 100<250 350> 600 100<100 400 500 550>
VStem: 350 100<400 500> 400 100<500 600> 450 100<100 300>
CounterMasks: 1 e0
LayerCount: 2
Back
Fore
SplineSet
67 700 m 13
 167 700 267 700 367 700 c 25
 367 667 367 633 367 600 c 25
 356 600 344 600 333 600 c 25
 333 567 333 533 333 500 c 25
 322 500 311 500 300 500 c 25
 300 467 300 433 300 400 c 25
 322 400 345 400 367 400 c 25
 367 300 367 200 367 100 c 25
 356 100 344 100 333 100 c 25
 333 67 333 33 333 0 c 25
 244 0 156 0 67 0 c 25
 67 33 67 67 67 100 c 25
 145 100 222 100 300 100 c 25
 300 167 300 233 300 300 c 25
 256 300 211 300 167 300 c 25
 167 333 167 367 167 400 c 25
 189 400 211 400 233 400 c 25
 233 433 233 467 233 500 c 25
 244 500 256 500 267 500 c 25
 267 533 267 567 267 600 c 25
 200 600 134 601 67 601 c 25
 67 634 67 667 67 700 c 13
EndSplineSet
Validated: 8388609
EndChar

StartChar: four
Encoding: 52 52 15
Width: 384
Flags: HW
HStem: 0 21G<400 550> 100 100<250 400> 600 100<500 550>
VStem: 100 150<200 300> 150 150<300 400> 250 150<400 500> 400 150<0 100 200 300 600 700>
LayerCount: 2
Back
Fore
SplineSet
267 700 m 13
 300 700 334 700 367 700 c 25
 367 667 367 633 367 600 c 25
 356 600 344 600 333 600 c 25
 333 567 333 533 333 500 c 25
 311 500 289 500 267 500 c 25
 267 467 267 433 267 400 c 25
 245 400 222 400 200 400 c 25
 200 367 200 333 200 300 c 25
 189 300 178 300 167 300 c 25
 167 267 167 233 167 200 c 25
 200 200 234 200 267 200 c 25
 267 233 267 267 267 300 c 25
 300 300 334 300 367 300 c 25
 367 200 367 100 367 0 c 25
 334 0 300 0 267 0 c 25
 267 33 267 67 267 100 c 25
 200 100 134 100 67 100 c 25
 67 167 67 233 67 300 c 25
 78 300 89 300 100 300 c 25
 100 333 100 367 100 400 c 25
 122 400 145 400 167 400 c 25
 167 433 167 467 167 500 c 25
 178 500 189 500 200 500 c 25
 200 533 200 567 200 600 c 25
 222 600 245 600 267 600 c 25
 267 633 267 667 267 700 c 13
EndSplineSet
Validated: 8388609
EndChar

StartChar: five
Encoding: 53 53 16
Width: 384
Flags: HW
HStem: 0 100<200 400> 100 100<100 150> 300 100<200 400> 600 100<200 500>
VStem: 100 100<100 200 400 600> 400 150<100 300>
LayerCount: 2
Back
Fore
SplineSet
333 700 m 13
 333 667 333 633 333 600 c 25
 266 600 200 600 133 600 c 25
 133 533 133 467 133 400 c 25
 200 400 266 400 333 400 c 25
 333 367 333 333 333 300 c 25
 344 300 356 300 367 300 c 25
 367 233 367 167 367 100 c 25
 356 100 344 100 333 100 c 25
 333 67 333 33 333 0 c 25
 255 0 178 0 100 0 c 25
 100 33 100 67 100 100 c 25
 89 100 78 100 67 100 c 25
 67 133 67 167 67 200 c 25
 89 200 111 200 133 200 c 25
 133 167 133 133 133 100 c 25
 177 100 223 100 267 100 c 25
 267 167 267 233 267 300 c 25
 200 300 134 300 67 300 c 25
 67 433 67 567 67 700 c 25
 156 700 244 700 333 700 c 13
EndSplineSet
Validated: 8388609
EndChar

StartChar: six
Encoding: 54 54 17
Width: 384
Flags: HW
HStem: 0 100<249 450> 300 100<300 450> 600 100<350 400>
VStem: 100 149<100 300> 150 150<400 500> 200 150<500 600> 250 150<600 700> 450 100<100 300>
CounterMasks: 1 e0
LayerCount: 2
Back
Fore
SplineSet
300 300 m 13
 255 300 211 300 166 300 c 25
 166 233 166 167 166 100 c 25
 211 100 255 100 300 100 c 25
 300 167 300 233 300 300 c 13
267 700 m 9
 267 667 267 633 267 600 c 25
 256 600 244 600 233 600 c 25
 233 567 233 533 233 500 c 25
 222 500 211 500 200 500 c 25
 200 467 200 433 200 400 c 25
 244 400 289 400 333 400 c 25
 333 367 333 333 333 300 c 25
 344 300 356 300 367 300 c 25
 367 233 367 167 367 100 c 25
 356 100 344 100 333 100 c 25
 333 67 333 33 333 0 c 25
 255 0 178 0 100 0 c 25
 100 33 100 67 100 100 c 25
 89 100 78 100 67 100 c 25
 67 200 67 300 67 400 c 25
 78 400 89 400 100 400 c 25
 100 433 100 467 100 500 c 25
 111 500 122 500 133 500 c 25
 133 533 133 567 133 600 c 25
 144 600 156 600 167 600 c 25
 167 633 167 667 167 700 c 25
 200 700 234 700 267 700 c 9
EndSplineSet
Validated: 8388609
EndChar

StartChar: seven
Encoding: 55 55 18
Width: 384
Flags: HW
HStem: 0 100<100 150> 600 100<50 350 500 550>
VStem: 100 150<0 100> 150 150<100 200> 200 150<200 300> 250 150<300 400> 300 150<400 500> 350 150<500 600>
LayerCount: 2
Back
Fore
SplineSet
33 700 m 1
 144 700 256 700 367 700 c 25
 367 667 367 633 367 600 c 25
 356 600 344 600 333 600 c 25
 333 567 333 533 333 500 c 25
 322 500 311 500 300 500 c 25
 300 467 300 433 300 400 c 25
 289 400 278 400 267 400 c 25
 267 367 267 333 267 300 c 25
 256 300 244 300 233 300 c 25
 233 267 233 233 233 200 c 25
 222 200 211 200 200 200 c 25
 200 167 200 133 200 100 c 25
 189 100 178 100 167 100 c 25
 167 67 167 33 167 0 c 25
 134 0 100 0 67 0 c 25
 67 33 67 67 67 100 c 25
 78 100 89 100 100 100 c 25
 100 133 100 167 100 200 c 25
 111 200 122 200 133 200 c 25
 133 233 133 267 133 300 c 25
 144 300 156 300 167 300 c 25
 167 333 167 367 167 400 c 25
 178 400 189 400 200 400 c 25
 200 433 200 467 200 500 c 25
 211 500 222 500 233 500 c 25
 233 533 233 567 233 600 c 1
 166 600 100 600 33 600 c 25
 33 633 33 667 33 700 c 1
EndSplineSet
Validated: 8388609
EndChar

StartChar: eight
Encoding: 56 56 19
Width: 384
Flags: HW
HStem: 0 100<250 400> 300 100<250 400> 600 100<250 400>
VStem: 100 150<100 300 400 600> 400 150<100 300 400 600>
CounterMasks: 1 e0
LayerCount: 2
Back
Fore
SplineSet
167 100 m 13
 200 100 234 100 267 100 c 25
 267 167 267 233 267 300 c 25
 234 300 200 300 167 300 c 25
 167 233 167 167 167 100 c 13
167 600 m 9
 167 533 167 467 167 400 c 25
 200 400 234 400 267 400 c 25
 267 467 267 533 267 600 c 25
 234 600 200 600 167 600 c 9
100 700 m 9
 178 700 255 700 333 700 c 25
 333 667 333 633 333 600 c 25
 344 600 356 600 367 600 c 25
 367 533 367 467 367 400 c 25
 345 400 322 400 300 400 c 25
 300 367 300 333 300 300 c 25
 322 300 345 300 367 300 c 25
 367 233 367 167 367 100 c 25
 356 100 344 100 333 100 c 25
 333 67 333 33 333 0 c 25
 255 0 178 0 100 0 c 25
 100 33 100 67 100 100 c 25
 89 100 78 100 67 100 c 25
 67 167 67 233 67 300 c 25
 89 300 111 300 133 300 c 25
 133 333 133 367 133 400 c 25
 111 400 89 400 67 400 c 25
 67 467 67 533 67 600 c 25
 78 600 89 600 100 600 c 25
 100 633 100 667 100 700 c 9
EndSplineSet
Validated: 1
EndChar

StartChar: nine
Encoding: 57 57 20
Width: 384
Flags: HW
HStem: 0 100<250 300> 300 100<200 350> 600 100<200 400>
VStem: 100 100<400 600> 250 150<0 100> 300 150<100 200> 350 150<200 300> 400 150<400 600>
CounterMasks: 1 e0
LayerCount: 2
Back
Fore
SplineSet
133 600 m 13
 133 533 133 467 133 400 c 25
 177 400 223 400 267 400 c 25
 267 467 267 533 267 600 c 25
 223 600 177 600 133 600 c 13
100 600 m 9
 100 633 100 667 100 700 c 25
 178 700 255 700 333 700 c 25
 333 667 333 633 333 600 c 25
 344 600 356 600 367 600 c 25
 367 500 367 400 367 300 c 25
 356 300 344 300 333 300 c 25
 333 267 333 233 333 200 c 25
 322 200 311 200 300 200 c 25
 300 167 300 133 300 100 c 25
 289 100 278 100 267 100 c 25
 267 67 267 33 267 0 c 25
 234 0 200 0 167 0 c 25
 167 33 167 67 167 100 c 25
 178 100 189 100 200 100 c 25
 200 133 200 167 200 200 c 25
 211 200 222 200 233 200 c 25
 233 233 233 267 233 300 c 25
 189 300 144 300 100 300 c 25
 100 333 100 367 100 400 c 25
 89 400 78 400 67 400 c 25
 67 467 67 533 67 600 c 25
 78 600 89 600 100 600 c 9
EndSplineSet
Validated: 8388609
EndChar

StartChar: colon
Encoding: 58 58 21
Width: 384
Flags: HW
HStem: 0 21G<250 350> 480 20G<250 349.1>
VStem: 250 100<0 200 300 500>
LayerCount: 2
Back
Fore
SplineSet
167 200 m 13
 189 200 211 200 233 200 c 25
 233 133 233 67 233 0 c 25
 211 0 189 0 167 0 c 25
 167 67 167 133 167 200 c 13
167 500 m 9
 189 500 211 500 233 500 c 25
 233 433 233 367 233 300 c 25
 211 300 189 300 167 300 c 25
 167 367 167 433 167 500 c 9
EndSplineSet
Validated: 1
EndChar

StartChar: semicolon
Encoding: 59 59 22
Width: 384
Flags: HW
HStem: -200 100<200 250> 480 20G<250 350>
VStem: 200 100<-200 -100> 250 100<-100 100 300 500>
LayerCount: 2
Back
Fore
SplineSet
167 100 m 1
 189 100 211 100 233 100 c 25
 233 33 233 -33 233 -100 c 1
 222 -100 211 -100 200 -100 c 25
 200 -133 200 -167 200 -200 c 25
 178 -200 155 -200 133 -200 c 25
 133 -167 133 -133 133 -100 c 25
 144 -100 156 -100 167 -100 c 25
 167 -33 167 33 167 100 c 1
167 500 m 9
 189 500 211 500 233 500 c 25
 233 433 233 367 233 300 c 25
 211 300 189 300 167 300 c 25
 167 367 167 433 167 500 c 9
EndSplineSet
Validated: 8388609
EndChar

StartChar: less
Encoding: 60 60 23
Width: 384
Flags: HW
HStem: 0 100<450 550> 100 100<350 400> 200 100<250 300> 300 100<100 200> 400 100<250 300> 500 100<350 400> 600 100<450 550>
VStem: 100 150<300 400> 200 150<200 300 400 500> 300 150<100 200 500 600> 400 150<0 100 600 700>
LayerCount: 2
Back
Fore
SplineSet
267 700 m 13
 300 700 334 700 367 700 c 25
 367 667 367 633 367 600 c 25
 345 600 322 600 300 600 c 25
 300 567 300 533 300 500 c 25
 278 500 255 500 233 500 c 25
 233 467 233 433 233 400 c 25
 211 400 189 400 167 400 c 25
 167 367 167 333 167 300 c 25
 189 300 211 300 233 300 c 25
 233 267 233 233 233 200 c 25
 255 200 278 200 300 200 c 25
 300 167 300 133 300 100 c 25
 322 100 345 100 367 100 c 25
 367 67 367 33 367 0 c 25
 334 0 300 0 267 0 c 25
 267 33 267 67 267 100 c 25
 245 100 222 100 200 100 c 25
 200 133 200 167 200 200 c 25
 178 200 155 200 133 200 c 25
 133 233 133 267 133 300 c 25
 111 300 89 300 67 300 c 25
 67 333 67 367 67 400 c 25
 89 400 111 400 133 400 c 25
 133 433 133 467 133 500 c 25
 155 500 178 500 200 500 c 25
 200 533 200 567 200 600 c 25
 222 600 245 600 267 600 c 25
 267 633 267 667 267 700 c 13
EndSplineSet
Validated: 8388609
EndChar

StartChar: equal
Encoding: 61 61 24
Width: 384
Flags: HW
HStem: 200 100<100 500> 400 100<100 500>
LayerCount: 2
Back
Fore
SplineSet
67 500 m 13
 156 500 244 500 333 500 c 25
 333 467 333 433 333 400 c 25
 244 400 156 400 67 400 c 25
 67 433 67 467 67 500 c 13
67 300 m 9
 156 300 244 300 333 300 c 25
 333 267 333 233 333 200 c 25
 244 200 156 200 67 200 c 25
 67 233 67 267 67 300 c 9
EndSplineSet
Validated: 1
EndChar

StartChar: greater
Encoding: 62 62 25
Width: 384
Flags: HW
HStem: 0 100<100 200> 100 100<250 300> 200 100<350 400> 300 100<450 550> 400 100<350 400> 500 100<250 300> 600 100<100 200>
VStem: 100 150<0 100 600 700> 200 150<100 200 500 600> 300 150<200 300 400 500> 400 150<300 400>
LayerCount: 2
Back
Fore
SplineSet
67 600 m 13
 67 633 67 667 67 700 c 25
 100 700 134 700 167 700 c 25
 167 667 167 633 167 600 c 25
 189 600 211 600 233 600 c 25
 233 567 233 533 233 500 c 25
 255 500 278 500 300 500 c 25
 300 467 300 433 300 400 c 25
 322 400 345 400 367 400 c 25
 367 367 367 333 367 300 c 25
 345 300 322 300 300 300 c 25
 300 267 300 233 300 200 c 25
 278 200 255 200 233 200 c 25
 233 167 233 133 233 100 c 25
 211 100 189 100 167 100 c 25
 167 67 167 33 167 0 c 25
 134 0 100 0 67 0 c 25
 67 33 67 67 67 100 c 25
 89 100 111 100 133 100 c 25
 133 133 133 167 133 200 c 25
 155 200 178 200 200 200 c 25
 200 233 200 267 200 300 c 25
 222 300 245 300 267 300 c 25
 267 333 267 367 267 400 c 25
 245 400 222 400 200 400 c 25
 200 433 200 467 200 500 c 25
 178 500 155 500 133 500 c 25
 133 533 133 567 133 600 c 25
 111 600 89 600 67 600 c 13
EndSplineSet
Validated: 8388609
EndChar

StartChar: question
Encoding: 63 63 26
Width: 384
Flags: HW
HStem: 0 100<300 400> 200 100<300 400> 300 100<400 450> 600 100<200 450>
VStem: 100 100<400 600> 300 100<0 100 200 300> 400 100<300 400> 450 100<400 600>
LayerCount: 2
Back
Fore
SplineSet
200 300 m 1
 222 300 245 300 267 300 c 1
 267 267 267 233 267 200 c 1
 245 200 222 200 200 200 c 1
 200 233 200 267 200 300 c 1
267 0 m 9
 245 0 222 0 200 0 c 1
 200 33 200 67 200 100 c 25
 222 100 245 100 267 100 c 1
 267 67 267 33 267 0 c 9
67 600 m 9
 78 600 89 600 100 600 c 25
 100 633 100 667 100 700 c 25
 178 700 255 700 333 700 c 25
 333 667 333 633 333 600 c 25
 344 600 356 600 367 600 c 25
 367 533 367 467 367 400 c 25
 356 400 344 400 333 400 c 25
 333 367 333 333 333 300 c 25
 311 300 289 300 267 300 c 25
 267 333 267 367 267 400 c 25
 278 400 289 400 300 400 c 25
 300 467 300 533 300 600 c 25
 244 600 189 600 133 600 c 25
 133 533 133 467 133 400 c 25
 111 400 89 400 67 400 c 25
 67 467 67 533 67 600 c 9
EndSplineSet
Validated: 8388613
EndChar

StartChar: at
Encoding: 64 64 27
Width: 384
Flags: HW
HStem: -100 100<200 500> 100 100<350 450> 400 100<350 450> 600 100<200 450>
VStem: 50 100<100 500> 100 100<0 100 500 600> 250 100<200 400> 300 250<100 200 400 500> 450 100<200 400 500 600>
LayerCount: 2
Back
Fore
SplineSet
233 400 m 13
 233 333 233 267 233 200 c 25
 255 200 278 200 300 200 c 25
 300 267 300 333 300 400 c 25
 278 400 255 400 233 400 c 13
100 600 m 9
 100 633 100 667 100 700 c 25
 178 700 255 700 333 700 c 25
 333 667 333 633 333 600 c 25
 344 600 356 600 367 600 c 25
 367 433 367 267 367 100 c 25
 311 100 256 100 200 100 c 25
 200 133 200 167 200 200 c 25
 189 200 178 200 167 200 c 25
 167 267 167 333 167 400 c 25
 178 400 189 400 200 400 c 25
 200 433 200 467 200 500 c 25
 233 500 267 500 300 500 c 25
 300 533 300 567 300 600 c 25
 244 600 189 600 133 600 c 25
 133 567 133 533 133 500 c 25
 122 500 111 500 100 500 c 25
 100 367 100 233 100 100 c 25
 111 100 122 100 133 100 c 25
 133 67 133 33 133 0 c 25
 200 0 266 0 333 0 c 25
 333 -33 333 -67 333 -100 c 25
 255 -100 178 -100 100 -100 c 25
 100 -67 100 -33 100 0 c 25
 89 0 78 0 67 0 c 25
 67 33 67 67 67 100 c 25
 56 100 44 100 33 100 c 25
 33 233 33 367 33 500 c 25
 44 500 56 500 67 500 c 25
 67 533 67 567 67 600 c 25
 78 600 89 600 100 600 c 9
EndSplineSet
Validated: 8388609
EndChar

StartChar: A
Encoding: 65 65 28
Width: 384
Flags: HW
HStem: 0 21G<50 150 450 550> 200 100<150 450> 600 100<250 350>
VStem: 50 100<0 200 300 400> 100 100<400 500> 150 100<500 600> 350 100<500 600> 400 100<400 500> 450 100<0 200 300 400>
LayerCount: 2
Back
Fore
SplineSet
100 400 m 13
 100 367 100 333 100 300 c 25
 167 300 233 300 300 300 c 25
 300 333 300 367 300 400 c 25
 289 400 278 400 267 400 c 25
 267 433 267 467 267 500 c 25
 256 500 244 500 233 500 c 25
 233 533 233 567 233 600 c 25
 211 600 189 600 167 600 c 25
 167 567 167 533 167 500 c 25
 156 500 144 500 133 500 c 25
 133 467 133 433 133 400 c 25
 122 400 111 400 100 400 c 13
100 0 m 9
 78 0 55 0 33 0 c 25
 33 133 33 267 33 400 c 25
 44 400 56 400 67 400 c 25
 67 433 67 467 67 500 c 25
 78 500 89 500 100 500 c 25
 100 533 100 567 100 600 c 25
 111 600 122 600 133 600 c 25
 133 633 133 667 133 700 c 25
 177 700 222 700 266 700 c 25
 266 667 267 633 267 600 c 25
 278 600 289 600 300 600 c 25
 300 567 300 533 300 500 c 25
 311 500 322 500 333 500 c 25
 333 467 333 433 333 400 c 25
 344 400 356 400 367 400 c 25
 367 267 367 133 367 0 c 25
 345 0 322 0 300 0 c 25
 300 67 300 133 300 200 c 25
 233 200 167 200 100 200 c 25
 100 133 100 67 100 0 c 9
EndSplineSet
Validated: 8388609
EndChar

StartChar: B
Encoding: 66 66 29
Width: 384
Flags: HW
HStem: 0 100<200 450> 300 100<200 450> 600 100<200 450>
VStem: 100 400<0 100 300 400 600 700> 100 100<100 300 400 600> 450 100<100 300 400 600>
CounterMasks: 1 e0
LayerCount: 2
Back
Fore
SplineSet
133 600 m 13
 133 533 133 467 133 400 c 25
 189 400 244 400 300 400 c 25
 300 467 300 533 300 600 c 25
 244 600 189 600 133 600 c 13
133 300 m 9
 133 233 133 167 133 100 c 25
 189 100 244 100 300 100 c 25
 300 167 300 233 300 300 c 25
 244 300 189 300 133 300 c 9
67 0 m 9
 67 233 67 467 67 700 c 25
 156 700 244 700 333 700 c 25
 333 667 333 633 333 600 c 25
 344 600 356 600 367 600 c 25
 367 533 367 467 367 400 c 25
 356 400 344 400 333 400 c 25
 333 367 333 333 333 300 c 25
 344 300 356 300 367 300 c 25
 367 233 367 167 367 100 c 25
 356 100 344 100 333 100 c 25
 333 67 333 33 333 0 c 25
 244 0 156 0 67 0 c 9
EndSplineSet
Validated: 8388609
EndChar

StartChar: C
Encoding: 67 67 30
Width: 384
Flags: HW
HStem: 0 100<250 450> 100 100<500 550> 500 100<500 550> 600 100<250 450>
VStem: 100 100<200 500> 150 100<100 200 500 600> 200 300<0 100 600 700> 450 100<100 200 500 600>
LayerCount: 2
Back
Fore
SplineSet
133 700 m 13
 200 700 266 700 333 700 c 25
 333 667 333 633 333 600 c 25
 344 600 356 600 367 600 c 25
 367 567 367 533 367 500 c 25
 345 500 322 500 300 500 c 25
 300 533 300 567 300 600 c 25
 256 600 211 600 167 600 c 25
 167 567 167 533 167 500 c 25
 156 500 144 500 133 500 c 25
 133 400 133 300 133 200 c 25
 144 200 156 200 167 200 c 25
 167 167 167 133 167 100 c 25
 211 100 256 100 300 100 c 25
 300 133 300 167 300 200 c 25
 322 200 345 200 367 200 c 25
 367 167 367 133 367 100 c 25
 356 100 344 100 333 100 c 25
 333 67 333 33 333 0 c 25
 266 0 200 0 133 0 c 25
 133 33 133 67 133 100 c 25
 122 100 111 100 100 100 c 25
 100 133 100 167 100 200 c 25
 89 200 78 200 67 200 c 25
 67 300 67 400 67 500 c 25
 78 500 89 500 100 500 c 25
 100 533 100 567 100 600 c 25
 111 600 122 600 133 600 c 25
 133 633 133 667 133 700 c 13
EndSplineSet
Validated: 8388609
EndChar

StartChar: D
Encoding: 68 68 31
Width: 384
Flags: HW
HStem: 0 100<200 400> 600 100<200 400>
VStem: 100 100<100 600> 400 100<100 200 500 600> 450 100<200 500>
LayerCount: 2
Back
Fore
SplineSet
133 600 m 13
 133 433 133 267 133 100 c 25
 177 100 223 100 267 100 c 25
 267 133 267 167 267 200 c 25
 278 200 289 200 300 200 c 25
 300 300 300 400 300 500 c 25
 289 500 278 500 267 500 c 25
 267 533 267 567 267 600 c 25
 223 600 177 600 133 600 c 13
67 700 m 9
 145 700 222 700 300 700 c 25
 300 667 300 633 300 600 c 25
 311 600 322 600 333 600 c 25
 333 567 333 533 333 500 c 25
 344 500 356 500 367 500 c 25
 367 400 367 300 367 200 c 25
 356 200 344 200 333 200 c 25
 333 167 333 133 333 100 c 25
 322 100 311 100 300 100 c 25
 300 67 300 33 300 0 c 25
 222 0 145 0 67 0 c 25
 67 233 67 467 67 700 c 9
EndSplineSet
Validated: 8388609
EndChar

StartChar: E
Encoding: 69 69 32
Width: 384
Flags: HW
HStem: 0 100<200 550> 300 100<200 450> 600 100<200 550>
VStem: 100 100<100 300 400 600>
CounterMasks: 1 e0
LayerCount: 2
Back
Fore
SplineSet
367 600 m 13
 289 600 211 600 133 600 c 25
 133 533 133 467 133 400 c 25
 189 400 244 400 300 400 c 25
 300 367 300 333 300 300 c 25
 244 300 189 300 133 300 c 25
 133 233 133 167 133 100 c 25
 211 100 289 100 367 100 c 25
 367 67 367 33 367 0 c 25
 267 0 167 0 67 0 c 25
 67 233 67 467 67 700 c 25
 167 700 267 700 367 700 c 25
 367 667 367 633 367 600 c 13
EndSplineSet
Validated: 1
EndChar

StartChar: F
Encoding: 70 70 33
Width: 384
Flags: HW
HStem: 0 21G<100 200> 300 100<200 450> 600 100<200 550>
VStem: 100 100<0 300 400 600>
LayerCount: 2
Back
Fore
SplineSet
133 0 m 13
 111 0 89 0 67 0 c 25
 67 233 67 467 67 700 c 25
 167 700 267 700 367 700 c 25
 367 667 367 633 367 600 c 25
 289 600 211 600 133 600 c 25
 133 533 133 467 133 400 c 25
 189 400 244 400 300 400 c 25
 300 367 300 333 300 300 c 25
 244 300 189 300 133 300 c 25
 133 200 133 100 133 0 c 13
EndSplineSet
Validated: 1
EndChar

StartChar: G
Encoding: 71 71 34
Width: 384
Flags: HW
HStem: 0 100<200 450> 200 100<300 450> 500 100<500 550> 600 100<200 450>
VStem: 100 100<100 600> 450 100<100 200 500 600>
LayerCount: 2
Back
Fore
SplineSet
300 600 m 13
 244 600 189 600 133 600 c 25
 133 433 133 267 133 100 c 25
 189 100 244 100 300 100 c 25
 300 133 300 167 300 200 c 25
 267 200 233 200 200 200 c 25
 200 233 200 267 200 300 c 25
 256 300 311 300 367 300 c 25
 367 233 367 167 367 100 c 25
 356 100 344 100 333 100 c 25
 333 67 333 33 333 0 c 25
 255 0 178 0 100 0 c 25
 100 33 100 67 100 100 c 25
 89 100 78 100 67 100 c 25
 67 267 67 433 67 600 c 25
 78 600 89 600 100 600 c 25
 100 633 100 667 100 700 c 25
 178 700 255 700 333 700 c 25
 333 667 333 633 333 600 c 25
 344 600 356 600 367 600 c 25
 367 567 367 533 367 500 c 25
 345 500 322 500 300 500 c 25
 300 533 300 567 300 600 c 13
EndSplineSet
Validated: 8388609
EndChar

StartChar: H
Encoding: 72 72 35
Width: 384
Flags: HW
HStem: 0 21G<100 200 450 550> 300 100<200 450> 680 20G<100 200 450 550>
VStem: 100 100<0 300 400 700> 450 100<0 300 400 700>
LayerCount: 2
Back
Fore
SplineSet
67 700 m 13
 89 700 111 700 133 700 c 25
 133 600 133 500 133 400 c 25
 189 400 244 400 300 400 c 25
 300 500 300 600 300 700 c 25
 322 700 345 700 367 700 c 25
 367 467 367 233 367 0 c 25
 345 0 322 0 300 0 c 25
 300 100 300 200 300 300 c 25
 244 300 189 300 133 300 c 25
 133 200 133 100 133 0 c 25
 111 0 89 0 67 0 c 25
 67 233 67 467 67 700 c 13
EndSplineSet
Validated: 1
EndChar

StartChar: I
Encoding: 73 73 36
Width: 384
Flags: HW
HStem: 0 100<100 250 350 500> 600 100<100 250 350 500>
VStem: 250 100<100 600>
LayerCount: 2
Back
Fore
SplineSet
67 700 m 13
 156 700 244 700 333 700 c 25
 333 667 333 633 333 600 c 25
 300 600 266 600 233 600 c 25
 233 433 233 267 233 100 c 25
 266 100 300 100 333 100 c 25
 333 67 333 33 333 0 c 25
 244 0 156 0 67 0 c 25
 67 33 67 67 67 100 c 25
 100 100 134 100 167 100 c 25
 167 267 167 433 167 600 c 25
 134 600 100 600 67 600 c 25
 67 633 67 667 67 700 c 13
EndSplineSet
Validated: 1
EndChar

StartChar: J
Encoding: 74 74 37
Width: 384
Flags: HW
HStem: 0 100<200 450> 100 100<100 150> 680 20G<450 550>
VStem: 100 100<100 200> 450 100<100 700>
LayerCount: 2
Back
Fore
SplineSet
300 700 m 13
 322 700 345 700 367 700 c 25
 367 500 367 300 367 100 c 25
 356 100 344 100 333 100 c 25
 333 67 333 33 333 0 c 25
 255 0 178 0 100 0 c 25
 100 33 100 67 100 100 c 25
 89 100 78 100 67 100 c 25
 67 133 67 167 67 200 c 25
 89 200 111 200 133 200 c 25
 133 167 133 133 133 100 c 25
 189 100 244 100 300 100 c 25
 300 300 300 500 300 700 c 13
EndSplineSet
Validated: 8388609
EndChar

StartChar: K
Encoding: 75 75 38
Width: 384
Flags: HW
HStem: 0 100<450 550> 200 100<300 350> 300 100<200 250> 400 100<300 350> 600 100<450 550>
VStem: 100 100<0 300 400 700> 250 150<200 300 400 500> 350 100<100 200 500 600> 400 150<0 100 600 700>
LayerCount: 2
Back
Fore
SplineSet
67 700 m 13
 89 700 111 700 133 700 c 25
 133 600 133 500 133 400 c 25
 144 400 156 400 167 400 c 25
 167 433 167 467 167 500 c 25
 189 500 211 500 233 500 c 25
 233 533 233 567 233 600 c 25
 244 600 256 600 267 600 c 25
 267 633 267 667 267 700 c 25
 300 700 334 700 367 700 c 25
 367 667 367 633 367 600 c 25
 345 600 322 600 300 600 c 25
 300 567 300 533 300 500 c 25
 289 500 278 500 267 500 c 25
 267 467 267 433 267 400 c 25
 245 400 222 400 200 400 c 25
 200 367 200 333 200 300 c 25
 222 300 245 300 267 300 c 25
 267 267 267 233 267 200 c 25
 278 200 289 200 300 200 c 25
 300 167 300 133 300 100 c 25
 322 100 345 100 367 100 c 25
 367 67 367 33 367 0 c 25
 334 0 300 0 267 0 c 25
 267 33 267 67 267 100 c 25
 256 100 244 100 233 100 c 25
 233 133 233 167 233 200 c 25
 211 200 189 200 167 200 c 25
 167 233 167 267 167 300 c 25
 156 300 144 300 133 300 c 25
 133 200 133 100 133 0 c 25
 111 0 89 0 67 0 c 25
 67 233 67 467 67 700 c 13
EndSplineSet
Validated: 8388609
EndChar

StartChar: L
Encoding: 76 76 39
Width: 384
Flags: HW
HStem: 0 100<200 550> 680 20G<100 200>
VStem: 100 100<100 700>
LayerCount: 2
Back
Fore
SplineSet
67 700 m 13
 89 700 111 700 133 700 c 25
 133 500 133 300 133 100 c 25
 211 100 289 100 367 100 c 25
 367 67 367 33 367 0 c 25
 267 0 167 0 67 0 c 25
 67 233 67 467 67 700 c 13
EndSplineSet
Validated: 1
EndChar

StartChar: M
Encoding: 77 77 40
Width: 384
Flags: HW
HStem: 0 21G<50 150 450 550> 680 20G<50 200 400 550>
VStem: 50 150<600 700> 50 100<0 500> 250 100<300 400> 400 150<600 700> 450 100<0 500>
LayerCount: 2
Back
Fore
SplineSet
100 0 m 13
 78 0 55 0 33 0 c 25
 33 233 33 467 33 700 c 25
 66 700 100 700 133 700 c 25
 133 667 133 633 133 600 c 25
 144 600 156 600 167 600 c 25
 167 567 167 533 167 500 c 25
 189 500 211 500 233 500 c 25
 233 533 233 567 233 600 c 25
 244 600 256 600 267 600 c 25
 267 633 267 667 267 700 c 25
 300 700 334 700 367 700 c 25
 367 467 367 233 367 0 c 25
 345 0 322 0 300 0 c 25
 300 167 300 333 300 500 c 25
 289 500 278 500 267 500 c 25
 267 467 267 433 267 400 c 25
 256 400 244 400 233 400 c 25
 233 367 233 333 233 300 c 25
 211 300 189 300 167 300 c 25
 167 333 167 367 167 400 c 25
 156 400 144 400 133 400 c 25
 133 433 133 467 133 500 c 25
 122 500 111 500 100 500 c 25
 100 333 100 167 100 0 c 13
EndSplineSet
Validated: 8388609
EndChar

StartChar: N
Encoding: 78 78 41
Width: 384
Flags: HW
HStem: 0 21G<50 150 400 550> 680 20G<50 200 450 550>
VStem: 50 150<600 700> 50 100<0 500> 200 100<400 500> 250 100<300 400> 300 100<200 300> 400 150<0 100> 450 100<200 700>
LayerCount: 2
Back
Fore
SplineSet
33 700 m 13
 66 700 100 700 133 700 c 25
 133 667 133 633 133 600 c 25
 144 600 156 600 167 600 c 25
 167 567 167 533 167 500 c 25
 178 500 189 500 200 500 c 25
 200 467 200 433 200 400 c 25
 211 400 222 400 233 400 c 25
 233 367 233 333 233 300 c 25
 244 300 256 300 267 300 c 25
 267 267 267 233 267 200 c 25
 278 200 289 200 300 200 c 25
 300 367 300 533 300 700 c 25
 322 700 345 700 367 700 c 25
 367 467 367 233 367 0 c 25
 334 0 300 0 267 0 c 25
 267 33 267 67 267 100 c 25
 256 100 244 100 233 100 c 25
 233 133 233 167 233 200 c 25
 222 200 211 200 200 200 c 25
 200 233 200 267 200 300 c 25
 189 300 178 300 167 300 c 25
 167 333 167 367 167 400 c 25
 156 400 144 400 133 400 c 25
 133 433 133 467 133 500 c 25
 122 500 111 500 100 500 c 25
 100 333 100 167 100 0 c 25
 78 0 55 0 33 0 c 25
 33 233 33 467 33 700 c 13
EndSplineSet
Validated: 8388609
EndChar

StartChar: O
Encoding: 79 79 42
Width: 384
Flags: HW
HStem: 0 100<200 400> 600 100<200 400>
VStem: 50 100<200 500> 100 100<100 200 500 600> 150 300<0 100 600 700> 400 100<100 200 500 600> 450 100<200 500>
LayerCount: 2
Back
Fore
SplineSet
267 100 m 13
 267 133 267 167 267 200 c 25
 278 200 289 200 300 200 c 25
 300 300 300 400 300 500 c 25
 289 500 278 500 267 500 c 25
 267 533 267 567 267 600 c 25
 223 600 177 600 133 600 c 25
 133 567 133 533 133 500 c 25
 122 500 111 500 100 500 c 25
 100 400 100 300 100 200 c 25
 111 200 122 200 133 200 c 25
 133 167 133 133 133 100 c 25
 177 100 223 100 267 100 c 13
300 0 m 9
 233 0 167 0 100 0 c 25
 100 33 100 67 100 100 c 25
 89 100 78 100 67 100 c 25
 67 133 67 167 67 200 c 25
 56 200 44 200 33 200 c 25
 33 300 33 400 33 500 c 25
 44 500 56 500 67 500 c 25
 67 533 67 567 67 600 c 25
 78 600 89 600 100 600 c 25
 100 633 100 667 100 700 c 25
 167 700 233 700 300 700 c 25
 300 667 300 633 300 600 c 25
 311 600 322 600 333 600 c 25
 333 567 333 533 333 500 c 25
 344 500 356 500 367 500 c 25
 367 400 367 300 367 200 c 25
 356 200 344 200 333 200 c 25
 333 167 333 133 333 100 c 25
 322 100 311 100 300 100 c 25
 300 67 300 33 300 0 c 9
EndSplineSet
Validated: 8388609
EndChar

StartChar: P
Encoding: 80 80 43
Width: 384
Flags: HW
HStem: 0 21G<100 200> 300 100<200 450> 600 100<200 450>
VStem: 100 100<0 300 400 600> 450 100<400 600>
LayerCount: 2
Back
Fore
SplineSet
133 600 m 13
 133 533 133 467 133 400 c 25
 189 400 244 400 300 400 c 25
 300 467 300 533 300 600 c 25
 244 600 189 600 133 600 c 13
67 700 m 9
 156 700 244 700 333 700 c 25
 333 683 333 667 333 650 c 25
 344 650 356 650 367 650 c 25
 367 567 367 483 367 400 c 25
 356 400 344 400 333 400 c 25
 333 367 333 333 333 300 c 25
 266 300 200 300 133 300 c 25
 133 200 133 100 133 0 c 25
 111 0 89 0 67 0 c 25
 67 233 67 467 67 700 c 9
EndSplineSet
Validated: 1
EndChar

StartChar: Q
Encoding: 81 81 44
Width: 384
Flags: HW
HStem: -200 100<450 550> 0 100<150 300> 600 100<150 450>
VStem: 50 100<100 600> 300 100<100 200> 350 100<-100 0> 400 150<-200 -100> 450 100<100 600>
LayerCount: 2
Back
Fore
SplineSet
100 600 m 13
 100 433 100 267 100 100 c 25
 133 100 167 100 200 100 c 25
 200 133 200 167 200 200 c 25
 222 200 245 200 267 200 c 25
 267 167 267 133 267 100 c 25
 278 100 289 100 300 100 c 25
 300 267 300 433 300 600 c 25
 233 600 167 600 100 600 c 13
67 700 m 9
 156 700 244 700 333 700 c 25
 333 667 333 633 333 600 c 25
 344 600 356 600 367 600 c 25
 367 433 367 267 367 100 c 25
 356 100 344 100 333 100 c 25
 333 67 333 33 333 0 c 25
 322 0 311 0 300 0 c 25
 300 -33 300 -67 300 -100 c 25
 322 -100 345 -100 367 -100 c 25
 367 -133 367 -167 367 -200 c 25
 334 -200 300 -200 267 -200 c 25
 267 -167 267 -133 267 -100 c 25
 256 -100 244 -100 233 -100 c 25
 233 -67 233 -33 233 0 c 25
 177 0 123 0 67 0 c 25
 67 33 67 67 67 100 c 25
 56 100 44 100 33 100 c 25
 33 267 33 433 33 600 c 25
 44 600 56 600 67 600 c 25
 67 633 67 667 67 700 c 9
EndSplineSet
Validated: 8388609
EndChar

StartChar: R
Encoding: 82 82 45
Width: 384
Flags: HW
HStem: 0 100<450 550> 300 100<200 300 400 450> 600 100<200 450>
VStem: 100 100<0 300 400 600> 300 100<200 300> 350 100<100 200> 400 150<0 100> 450 100<400 600>
CounterMasks: 1 e0
LayerCount: 2
Back
Fore
SplineSet
133 600 m 13
 133 533 133 467 133 400 c 25
 189 400 244 400 300 400 c 25
 300 467 300 533 300 600 c 25
 244 600 189 600 133 600 c 13
67 700 m 9
 156 700 244 700 333 700 c 25
 333 683 333 667 333 650 c 25
 344 650 356 650 367 650 c 25
 367 567 367 483 367 400 c 25
 356 400 344 400 333 400 c 25
 333 367 333 333 333 300 c 25
 311 300 289 300 267 300 c 25
 267 267 267 233 267 200 c 25
 278 200 289 200 300 200 c 25
 300 167 300 133 300 100 c 25
 322 100 345 100 367 100 c 25
 367 67 367 33 367 0 c 25
 334 0 300 0 267 0 c 25
 267 33 267 67 267 100 c 25
 256 100 244 100 233 100 c 25
 233 133 233 167 233 200 c 25
 222 200 211 200 200 200 c 25
 200 233 200 267 200 300 c 25
 178 300 155 300 133 300 c 25
 133 200 133 100 133 0 c 25
 111 0 89 0 67 0 c 25
 67 233 67 467 67 700 c 9
EndSplineSet
Validated: 8388609
EndChar

StartChar: S
Encoding: 83 83 46
Width: 384
Flags: HW
HStem: 0 100<150 450> 300 100<200 450> 600 100<200 500>
VStem: 100 100<400 600> 150 350<0 100 300 400 600 700> 450 100<100 300>
CounterMasks: 1 e0
LayerCount: 2
Back
Fore
SplineSet
100 600 m 13
 100 633 100 667 100 700 c 25
 178 700 255 700 333 700 c 25
 333 667 333 633 333 600 c 25
 266 600 200 600 133 600 c 25
 133 533 133 467 133 400 c 25
 200 400 266 400 333 400 c 25
 333 367 333 333 333 300 c 25
 344 300 356 300 367 300 c 25
 367 233 367 167 367 100 c 25
 356 100 344 100 333 100 c 25
 333 67 333 33 333 0 c 25
 255 0 178 0 100 0 c 25
 100 33 100 67 100 100 c 25
 167 100 233 100 300 100 c 25
 300 167 300 233 300 300 c 25
 233 300 167 300 100 300 c 25
 100 333 100 367 100 400 c 25
 89 400 78 400 67 400 c 25
 67 467 67 533 67 600 c 25
 78 600 89 600 100 600 c 13
EndSplineSet
Validated: 8388609
EndChar

StartChar: T
Encoding: 84 84 47
Width: 384
Flags: HW
HStem: 0 21G<250 350> 600 100<50 250 350 550>
VStem: 250 100<0 600>
LayerCount: 2
Back
Fore
SplineSet
33 700 m 1
 144 700 256 700 367 700 c 5
 367 667 367 633 367 600 c 1
 323 600 277 600 233 600 c 1
 233 400 233 200 233 0 c 25
 211 0 189 0 167 0 c 25
 167 200 167 400 167 600 c 1
 123 600 77 600 33 600 c 1
 33 633 33 667 33 700 c 1
EndSplineSet
Validated: 1
EndChar

StartChar: U
Encoding: 85 85 48
Width: 384
Flags: HW
HStem: 0 100<200 450> 680 20G<100 200 450 550>
VStem: 100 100<100 700> 450 100<100 700>
LayerCount: 2
Back
Fore
SplineSet
67 700 m 13
 89 700 111 700 133 700 c 25
 133 500 133 300 133 100 c 25
 189 100 244 100 300 100 c 25
 300 300 300 500 300 700 c 25
 322 700 345 700 367 700 c 25
 367 500 367 300 367 100 c 25
 356 100 344 100 333 100 c 25
 333 67 333 33 333 0 c 25
 255 0 178 0 100 0 c 25
 100 33 100 67 100 100 c 25
 89 100 78 100 67 100 c 25
 67 300 67 500 67 700 c 13
EndSplineSet
Validated: 1
EndChar

StartChar: V
Encoding: 86 86 49
Width: 384
Flags: HW
HStem: 0 21G<300 400> 680 20G<100 200 500 600>
VStem: 100 100<500 700> 150 100<300 500> 200 100<200 300> 300 100<0 100> 400 100<200 300> 450 100<300 500> 500 100<500 700>
LayerCount: 2
Back
Fore
SplineSet
67 700 m 13
 89 700 111 700 133 700 c 25
 133 633 133 567 133 500 c 25
 144 500 156 500 167 500 c 25
 167 433 167 367 167 300 c 25
 178 300 189 300 200 300 c 25
 200 267 200 233 200 200 c 25
 222 200 245 200 267 200 c 25
 267 233 267 267 267 300 c 25
 278 300 289 300 300 300 c 25
 300 367 300 433 300 500 c 25
 311 500 322 500 333 500 c 25
 333 567 333 633 333 700 c 25
 355 700 378 700 400 700 c 25
 400 633 400 567 400 500 c 25
 389 500 378 500 367 500 c 25
 367 433 367 367 367 300 c 25
 356 300 344 300 333 300 c 25
 333 267 333 233 333 200 c 25
 322 200 311 200 300 200 c 25
 300 167 300 133 300 100 c 25
 289 100 278 100 267 100 c 25
 267 67 267 33 267 0 c 25
 245 0 222 0 200 0 c 25
 200 33 200 67 200 100 c 25
 189 100 178 100 167 100 c 25
 167 133 167 167 167 200 c 25
 156 200 144 200 133 200 c 25
 133 233 133 267 133 300 c 25
 122 300 111 300 100 300 c 25
 100 367 100 433 100 500 c 25
 89 500 78 500 67 500 c 25
 67 567 67 633 67 700 c 13
EndSplineSet
Validated: 8388609
EndChar

StartChar: W
Encoding: 87 87 50
Width: 384
Flags: HW
HStem: 0 21G<100 200 400 500> 680 20G<50 150 450 550>
VStem: 50 100<200 700> 100 150<100 200> 100 100<0 100> 250 100<300 400> 350 150<100 200> 400 100<0 100> 450 100<200 700>
LayerCount: 2
Back
Fore
SplineSet
33 700 m 13
 55 700 78 700 100 700 c 25
 100 533 100 367 100 200 c 25
 111 200 122 200 133 200 c 25
 133 233 133 267 133 300 c 25
 144 300 156 300 167 300 c 25
 167 333 167 367 167 400 c 25
 189 400 211 400 233 400 c 25
 233 367 233 333 233 300 c 25
 244 300 256 300 267 300 c 25
 267 267 267 233 267 200 c 25
 278 200 289 200 300 200 c 25
 300 367 300 533 300 700 c 25
 322 700 345 700 367 700 c 25
 367 533 367 367 367 200 c 25
 356 200 344 200 333 200 c 25
 333 133 333 67 333 0 c 25
 311 0 289 0 267 0 c 25
 267 33 267 67 267 100 c 25
 256 100 244 100 233 100 c 25
 233 133 233 167 233 200 c 25
 211 200 189 200 167 200 c 25
 167 167 167 133 167 100 c 25
 156 100 144 100 133 100 c 25
 133 67 133 33 133 0 c 25
 111 0 89 0 67 0 c 25
 67 67 67 133 67 200 c 25
 56 200 44 200 33 200 c 25
 33 367 33 533 33 700 c 13
EndSplineSet
Validated: 8388609
EndChar

StartChar: X
Encoding: 88 88 51
Width: 384
Flags: HW
HStem: 0 100<100 150 450 500> 600 100<100 150 450 500>
VStem: 100 100<0 100 600 700> 150 100<100 200 500 600> 200 200<200 300 400 500> 350 100<100 200 500 600> 400 100<0 100 600 700>
LayerCount: 2
Back
Fore
SplineSet
67 700 m 13
 89 700 111 700 133 700 c 25
 133 667 133 633 133 600 c 25
 144 600 156 600 167 600 c 25
 167 567 167 533 167 500 c 25
 189 500 211 500 233 500 c 25
 233 533 233 567 233 600 c 25
 244 600 256 600 267 600 c 25
 267 633 267 667 267 700 c 25
 289 700 311 700 333 700 c 25
 333 667 333 633 333 600 c 25
 322 600 311 600 300 600 c 25
 300 567 300 533 300 500 c 25
 289 500 278 500 267 500 c 25
 267 467 267 433 267 400 c 25
 256 400 244 400 233 400 c 25
 233 367 233 333 233 300 c 25
 244 300 256 300 267 300 c 25
 267 267 267 233 267 200 c 25
 278 200 289 200 300 200 c 25
 300 167 300 133 300 100 c 25
 311 100 322 100 333 100 c 25
 333 67 333 33 333 0 c 25
 311 0 289 0 267 0 c 25
 267 33 267 67 267 100 c 25
 256 100 244 100 233 100 c 25
 233 133 233 167 233 200 c 25
 211 200 189 200 167 200 c 25
 167 167 167 133 167 100 c 25
 156 100 144 100 133 100 c 25
 133 67 133 33 133 0 c 25
 111 0 89 0 67 0 c 25
 67 33 67 67 67 100 c 25
 78 100 89 100 100 100 c 25
 100 133 100 167 100 200 c 25
 111 200 122 200 133 200 c 25
 133 233 133 267 133 300 c 25
 144 300 156 300 167 300 c 25
 167 333 167 367 167 400 c 25
 156 400 144 400 133 400 c 25
 133 433 133 467 133 500 c 25
 122 500 111 500 100 500 c 25
 100 533 100 567 100 600 c 25
 89 600 78 600 67 600 c 25
 67 633 67 667 67 700 c 13
EndSplineSet
Validated: 8388609
EndChar

StartChar: Y
Encoding: 89 89 52
Width: 384
Flags: HW
HStem: 0 21G<250 350> 600 100<50 100 500 550>
VStem: 50 100<600 700> 100 100<500 600> 150 100<400 500> 250 100<0 300> 350 100<400 500> 400 100<500 600> 450 100<600 700>
LayerCount: 2
Back
Fore
SplineSet
33 700 m 13
 55 700 78 700 100 700 c 25
 100 667 100 633 100 600 c 25
 111 600 122 600 133 600 c 25
 133 567 133 533 133 500 c 25
 144 500 156 500 167 500 c 25
 167 467 167 433 167 400 c 25
 189 400 211 400 233 400 c 25
 233 433 233 467 233 500 c 25
 244 500 256 500 267 500 c 25
 267 533 267 567 267 600 c 25
 278 600 289 600 300 600 c 25
 300 633 300 667 300 700 c 25
 322 700 345 700 367 700 c 25
 367 667 367 633 367 600 c 25
 356 600 344 600 333 600 c 25
 333 567 333 533 333 500 c 25
 322 500 311 500 300 500 c 25
 300 467 300 433 300 400 c 25
 289 400 278 400 267 400 c 25
 267 367 267 333 267 300 c 25
 256 300 244 300 233 300 c 25
 233 200 233 100 233 0 c 25
 211 0 189 0 167 0 c 25
 167 100 167 200 167 300 c 25
 156 300 144 300 133 300 c 25
 133 333 133 367 133 400 c 25
 122 400 111 400 100 400 c 25
 100 433 100 467 100 500 c 25
 89 500 78 500 67 500 c 25
 67 533 67 567 67 600 c 25
 56 600 44 600 33 600 c 25
 33 633 33 667 33 700 c 13
EndSplineSet
Validated: 8388609
EndChar

StartChar: Z
Encoding: 90 90 53
Width: 384
Flags: HW
HStem: 0 100<100 150 250 500> 600 100<100 350 450 500>
VStem: 150 100<100 200> 200 100<200 300> 250 100<300 400> 300 100<400 500> 350 100<500 600>
LayerCount: 2
Back
Fore
SplineSet
67 700 m 13
 156 700 244 700 333 700 c 25
 333 667 333 633 333 600 c 25
 322 600 311 600 300 600 c 25
 300 567 300 533 300 500 c 25
 289 500 278 500 267 500 c 25
 267 467 267 433 267 400 c 25
 256 400 244 400 233 400 c 25
 233 367 233 333 233 300 c 25
 222 300 211 300 200 300 c 25
 200 267 200 233 200 200 c 25
 189 200 178 200 167 200 c 25
 167 167 167 133 167 100 c 25
 223 100 277 100 333 100 c 25
 333 67 333 33 333 0 c 25
 244 0 156 0 67 0 c 25
 67 33 67 67 67 100 c 25
 78 100 89 100 100 100 c 25
 100 133 100 167 100 200 c 25
 111 200 122 200 133 200 c 25
 133 233 133 267 133 300 c 25
 144 300 156 300 167 300 c 25
 167 333 167 367 167 400 c 25
 178 400 189 400 200 400 c 25
 200 433 200 467 200 500 c 25
 211 500 222 500 233 500 c 25
 233 533 233 567 233 600 c 25
 177 600 123 600 67 600 c 25
 67 633 67 667 67 700 c 13
EndSplineSet
Validated: 8388609
EndChar

StartChar: a
Encoding: 97 97 54
Width: 384
Flags: HW
HStem: 0 100<150 400 500 549> 100 100<50 100> 200 100<150 400> 400 100<100 400>
VStem: 50 100<100 200> 400 100<100 200 300 400>
LayerCount: 2
Back
Fore
SplineSet
100 200 m 13
 100 167 100 133 100 100 c 25
 156 100 211 100 267 100 c 25
 267 133 267 167 267 200 c 25
 211 200 156 200 100 200 c 13
67 500 m 9
 145 500 222 500 300 500 c 25
 300 467 300 433 300 400 c 25
 311 400 322 400 333 400 c 25
 333 300 333 200 333 100 c 25
 344 100 355 100 366 100 c 25
 366 67 367 33 367 0 c 25
 267 0 167 0 67 0 c 25
 67 33 67 67 67 100 c 25
 56 100 44 100 33 100 c 25
 33 133 33 167 33 200 c 25
 44 200 56 200 67 200 c 25
 67 233 67 267 67 300 c 25
 134 300 200 300 267 300 c 25
 267 333 267 367 267 400 c 25
 200 400 134 400 67 400 c 25
 67 433 67 467 67 500 c 9
EndSplineSet
Validated: 8388609
EndChar

StartChar: b
Encoding: 98 98 55
Width: 384
Flags: HW
HStem: 0 100<200 450> 300 100<200 250> 400 100<250 450> 680 20G<100 200>
VStem: 100 150<300 400> 100 100<100 300 400 700> 450 100<100 400>
LayerCount: 2
Back
Fore
SplineSet
300 400 m 13
 256 400 211 400 167 400 c 25
 167 367 167 333 167 300 c 25
 156 300 144 300 133 300 c 25
 133 233 133 167 133 100 c 25
 189 100 244 100 300 100 c 25
 300 200 300 300 300 400 c 13
67 700 m 9
 89 700 111 700 133 700 c 25
 133 600 133 500 133 400 c 25
 144 400 156 400 167 400 c 25
 167 433 167 467 167 500 c 25
 223 500 277 500 333 500 c 25
 333 467 333 433 333 400 c 25
 344 400 356 400 367 400 c 25
 367 300 367 200 367 100 c 25
 356 100 344 100 333 100 c 25
 333 67 333 33 333 0 c 25
 244 0 156 0 67 0 c 25
 67 233 67 467 67 700 c 9
EndSplineSet
Validated: 8388613
EndChar

StartChar: c
Encoding: 99 99 56
Width: 384
Flags: HW
HStem: 0 100<250 550> 200 100<100 150> 400 100<250 550>
VStem: 100 100<200 300> 150 100<100 200 300 400>
CounterMasks: 1 e0
LayerCount: 2
Back
Fore
SplineSet
133 500 m 13
 211 500 289 500 367 500 c 25
 367 467 367 433 367 400 c 25
 300 400 234 400 167 400 c 25
 167 367 167 333 167 300 c 25
 156 300 144 300 133 300 c 25
 133 267 133 233 133 200 c 25
 144 200 156 200 167 200 c 25
 167 167 167 133 167 100 c 25
 234 100 300 100 367 100 c 25
 367 67 367 33 367 0 c 25
 289 0 211 0 133 0 c 25
 133 33 133 67 133 100 c 25
 122 100 111 100 100 100 c 25
 100 133 100 167 100 200 c 25
 89 200 78 200 67 200 c 25
 67 233 67 267 67 300 c 25
 78 300 89 300 100 300 c 25
 100 333 100 367 100 400 c 25
 111 400 122 400 133 400 c 25
 133 433 133 467 133 500 c 13
EndSplineSet
Validated: 8388609
EndChar

StartChar: d
Encoding: 100 100 57
Width: 384
Flags: HW
HStem: 0 100<200 450> 300 100<400 450> 400 100<200 400> 680 20G<450 550>
VStem: 100 100<100 400> 400 150<300 400> 450 100<100 300 400 700>
LayerCount: 2
Back
Fore
SplineSet
133 100 m 13
 189 100 244 100 300 100 c 25
 300 167 300 233 300 300 c 25
 289 300 278 300 267 300 c 25
 267 333 267 367 267 400 c 25
 223 400 177 400 133 400 c 25
 133 300 133 200 133 100 c 13
300 700 m 9
 322 700 345 700 367 700 c 25
 367 467 367 233 367 0 c 25
 278 0 189 0 100 0 c 25
 100 33 100 67 100 100 c 25
 89 100 78 100 67 100 c 25
 67 200 67 300 67 400 c 25
 78 400 89 400 100 400 c 25
 100 433 100 467 100 500 c 25
 156 500 211 500 267 500 c 25
 267 467 267 433 267 400 c 25
 278 400 289 400 300 400 c 25
 300 500 300 600 300 700 c 9
EndSplineSet
Validated: 8388613
EndChar

StartChar: e
Encoding: 101 101 58
Width: 384
Flags: HW
HStem: 0 100<200 500> 200 100<200 450> 400 100<200 450>
VStem: 100 100<100 200 300 400> 450 100<300 400>
CounterMasks: 1 e0
LayerCount: 2
Back
Fore
SplineSet
133 400 m 1
 133 367 133 333 133 300 c 1
 189 300 244 300 300 300 c 1
 300 333 300 367 300 400 c 1
 244 400 189 400 133 400 c 1
100 400 m 1
 100 433 100 467 100 500 c 1
 178 500 255 500 333 500 c 1
 333 467 333 433 333 400 c 25
 344 400 356 400 367 400 c 25
 367 333 367 267 367 200 c 1
 289 200 211 200 133 200 c 1
 133 167 133 133 133 100 c 1
 200 100 266 100 333 100 c 1
 333 67 333 33 333 0 c 1
 255 0 178 0 100 0 c 1
 100 33 100 67 100 100 c 1
 89 100 78 100 67 100 c 1
 67 200 67 300 67 400 c 5
 78 400 89 400 100 400 c 1
EndSplineSet
Validated: 1
EndChar

StartChar: f
Encoding: 102 102 59
Width: 384
Flags: HW
HStem: 0 21G<200 300> 300 100<100 200 300 450> 600 100<300 550>
VStem: 200 100<0 300 400 600>
LayerCount: 2
Back
Fore
SplineSet
167 600 m 13
 167 633 167 667 167 700 c 25
 234 700 300 700 367 700 c 25
 367 667 367 633 367 600 c 25
 311 600 256 600 200 600 c 25
 200 533 200 467 200 400 c 25
 233 400 267 400 300 400 c 25
 300 367 300 333 300 300 c 25
 267 300 233 300 200 300 c 25
 200 200 200 100 200 0 c 25
 178 0 155 0 133 0 c 25
 133 100 133 200 133 300 c 25
 111 300 89 300 67 300 c 25
 67 333 67 367 67 400 c 25
 89 400 111 400 133 400 c 25
 133 467 133 533 133 600 c 25
 144 600 156 600 167 600 c 13
EndSplineSet
Validated: 1
EndChar

StartChar: g
Encoding: 103 103 60
Width: 384
Flags: HW
HStem: -200 100<150 450> 0 100<200 400> 100 100<400 450> 300 100<400 450> 400 100<200 400>
VStem: 100 100<100 400> 150 250<0 100 400 498> 400 150<100 200 300 400> 450 100<-100 100 200 300 400 500>
LayerCount: 2
Back
Fore
SplineSet
133 400 m 13
 133 300 133 200 133 100 c 25
 177 100 223 100 267 100 c 25
 267 133 267 167 267 200 c 25
 278 200 289 200 300 200 c 25
 300 233 300 267 300 300 c 25
 289 300 278 300 267 300 c 25
 267 333 267 367 267 400 c 25
 223 400 177 400 133 400 c 13
100 400 m 9
 100 433 100 465 100 498 c 25
 156 499 211 499 267 500 c 25
 267 467 267 433 267 400 c 25
 278 400 289 400 300 400 c 25
 300 433 300 467 300 500 c 25
 322 500 345 500 367 500 c 25
 367 300 367 100 367 -100 c 25
 356 -100 344 -100 333 -100 c 25
 333 -133 333 -167 333 -200 c 25
 255 -200 178 -200 100 -200 c 25
 100 -167 100 -133 100 -100 c 25
 167 -100 233 -100 300 -100 c 25
 300 -33 300 33 300 100 c 25
 289 100 278 100 267 100 c 25
 267 67 267 33 267 0 c 25
 211 0 156 0 100 0 c 25
 100 33 100 67 100 100 c 25
 89 100 78 100 67 100 c 25
 67 200 67 300 67 400 c 25
 78 400 89 400 100 400 c 9
EndSplineSet
Validated: 8388613
EndChar

StartChar: h
Encoding: 104 104 61
Width: 384
Flags: HW
HStem: 0 21G<100 200 450 550> 300 100<200 250> 400 100<250 450> 680 20G<100 200>
VStem: 100 150<300 400> 100 100<0 300 400 700> 450 100<0 400>
LayerCount: 2
Back
Fore
SplineSet
67 700 m 13
 89 700 111 700 133 700 c 25
 133 600 133 500 133 400 c 25
 144 400 156 400 167 400 c 25
 167 433 167 467 167 500 c 25
 223 500 277 500 333 500 c 25
 333 467 333 433 333 400 c 25
 344 400 356 400 367 400 c 25
 367 267 367 133 367 0 c 25
 345 0 322 0 300 0 c 25
 300 133 300 267 300 400 c 25
 256 400 211 400 167 400 c 25
 167 367 167 333 167 300 c 25
 156 300 144 300 133 300 c 25
 133 200 133 100 133 0 c 25
 111 0 89 0 67 0 c 25
 67 233 67 467 67 700 c 13
EndSplineSet
Validated: 8388613
EndChar

StartChar: i
Encoding: 105 105 62
Width: 384
Flags: HW
HStem: 0 100<150 250 349 450> 400 100<200 250> 600 100<200 350>
VStem: 200 150<400 500 600 700> 250 100<100 400>
LayerCount: 2
Back
Fore
SplineSet
133 500 m 1
 166 500 200 500 233 500 c 25
 233 367 233 233 233 100 c 25
 255 100 278 100 300 100 c 25
 300 67 300 33 300 0 c 25
 233 0 167 0 100 0 c 25
 100 33 100 67 100 100 c 25
 122 100 145 100 167 100 c 25
 167 200 167 300 167 400 c 1
 156 400 144 400 133 400 c 29
 133 433 133 467 133 500 c 1
133 700 m 9
 166 700 200 700 233 700 c 25
 233 667 233 633 233 600 c 25
 200 600 166 600 133 600 c 25
 133 633 133 667 133 700 c 9
EndSplineSet
Validated: 8388609
EndChar

StartChar: j
Encoding: 106 106 63
Width: 384
Flags: HW
HStem: -200 100<200 450> -100 100<100 150> 400 100<400 450> 600 100<400 549>
VStem: 100 100<-100 0> 400 150<400 500 600 700> 450 100<-100 400>
LayerCount: 2
Back
Fore
SplineSet
267 400 m 13
 267 433 267 467 267 500 c 25
 300 500 334 500 367 500 c 25
 367 300 367 100 367 -100 c 25
 356 -100 344 -100 333 -100 c 25
 333 -133 333 -167 333 -200 c 25
 255 -200 178 -200 100 -200 c 25
 100 -167 100 -133 100 -100 c 25
 89 -100 78 -100 67 -100 c 25
 67 -67 67 -33 67 0 c 25
 89 0 111 0 133 0 c 25
 133 -33 133 -67 133 -100 c 25
 189 -100 244 -100 300 -100 c 25
 300 67 300 233 300 400 c 25
 289 400 278 400 267 400 c 13
267 700 m 9
 300 700 333 700 366 700 c 25
 366 667 367 633 367 600 c 25
 334 600 300 600 267 600 c 25
 267 633 267 667 267 700 c 9
EndSplineSet
Validated: 8388609
EndChar

StartChar: k
Encoding: 107 107 64
Width: 384
Flags: HW
HStem: 0 100<400 500> 200 100<200 300> 400 100<400 500> 680 20G<100 200>
VStem: 100 100<0 200 300 700> 300 100<100 200 300 400> 350 150<0 100 400 500>
LayerCount: 2
Back
Fore
SplineSet
67 700 m 13
 89 700 111 700 133 700 c 25
 133 567 133 433 133 300 c 25
 155 300 178 300 200 300 c 25
 200 333 200 367 200 400 c 25
 211 400 222 400 233 400 c 25
 233 433 233 467 233 500 c 25
 266 500 300 500 333 500 c 25
 333 467 333 433 333 400 c 25
 311 400 289 400 267 400 c 25
 267 367 267 333 267 300 c 25
 256 300 244 300 233 300 c 25
 233 267 233 233 233 200 c 25
 244 200 256 200 267 200 c 25
 267 167 267 133 267 100 c 25
 289 100 311 100 333 100 c 25
 333 67 333 33 333 0 c 25
 300 0 266 0 233 0 c 25
 233 33 233 67 233 100 c 25
 222 100 211 100 200 100 c 25
 200 133 200 167 200 200 c 25
 178 200 155 200 133 200 c 25
 133 133 133 67 133 0 c 25
 111 0 89 0 67 0 c 25
 67 233 67 467 67 700 c 13
EndSplineSet
Validated: 8388609
EndChar

StartChar: l
Encoding: 108 108 65
Width: 384
Flags: HW
HStem: 0 100<100 250 350 500> 650 100<150 250>
VStem: 250 100<100 650>
LayerCount: 2
Back
Fore
SplineSet
100 750 m 13
 144 750 189 750 233 750 c 25
 233 533 233 317 233 100 c 25
 266 100 300 100 333 100 c 25
 333 67 333 33 333 0 c 25
 244 0 156 0 67 0 c 25
 67 33 67 67 67 100 c 25
 100 100 134 100 167 100 c 25
 167 283 167 467 167 650 c 25
 145 650 122 650 100 650 c 25
 100 683 100 717 100 750 c 13
EndSplineSet
Validated: 1
EndChar

StartChar: m
Encoding: 109 109 66
Width: 384
Flags: HW
HStem: 0 21G<50 150 250 350 450 550> 400 100<150 250 350 450>
VStem: 50 100<0 400> 250 100<0 400> 450 100<0 400>
CounterMasks: 1 38
LayerCount: 2
Back
Fore
SplineSet
33 0 m 13
 33 167 33 333 33 500 c 25
 133 500 233 500 333 500 c 25
 333 467 333 433 333 400 c 25
 344 400 356 400 367 400 c 25
 367 267 367 133 367 0 c 25
 345 0 322 0 300 0 c 25
 300 133 300 267 300 400 c 25
 278 400 255 400 233 400 c 25
 233 267 233 133 233 0 c 25
 211 0 189 0 167 0 c 25
 167 133 167 267 167 400 c 25
 145 400 122 400 100 400 c 25
 100 267 100 133 100 0 c 25
 78 0 55 0 33 0 c 13
EndSplineSet
Validated: 1
EndChar

StartChar: n
Encoding: 110 110 67
Width: 384
Flags: HW
HStem: 0 21G<100 200 450 550> 300 100<200 250> 400 100<250 450>
VStem: 100 150<300 400> 100 100<0 300 400 500> 450 100<0 400>
LayerCount: 2
Back
Fore
SplineSet
67 0 m 13
 67 167 67 333 67 500 c 25
 89 500 111 500 133 500 c 25
 133 467 133 433 133 400 c 25
 144 400 156 400 167 400 c 25
 167 433 167 467 167 500 c 25
 223 500 277 500 333 500 c 25
 333 467 333 433 333 400 c 25
 344 400 356 400 367 400 c 25
 367 267 367 133 367 0 c 25
 345 0 322 0 300 0 c 25
 300 133 300 267 300 400 c 25
 256 400 211 400 167 400 c 25
 167 367 167 333 167 300 c 25
 156 300 144 300 133 300 c 25
 133 200 133 100 133 0 c 25
 111 0 89 0 67 0 c 13
EndSplineSet
Validated: 8388613
EndChar

StartChar: o
Encoding: 111 111 68
Width: 384
Flags: HW
HStem: 0 100<200 450> 400 100<200 450>
VStem: 100 100<100 400> 450 100<100 400>
LayerCount: 2
Back
Fore
SplineSet
133 400 m 13
 133 300 133 200 133 100 c 25
 189 100 244 100 300 100 c 25
 300 200 300 300 300 400 c 25
 244 400 189 400 133 400 c 13
100 500 m 9
 178 500 255 500 333 500 c 25
 333 467 333 433 333 400 c 25
 344 400 356 400 367 400 c 25
 367 300 367 200 367 100 c 25
 356 100 344 100 333 100 c 25
 333 67 333 33 333 0 c 25
 255 0 178 0 100 0 c 25
 100 33 100 67 100 100 c 25
 89 100 78 100 67 100 c 25
 67 200 67 300 67 400 c 25
 78 400 89 400 100 400 c 25
 100 433 100 467 100 500 c 9
EndSplineSet
Validated: 1
EndChar

StartChar: p
Encoding: 112 112 69
Width: 384
Flags: HW
HStem: -200 21G<100 200> 0 100<250 450> 100 100<200 250> 300 100<200 250> 400 100<250 450>
VStem: 100 150<100 200 300 400> 100 100<-200 100 200 300 400 500> 250 250<0 100 400 500> 450 100<100 400>
LayerCount: 2
Back
Fore
SplineSet
167 300 m 13
 156 300 144 300 133 300 c 25
 133 267 133 233 133 200 c 25
 144 200 156 200 167 200 c 25
 167 167 167 133 167 100 c 25
 211 100 256 100 300 100 c 25
 300 200 300 300 300 400 c 25
 256 400 211 400 167 400 c 25
 167 367 167 333 167 300 c 13
67 500 m 9
 89 500 111 500 133 500 c 25
 133 467 133 433 133 400 c 25
 144 400 156 400 167 400 c 25
 167 433 167 467 167 500 c 25
 223 500 277 500 333 500 c 25
 333 467 333 433 333 400 c 25
 344 400 356 400 367 400 c 25
 367 300 367 200 367 100 c 25
 356 100 344 100 333 100 c 25
 333 67 333 33 333 0 c 25
 277 0 223 0 167 0 c 25
 167 33 167 67 167 100 c 25
 156 100 144 100 133 100 c 25
 133 0 133 -100 133 -200 c 25
 111 -200 89 -200 67 -200 c 25
 67 33 67 267 67 500 c 9
EndSplineSet
Validated: 8388613
EndChar

StartChar: q
Encoding: 113 113 70
Width: 384
Flags: HW
HStem: -200 21G<450 550> 0 100<200 400> 100 100<400 450> 300 100<400 450> 400 100<200 400>
VStem: 100 100<100 400> 150 250<0 100 400 500> 400 150<100 200 300 400> 450 100<-200 100 200 300 400 500>
LayerCount: 2
Back
Fore
SplineSet
133 400 m 13
 133 300 133 200 133 100 c 25
 177 100 223 100 267 100 c 25
 267 133 267 167 267 200 c 25
 278 200 289 200 300 200 c 25
 300 233 300 267 300 300 c 25
 289 300 278 300 267 300 c 25
 267 333 267 367 267 400 c 25
 223 400 177 400 133 400 c 13
100 500 m 9
 156 500 211 500 267 500 c 25
 267 467 267 433 267 400 c 25
 278 400 289 400 300 400 c 25
 300 433 300 467 300 500 c 25
 322 500 345 500 367 500 c 25
 367 267 367 33 367 -200 c 25
 345 -200 322 -200 300 -200 c 25
 300 -100 300 0 300 100 c 25
 289 100 278 100 267 100 c 25
 267 67 267 33 267 0 c 25
 211 0 156 0 100 0 c 25
 100 33 100 67 100 100 c 25
 89 100 78 100 67 100 c 25
 67 200 67 300 67 400 c 25
 78 400 89 400 100 400 c 25
 100 433 100 467 100 500 c 9
EndSplineSet
Validated: 8388613
EndChar

StartChar: r
Encoding: 114 114 71
Width: 384
Flags: HW
HStem: 0 21G<100 200> 300 100<200 300> 400 100<300 550>
VStem: 100 100<0 300 400 500>
LayerCount: 2
Back
Fore
SplineSet
67 0 m 13
 67 167 67 333 67 500 c 25
 89 500 111 500 133 500 c 25
 133 467 133 433 133 400 c 25
 155 400 178 400 200 400 c 25
 200 433 200 467 200 500 c 25
 256 500 311 500 367 500 c 25
 367 467 367 433 367 400 c 25
 311 400 256 400 200 400 c 25
 200 367 200 333 200 300 c 25
 178 300 155 300 133 300 c 25
 133 200 133 100 133 0 c 25
 111 0 89 0 67 0 c 13
EndSplineSet
Validated: 8388613
EndChar

StartChar: s
Encoding: 115 115 72
Width: 384
Flags: HW
HStem: 0 100<150 450> 100 100<500 550> 200 100<200 450> 300 100<100 150> 400 100<200 500>
VStem: 100 100<300 400> 150 350<0 100 200 300 400 500> 450 100<100 200>
LayerCount: 2
Back
Fore
SplineSet
333 400 m 1
 266 400 200 400 133 400 c 1
 133 367 133 333 133 300 c 1
 200 300 266 300 333 300 c 1
 333 267 333 233 333 200 c 25
 344 200 356 200 367 200 c 25
 367 167 367 133 367 100 c 25
 356 100 344 100 333 100 c 25
 333 67 333 33 333 0 c 1
 255 0 178 0 100 0 c 5
 100 33 100 67 100 100 c 1
 167 100 233 100 300 100 c 1
 300 133 300 167 300 200 c 1
 233 200 167 200 100 200 c 1
 100 233 100 267 100 300 c 1
 89 300 78 300 67 300 c 1
 67 333 67 367 67 400 c 1
 78 400 89 400 100 400 c 1
 100 433 100 467 100 500 c 1
 178 500 255 500 333 500 c 1
 333 467 333 433 333 400 c 1
EndSplineSet
Validated: 8388609
EndChar

StartChar: t
Encoding: 116 116 73
Width: 384
Flags: HW
HStem: 0 100<300 550> 400 100<100 200 300 450> 680 20G<200 300>
VStem: 200 100<100 400 500 700>
LayerCount: 2
Back
Fore
SplineSet
133 700 m 9
 155 700 178 700 200 700 c 25
 200 633 200 567 200 500 c 1
 233 500 267 500 300 500 c 5
 300 467 300 433 300 400 c 1
 267 400 233 400 200 400 c 1
 200 300 200 200 200 100 c 25
 256 100 311 100 367 100 c 25
 367 67 367 33 367 0 c 25
 300 0 234 0 167 0 c 25
 167 33 167 67 167 100 c 25
 156 100 144 100 133 100 c 25
 133 200 133 300 133 400 c 25
 111 400 89 400 67 400 c 25
 67 433 67 467 67 500 c 25
 89 500 111 500 133 500 c 25
 133 567 133 633 133 700 c 9
EndSplineSet
Validated: 1
EndChar

StartChar: u
Encoding: 117 117 74
Width: 384
Flags: HW
HStem: 0 100<200 400> 100 100<400 450> 480 20G<100 200 450 550>
VStem: 100 100<100 500> 400 150<100 200> 450 100<0 100 200 500>
LayerCount: 2
Back
Fore
SplineSet
67 500 m 13
 89 500 111 500 133 500 c 25
 133 367 133 233 133 100 c 25
 177 100 223 100 267 100 c 25
 267 133 267 167 267 200 c 25
 278 200 289 200 300 200 c 25
 300 300 300 400 300 500 c 25
 322 500 345 500 367 500 c 25
 367 333 367 167 367 0 c 25
 345 0 322 0 300 0 c 25
 300 33 300 67 300 100 c 25
 289 100 278 100 267 100 c 25
 267 67 267 33 267 0 c 25
 211 0 156 0 100 0 c 25
 100 33 100 67 100 100 c 25
 89 100 78 100 67 100 c 25
 67 233 67 367 67 500 c 13
EndSplineSet
Validated: 8388613
EndChar

StartChar: v
Encoding: 118 118 75
Width: 384
Flags: HW
HStem: 0 21G<250 350> 400 100<50 100 500 550>
VStem: 50 100<400 500> 100 100<300 400> 150 100<200 300> 250 100<0 100> 350 100<200 300> 400 100<300 400> 450 100<400 500>
LayerCount: 2
Back
Fore
SplineSet
33 500 m 13
 55 500 78 500 100 500 c 25
 100 467 100 433 100 400 c 25
 111 400 122 400 133 400 c 25
 133 367 133 333 133 300 c 25
 144 300 156 300 167 300 c 25
 167 267 167 233 167 200 c 25
 189 200 211 200 233 200 c 25
 233 233 233 267 233 300 c 25
 244 300 256 300 267 300 c 25
 267 333 267 367 267 400 c 25
 278 400 289 400 300 400 c 25
 300 433 300 467 300 500 c 25
 322 500 345 500 367 500 c 25
 367 467 367 433 367 400 c 25
 356 400 344 400 333 400 c 25
 333 367 333 333 333 300 c 25
 322 300 311 300 300 300 c 25
 300 267 300 233 300 200 c 25
 289 200 278 200 267 200 c 25
 267 167 267 133 267 100 c 25
 256 100 244 100 233 100 c 25
 233 67 233 33 233 0 c 25
 211 0 189 0 167 0 c 25
 167 33 167 67 167 100 c 25
 156 100 144 100 133 100 c 25
 133 133 133 167 133 200 c 25
 122 200 111 200 100 200 c 25
 100 233 100 267 100 300 c 25
 89 300 78 300 67 300 c 25
 67 333 67 367 67 400 c 25
 56 400 44 400 33 400 c 25
 33 433 33 467 33 500 c 13
EndSplineSet
Validated: 8388609
EndChar

StartChar: w
Encoding: 119 119 76
Width: 384
Flags: HW
HStem: 0 100<200 250 350 400> 480 20G<50 150 450 550>
VStem: 50 100<200 500> 100 100<100 200> 250 100<100 400> 400 100<100 200> 450 100<200 500>
LayerCount: 2
Back
Fore
SplineSet
300 500 m 13
 322 500 345 500 367 500 c 25
 367 400 367 300 367 200 c 25
 356 200 344 200 333 200 c 25
 333 167 333 133 333 100 c 25
 322 100 311 100 300 100 c 25
 300 67 300 33 300 0 c 25
 278 0 255 0 233 0 c 25
 233 33 233 67 233 100 c 25
 211 100 189 100 167 100 c 25
 167 67 167 33 167 0 c 25
 145 0 122 0 100 0 c 25
 100 33 100 67 100 100 c 25
 89 100 78 100 67 100 c 25
 67 133 67 167 67 200 c 25
 56 200 44 200 33 200 c 25
 33 300 33 400 33 500 c 25
 55 500 78 500 100 500 c 25
 100 400 100 300 100 200 c 25
 111 200 122 200 133 200 c 25
 133 167 133 133 133 100 c 25
 144 100 156 100 167 100 c 25
 167 200 167 300 167 400 c 25
 189 400 211 400 233 400 c 25
 233 300 233 200 233 100 c 25
 244 100 256 100 267 100 c 25
 267 133 267 167 267 200 c 25
 278 200 289 200 300 200 c 25
 300 300 300 400 300 500 c 13
EndSplineSet
Validated: 8388613
EndChar

StartChar: x
Encoding: 120 120 77
Width: 384
Flags: HW
HStem: 0 100<50 150 450 550> 200 100<250 350> 400 100<50 150 450 550>
VStem: 50 150<0 100 400 500> 150 100<100 200 300 400> 350 100<100 200 300 400> 400 150<0 100 400 500>
CounterMasks: 1 e0
LayerCount: 2
Back
Fore
SplineSet
33 500 m 13
 66 500 100 500 133 500 c 25
 133 467 133 433 133 400 c 25
 144 400 156 400 167 400 c 25
 167 367 167 333 167 300 c 25
 189 300 211 300 233 300 c 25
 233 333 233 367 233 400 c 25
 244 400 256 400 267 400 c 25
 267 433 267 467 267 500 c 25
 300 500 334 500 367 500 c 25
 367 467 367 433 367 400 c 25
 345 400 322 400 300 400 c 25
 300 367 300 333 300 300 c 25
 289 300 278 300 267 300 c 25
 267 267 267 233 267 200 c 25
 278 200 289 200 300 200 c 25
 300 167 300 133 300 100 c 25
 322 100 345 100 367 100 c 25
 367 67 367 33 367 0 c 25
 334 0 300 0 267 0 c 25
 267 33 267 67 267 100 c 25
 256 100 244 100 233 100 c 25
 233 133 233 167 233 200 c 25
 211 200 189 200 167 200 c 25
 167 167 167 133 167 100 c 25
 156 100 144 100 133 100 c 25
 133 67 133 33 133 0 c 25
 100 0 66 0 33 0 c 25
 33 33 33 67 33 100 c 25
 55 100 78 100 100 100 c 25
 100 133 100 167 100 200 c 25
 111 200 122 200 133 200 c 25
 133 233 133 267 133 300 c 25
 122 300 111 300 100 300 c 25
 100 333 100 367 100 400 c 25
 78 400 55 400 33 400 c 25
 33 433 33 467 33 500 c 13
EndSplineSet
Validated: 8388609
EndChar

StartChar: y
Encoding: 121 121 78
Width: 384
Flags: HW
HStem: -200 100<100 200> 400 100<100 150 500 550>
VStem: 100 100<400 500> 150 100<300 400> 200 100<-100 0 200 300> 250 150<100 200> 250 100<0 100> 350 100<200 300> 400 100<300 400> 450 100<400 500>
LayerCount: 2
Back
Fore
SplineSet
67 500 m 13
 89 500 111 500 133 500 c 25
 133 467 133 433 133 400 c 25
 144 400 156 400 167 400 c 25
 167 367 167 333 167 300 c 25
 178 300 189 300 200 300 c 25
 200 267 200 233 200 200 c 25
 211 200 222 200 233 200 c 25
 233 233 233 267 233 300 c 25
 244 300 256 300 267 300 c 25
 267 333 267 367 267 400 c 25
 278 400 289 400 300 400 c 25
 300 433 300 467 300 500 c 25
 322 500 345 500 367 500 c 25
 367 467 367 433 367 400 c 25
 356 400 344 400 333 400 c 25
 333 367 333 333 333 300 c 25
 322 300 311 300 300 300 c 25
 300 267 300 233 300 200 c 25
 289 200 278 200 267 200 c 25
 267 167 267 133 267 100 c 25
 256 100 244 100 233 100 c 25
 233 67 233 33 233 0 c 25
 222 0 211 0 200 0 c 25
 200 -33 200 -67 200 -100 c 25
 189 -100 178 -100 167 -100 c 25
 167 -133 167 -167 167 -200 c 25
 134 -200 100 -200 67 -200 c 25
 67 -167 67 -133 67 -100 c 25
 89 -100 111 -100 133 -100 c 25
 133 -67 133 -33 133 0 c 25
 144 0 156 0 167 0 c 25
 167 67 167 133 167 200 c 25
 156 200 144 200 133 200 c 25
 133 233 133 267 133 300 c 25
 122 300 111 300 100 300 c 25
 100 333 100 367 100 400 c 25
 89 400 78 400 67 400 c 25
 67 433 67 467 67 500 c 13
EndSplineSet
Validated: 8388609
EndChar

StartChar: z
Encoding: 122 122 79
Width: 384
Flags: HW
HStem: 0 100<100 200 300 500> 400 100<100 300 400 500>
VStem: 200 100<100 200> 250 100<200 300> 300 100<300 400>
LayerCount: 2
Back
Fore
SplineSet
67 500 m 13
 156 500 244 500 333 500 c 25
 333 467 333 433 333 400 c 25
 311 400 289 400 267 400 c 25
 267 367 267 333 267 300 c 25
 256 300 244 300 233 300 c 25
 233 267 233 233 233 200 c 25
 222 200 211 200 200 200 c 25
 200 167 200 133 200 100 c 25
 244 100 289 100 333 100 c 25
 333 67 333 33 333 0 c 25
 244 0 156 0 67 0 c 25
 67 33 67 67 67 100 c 25
 89 100 111 100 133 100 c 25
 133 133 133 167 133 200 c 25
 144 200 156 200 167 200 c 25
 167 233 167 267 167 300 c 25
 178 300 189 300 200 300 c 25
 200 333 200 367 200 400 c 25
 156 400 111 400 67 400 c 25
 67 433 67 467 67 500 c 13
EndSplineSet
Validated: 8388609
EndChar

StartChar: edieresis
Encoding: 235 235 82
Width: 384
Flags: HW
HStem: 0 100<200 500> 200 100<200 450> 400 100<200 450> 600 100<150 250 400 500>
VStem: 100 100<100 200 300 400> 150 100<600 700> 400 100<600 700> 450 100<300 400>
LayerCount: 2
Back
Fore
SplineSet
267 700 m 9
 289 700 311 700 333 700 c 25
 333 667 333 633 333 600 c 25
 311 600 289 600 267 600 c 25
 267 633 267 667 267 700 c 9
100 700 m 9
 122 700 145 700 167 700 c 25
 167 667 167 633 167 600 c 25
 145 600 122 600 100 600 c 25
 100 633 100 667 100 700 c 9
133 400 m 1
 133 367 133 333 133 300 c 1
 189 300 244 300 300 300 c 1
 300 333 300 367 300 400 c 1
 244 400 189 400 133 400 c 1
100 400 m 1
 100 433 101 467 101 500 c 1
 178 500 256 500 333 500 c 1
 333 467 333 433 333 400 c 25
 344 400 356 400 367 400 c 25
 367 333 367 267 367 200 c 1
 289 200 211 200 133 200 c 1
 133 167 133 133 133 100 c 1
 200 100 266 100 333 100 c 1
 333 67 333 33 333 0 c 1
 255 0 178 0 100 0 c 1
 100 33 100 67 100 100 c 1
 89 100 78 100 67 100 c 1
 67 200 67 300 67 400 c 5
 78 400 89 400 100 400 c 1
EndSplineSet
Validated: 8388609
EndChar

StartChar: uni0401
Encoding: 1025 1025 97
Width: 384
Flags: HW
HStem: 0 100<200 550> 300 100<200 450> 500 100<200 550> 700 100<150 250 400 500>
VStem: 100 100<100 300 400 500> 150 100<700 800> 400 100<700 800>
LayerCount: 2
Back
Fore
SplineSet
267 700 m 9
 267 733 267 767 267 800 c 25
 289 800 311 800 333 800 c 25
 333 767 333 733 333 700 c 25
 311 700 289 700 267 700 c 9
100 700 m 9
 100 733 100 767 100 800 c 25
 122 800 145 800 167 800 c 25
 167 767 167 733 167 700 c 25
 145 700 122 700 100 700 c 9
367 500 m 1
 289 500 211 500 133 500 c 1
 133 467 133 433 133 400 c 1
 189 400 244 400 300 400 c 25
 300 367 300 333 300 300 c 25
 244 300 189 300 133 300 c 25
 133 233 133 167 133 100 c 25
 211 100 289 100 367 100 c 25
 367 67 367 33 367 0 c 25
 267 0 167 0 67 0 c 1
 67 200 67 400 67 600 c 1
 167 600 267 600 367 600 c 1
 367 567 367 533 367 500 c 1
EndSplineSet
Validated: 8388609
EndChar

StartChar: uni0402
Encoding: 1026 1026 98
Width: 384
Flags: HW
HStem: 0 100<350 500> 300 100<300 500> 600 100<50 200 300 450>
VStem: 200 100<0 300 400 600> 500 100<100 300>
CounterMasks: 1 e0
LayerCount: 2
Back
Fore
SplineSet
133 0 m 13
 133 200 133 400 133 600 c 25
 100 600 66 600 33 600 c 25
 33 633 33 667 33 700 c 25
 122 700 211 700 300 700 c 25
 300 667 300 633 300 600 c 25
 267 600 233 600 200 600 c 25
 200 533 200 467 200 400 c 25
 256 400 311 400 367 400 c 25
 367 367 367 333 367 300 c 25
 378 300 389 300 400 300 c 25
 400 233 400 167 400 100 c 25
 389 100 378 100 367 100 c 25
 367 67 367 33 367 0 c 25
 323 0 277 0 233 0 c 25
 233 33 233 67 233 100 c 25
 266 100 300 100 333 100 c 25
 333 167 333 233 333 300 c 25
 289 300 244 300 200 300 c 25
 200 200 200 100 200 0 c 25
 178 0 155 0 133 0 c 13
EndSplineSet
Validated: 1
EndChar

StartChar: uni0403
Encoding: 1027 1027 99
Width: 384
Flags: HW
HStem: 0 21G<100 200> 500 100<200 250 350 550> 700 100<350 400>
VStem: 100 100<0 500> 250 100<600 700> 300 100<700 800>
LayerCount: 2
Back
Fore
SplineSet
67 0 m 13
 67 200 67 400 67 600 c 25
 100 600 134 600 167 600 c 25
 167 633 167 667 167 700 c 25
 178 700 189 700 200 700 c 25
 200 733 200 767 200 800 c 25
 222 800 245 800 267 800 c 25
 267 767 267 733 267 700 c 25
 256 700 244 700 233 700 c 25
 233 667 233 633 233 600 c 25
 277 600 323 600 367 600 c 25
 367 567 367 533 367 500 c 25
 289 500 211 500 133 500 c 25
 133 333 133 167 133 0 c 25
 111 0 89 0 67 0 c 13
EndSplineSet
Validated: 8388609
EndChar

StartChar: uni0404
Encoding: 1028 1028 100
Width: 384
Flags: HW
HStem: 0 100<200 400> 100 100<450 500> 300 100<150 350> 500 100<450 500> 600 100<200 400>
VStem: 50 100<200 300 400 500> 100 100<100 200 500 600> 150 300<0 100 600 700> 400 100<100 200 500 600>
LayerCount: 2
Back
Fore
SplineSet
133 500 m 13
 122 500 111 500 100 500 c 25
 100 467 100 433 100 400 c 25
 144 400 189 400 233 400 c 25
 233 367 233 333 233 300 c 25
 189 300 144 300 100 300 c 25
 100 267 100 233 100 200 c 25
 111 200 122 200 133 200 c 25
 133 167 133 133 133 100 c 25
 177 100 223 100 267 100 c 25
 267 133 267 167 267 200 c 25
 289 200 311 200 333 200 c 25
 333 167 333 133 333 100 c 25
 322 100 311 100 300 100 c 25
 300 67 300 33 300 0 c 25
 233 0 167 0 100 0 c 25
 100 33 100 67 100 100 c 25
 89 100 78 100 67 100 c 25
 67 133 67 167 67 200 c 25
 56 200 44 200 33 200 c 25
 33 300 33 400 33 500 c 25
 44 500 56 500 67 500 c 25
 67 533 67 567 67 600 c 25
 78 600 89 600 100 600 c 25
 100 633 100 667 100 700 c 25
 167 700 233 700 300 700 c 25
 300 667 300 633 300 600 c 25
 311 600 322 600 333 600 c 25
 333 567 333 533 333 500 c 25
 311 500 289 500 267 500 c 25
 267 533 267 567 267 600 c 25
 223 600 177 600 133 600 c 25
 133 567 133 533 133 500 c 13
EndSplineSet
Validated: 8388609
EndChar

StartChar: uni0405
Encoding: 1029 1029 101
Width: 384
Flags: HW
HStem: 0 100<150 450> 300 100<200 450> 600 100<200 500>
VStem: 100 100<400 600> 150 350<0 100 300 400 600 700> 450 100<100 300>
CounterMasks: 1 e0
LayerCount: 2
Back
Fore
SplineSet
100 600 m 13
 100 633 100 667 100 700 c 25
 178 700 255 700 333 700 c 25
 333 667 333 633 333 600 c 25
 266 600 200 600 133 600 c 25
 133 533 133 467 133 400 c 25
 200 400 266 400 333 400 c 25
 333 367 333 333 333 300 c 25
 344 300 356 300 367 300 c 25
 367 233 367 167 367 100 c 25
 356 100 344 100 333 100 c 25
 333 67 333 33 333 0 c 25
 255 0 178 0 100 0 c 25
 100 33 100 67 100 100 c 25
 167 100 233 100 300 100 c 25
 300 167 300 233 300 300 c 25
 233 300 167 300 100 300 c 25
 100 333 100 367 100 400 c 25
 89 400 78 400 67 400 c 25
 67 467 67 533 67 600 c 25
 78 600 89 600 100 600 c 13
EndSplineSet
Validated: 8388609
EndChar

StartChar: uni0406
Encoding: 1030 1030 102
Width: 384
Flags: HW
HStem: 0 100<100 250 350 500> 600 100<100 250 350 500>
VStem: 250 100<100 600>
LayerCount: 2
Back
Fore
SplineSet
67 700 m 13
 156 700 244 700 333 700 c 25
 333 667 333 633 333 600 c 25
 300 600 266 600 233 600 c 25
 233 433 233 267 233 100 c 25
 266 100 300 100 333 100 c 25
 333 67 333 33 333 0 c 25
 244 0 156 0 67 0 c 25
 67 33 67 67 67 100 c 25
 100 100 134 100 167 100 c 25
 167 267 167 433 167 600 c 25
 134 600 100 600 67 600 c 25
 67 633 67 667 67 700 c 13
EndSplineSet
Validated: 1
EndChar

StartChar: uni0407
Encoding: 1031 1031 103
Width: 384
Flags: HMW
LayerCount: 2
Back
Fore
SplineSet
233 650 m 13
 233 683 233 717 233 750 c 25
 255 750 278 750 300 750 c 25
 300 717 300 683 300 650 c 25
 278 650 255 650 233 650 c 13
100 650 m 9
 100 683 100 717 100 750 c 25
 122 750 145 750 167 750 c 25
 167 717 167 683 167 650 c 25
 145 650 122 650 100 650 c 9
67 500 m 9
 67 533 67 567 67 600 c 25
 156 600 244 600 333 600 c 25
 333 567 333 533 333 500 c 25
 300 500 266 500 233 500 c 25
 233 367 233 233 233 100 c 25
 266 100 300 100 333 100 c 25
 333 67 333 33 333 0 c 25
 244 0 156 0 67 0 c 25
 67 33 67 67 67 100 c 25
 100 100 134 100 167 100 c 25
 167 233 167 367 167 500 c 25
 134 500 100 500 67 500 c 9
EndSplineSet
Validated: 1
EndChar

StartChar: uni0408
Encoding: 1032 1032 104
Width: 384
Flags: HW
HStem: 0 100<200 450> 100 100<100 150> 680 20G<450 550>
VStem: 100 100<100 200> 450 100<100 700>
LayerCount: 2
Back
Fore
SplineSet
300 700 m 13
 322 700 345 700 367 700 c 25
 367 500 367 300 367 100 c 25
 356 100 344 100 333 100 c 25
 333 67 333 33 333 0 c 25
 255 0 178 0 100 0 c 25
 100 33 100 67 100 100 c 25
 89 100 78 100 67 100 c 25
 67 133 67 167 67 200 c 25
 89 200 111 200 133 200 c 25
 133 167 133 133 133 100 c 25
 189 100 244 100 300 100 c 25
 300 300 300 500 300 700 c 13
EndSplineSet
Validated: 8388609
EndChar

StartChar: uni0409
Encoding: 1033 1033 105
Width: 384
Flags: HW
HStem: 0 100<50 100 400 500> 300 100<400 500> 600 100<200 300>
VStem: 50 100<0 100> 100 100<100 600> 300 250<0 50 300 400> 300 100<100 300 400 600> 500 100<100 300>
CounterMasks: 1 e0
LayerCount: 2
Back
Fore
SplineSet
267 100 m 13
 289 100 311 100 333 100 c 25
 333 167 333 233 333 300 c 25
 311 300 289 300 267 300 c 25
 267 233 267 167 267 100 c 13
33 0 m 9
 33 33 33 67 33 100 c 25
 44 100 56 100 67 100 c 25
 67 267 67 433 67 600 c 25
 78 600 89 600 100 600 c 25
 100 633 100 667 100 700 c 25
 156 700 211 700 267 700 c 25
 267 600 267 500 267 400 c 25
 300 400 334 400 367 400 c 25
 367 367 367 333 367 300 c 25
 378 300 389 300 400 300 c 25
 400 217 400 133 400 50 c 25
 389 50 378 50 367 50 c 25
 367 33 367 17 367 0 c 25
 311 0 256 0 200 0 c 25
 200 200 200 400 200 600 c 25
 178 600 155 600 133 600 c 25
 133 433 133 267 133 100 c 25
 122 100 111 100 100 100 c 25
 100 67 100 33 100 0 c 25
 78 0 55 0 33 0 c 9
EndSplineSet
Validated: 8388609
EndChar

StartChar: uni040A
Encoding: 1034 1034 106
Width: 384
Flags: HW
HStem: 0 100<400 500> 300 100<150 300 400 500> 680 20G<50 150 300 400>
VStem: 50 100<0 300 400 700> 300 100<100 300 400 700> 500 100<100 300>
LayerCount: 2
Back
Fore
SplineSet
267 300 m 13
 267 233 267 167 267 100 c 25
 289 100 311 100 333 100 c 25
 333 167 333 233 333 300 c 25
 311 300 289 300 267 300 c 13
33 700 m 9
 55 700 78 700 100 700 c 25
 100 600 100 500 100 400 c 25
 133 400 167 400 200 400 c 25
 200 500 200 600 200 700 c 25
 222 700 245 700 267 700 c 25
 267 600 267 500 267 400 c 25
 300 400 334 400 367 400 c 25
 367 367 367 333 367 300 c 25
 378 300 389 300 400 300 c 25
 400 217 400 133 400 50 c 25
 389 50 378 50 367 50 c 25
 367 33 367 17 367 0 c 25
 311 0 256 0 200 0 c 25
 200 100 200 200 200 300 c 25
 167 300 133 300 100 300 c 25
 100 200 100 100 100 0 c 25
 78 0 55 0 33 0 c 25
 33 233 33 467 33 700 c 9
EndSplineSet
Validated: 1
EndChar

StartChar: uni040B
Encoding: 1035 1035 107
Width: 384
Flags: HW
HStem: 0 21G<200 300 500 600> 300 100<300 500> 600 100<50 200 300 450>
VStem: 200 100<0 300 400 600> 500 100<0 300>
LayerCount: 2
Back
Fore
SplineSet
33 600 m 13
 33 633 33 667 33 700 c 25
 122 700 211 700 300 700 c 25
 300 667 300 633 300 600 c 25
 267 600 233 600 200 600 c 25
 200 533 200 467 200 400 c 25
 256 400 311 400 367 400 c 25
 367 367 367 333 367 300 c 25
 378 300 389 300 400 300 c 25
 400 200 400 100 400 0 c 25
 378 0 355 0 333 0 c 25
 333 100 333 200 333 300 c 25
 289 300 244 300 200 300 c 25
 200 200 200 100 200 0 c 25
 178 0 155 0 133 0 c 25
 133 200 133 400 133 600 c 25
 100 600 66 600 33 600 c 13
EndSplineSet
Validated: 1
EndChar

StartChar: uni040C
Encoding: 1036 1036 108
Width: 384
Flags: HW
HStem: 0 100<400 500> 100 100<300 350> 400 100<300 350> 500 100<400 500> 600 100<250 300> 700 100<350 400>
VStem: 100 200<200 400> 100 100<0 200 400 600> 250 100<600 700> 300 100<700 800> 350 150<0 100 500 600>
LayerCount: 2
Back
Fore
SplineSet
67 0 m 13
 67 200 67 400 67 600 c 25
 89 600 111 600 133 600 c 25
 133 533 133 467 133 400 c 25
 144 400 156 400 167 400 c 25
 167 433 167 467 167 500 c 25
 189 500 211 500 233 500 c 25
 233 533 233 567 233 600 c 25
 266 600 300 600 333 600 c 25
 333 567 333 533 333 500 c 25
 311 500 289 500 267 500 c 25
 267 467 267 433 267 400 c 25
 245 400 222 400 200 400 c 25
 200 333 200 267 200 200 c 25
 222 200 245 200 267 200 c 25
 267 167 267 133 267 100 c 25
 289 100 311 100 333 100 c 25
 333 67 333 33 333 0 c 25
 300 0 266 0 233 0 c 25
 233 33 233 67 233 100 c 25
 211 100 189 100 167 100 c 25
 167 133 167 167 167 200 c 25
 156 200 144 200 133 200 c 25
 133 133 133 67 133 0 c 25
 111 0 89 0 67 0 c 13
167 600 m 9
 167 633 167 667 167 700 c 25
 178 700 189 700 200 700 c 25
 200 733 200 767 200 800 c 25
 222 800 245 800 267 800 c 25
 267 767 267 733 267 700 c 25
 256 700 244 700 233 700 c 25
 233 667 233 633 233 600 c 25
 211 600 189 600 167 600 c 9
EndSplineSet
Validated: 8388613
EndChar

StartChar: uni040E
Encoding: 1038 1038 109
Width: 384
Flags: HW
HStem: 0 100<200 450> 100 100<100 150> 300 100<200 450> 680 20G<100 200 450 550> 700 100<300 350>
VStem: 100 100<100 200 400 700> 300 50<700 800> 450 100<100 300 400 700>
CounterMasks: 1 07
LayerCount: 2
Back
Fore
SplineSet
200 700 m 13
 200 733 200 767 200 800 c 25
 211 800 222 800 233 800 c 25
 233 767 233 733 233 700 c 25
 222 700 211 700 200 700 c 13
67 700 m 9
 89 700 111 700 133 700 c 25
 133 600 133 500 133 400 c 25
 189 400 244 400 300 400 c 25
 300 500 300 600 300 700 c 25
 322 700 345 700 367 700 c 25
 367 500 367 300 367 100 c 25
 356 100 344 100 333 100 c 25
 333 67 333 33 333 0 c 25
 255 0 178 0 100 0 c 25
 100 33 100 67 100 100 c 25
 89 100 78 100 67 100 c 25
 67 133 67 167 67 200 c 25
 89 200 111 200 133 200 c 25
 133 167 133 133 133 100 c 25
 189 100 244 100 300 100 c 25
 300 167 300 233 300 300 c 25
 233 300 167 300 100 300 c 25
 100 333 100 367 100 400 c 25
 89 400 78 400 67 400 c 25
 67 500 67 600 67 700 c 9
EndSplineSet
Validated: 8388609
EndChar

StartChar: uni040F
Encoding: 1039 1039 110
Width: 384
Flags: HW
HStem: -200 21G<300 400> 0 100<200 300 400 500> 680 20G<100 200 500 600>
VStem: 100 100<100 700> 300 100<-200 0> 500 100<100 700>
CounterMasks: 1 1c
LayerCount: 2
Back
Fore
SplineSet
67 0 m 13
 67 233 67 467 67 700 c 25
 89 700 111 700 133 700 c 25
 133 500 133 300 133 100 c 25
 200 100 266 100 333 100 c 25
 333 300 333 500 333 700 c 25
 355 700 378 700 400 700 c 25
 400 467 400 233 400 0 c 25
 356 0 311 0 267 0 c 25
 267 -67 267 -133 267 -200 c 25
 245 -200 222 -200 200 -200 c 25
 200 -133 200 -67 200 0 c 25
 156 0 111 0 67 0 c 13
EndSplineSet
Validated: 1
EndChar

StartChar: uni0410
Encoding: 1040 1040 111
Width: 384
Flags: HW
HStem: 0 21G<50 150 450 550> 200 100<150 450> 600 100<250 350>
VStem: 50 100<0 200 300 400> 100 100<400 500> 150 100<500 600> 350 100<500 600> 400 100<400 500> 450 100<0 200 300 400>
LayerCount: 2
Back
Fore
SplineSet
100 400 m 13
 100 367 100 333 100 300 c 25
 167 300 233 300 300 300 c 25
 300 333 300 367 300 400 c 25
 289 400 278 400 267 400 c 25
 267 433 267 467 267 500 c 25
 256 500 244 500 233 500 c 25
 233 533 233 567 233 600 c 25
 211 600 189 600 167 600 c 25
 167 567 167 533 167 500 c 25
 156 500 144 500 133 500 c 25
 133 467 133 433 133 400 c 25
 122 400 111 400 100 400 c 13
100 0 m 9
 78 0 55 0 33 0 c 25
 33 133 33 267 33 400 c 25
 44 400 56 400 67 400 c 25
 67 433 67 467 67 500 c 25
 78 500 89 500 100 500 c 25
 100 533 100 567 100 600 c 25
 111 600 122 600 133 600 c 25
 133 633 133 667 133 700 c 25
 177 700 222 700 266 700 c 25
 266 667 267 633 267 600 c 25
 278 600 289 600 300 600 c 25
 300 567 300 533 300 500 c 25
 311 500 322 500 333 500 c 25
 333 467 333 433 333 400 c 25
 344 400 356 400 367 400 c 25
 367 267 367 133 367 0 c 25
 345 0 322 0 300 0 c 25
 300 67 300 133 300 200 c 25
 233 200 167 200 100 200 c 25
 100 133 100 67 100 0 c 9
EndSplineSet
Validated: 8388609
EndChar

StartChar: uni0411
Encoding: 1041 1041 112
Width: 384
Flags: HW
HStem: 0 100<200 450> 300 100<200 450> 600 100<200 500>
VStem: 100 400<0 100 300 400 600 700> 100 100<100 300 400 600> 450 100<100 300>
CounterMasks: 1 e0
LayerCount: 2
Back
Fore
SplineSet
133 100 m 13
 189 100 244 100 300 100 c 25
 300 167 300 233 300 300 c 25
 244 300 189 300 133 300 c 25
 133 233 133 167 133 100 c 13
67 700 m 9
 156 700 244 700 333 700 c 25
 333 667 333 633 333 600 c 25
 266 600 200 600 133 600 c 25
 133 533 133 467 133 400 c 25
 200 400 266 400 333 400 c 25
 333 367 333 333 333 300 c 25
 344 300 356 300 367 300 c 25
 367 233 367 167 367 100 c 25
 356 100 344 100 333 100 c 25
 333 67 333 33 333 0 c 25
 244 0 156 0 67 0 c 25
 67 233 67 467 67 700 c 9
EndSplineSet
Validated: 8388609
EndChar

StartChar: uni0412
Encoding: 1042 1042 113
Width: 384
Flags: HW
HStem: 0 100<200 450> 300 100<200 450> 600 100<200 450>
VStem: 100 400<0 100 300 400 600 700> 100 100<100 300 400 600> 450 100<100 300 400 600>
CounterMasks: 1 e0
LayerCount: 2
Back
Fore
SplineSet
133 600 m 13
 133 533 133 467 133 400 c 25
 189 400 244 400 300 400 c 25
 300 467 300 533 300 600 c 25
 244 600 189 600 133 600 c 13
133 300 m 9
 133 233 133 167 133 100 c 25
 189 100 244 100 300 100 c 25
 300 167 300 233 300 300 c 25
 244 300 189 300 133 300 c 9
67 0 m 9
 67 233 67 467 67 700 c 25
 156 700 244 700 333 700 c 25
 333 667 333 633 333 600 c 25
 344 600 356 600 367 600 c 25
 367 533 367 467 367 400 c 25
 356 400 344 400 333 400 c 25
 333 367 333 333 333 300 c 25
 344 300 356 300 367 300 c 25
 367 233 367 167 367 100 c 25
 356 100 344 100 333 100 c 25
 333 67 333 33 333 0 c 25
 244 0 156 0 67 0 c 9
EndSplineSet
Validated: 8388609
EndChar

StartChar: uni0413
Encoding: 1043 1043 114
Width: 384
Flags: HW
HStem: 0 21G<100 200> 600 100<200 550>
VStem: 100 100<0 600>
LayerCount: 2
Back
Fore
SplineSet
67 700 m 13
 167 700 267 700 367 700 c 25
 367 667 367 633 367 600 c 25
 289 600 211 600 133 600 c 25
 133 400 133 200 133 0 c 25
 111 0 89 0 67 0 c 25
 67 233 67 467 67 700 c 13
EndSplineSet
Validated: 1
EndChar

StartChar: uni0414
Encoding: 1044 1044 115
Width: 384
Flags: HW
HStem: 0 100<250 400> 600 100<300 400>
VStem: 100 100<-100 0> 150 100<100 500> 200 100<500 600> 400 100<100 600> 450 100<-100 0>
LayerCount: 2
Back
Fore
SplineSet
200 600 m 13
 200 567 200 533 200 500 c 25
 189 500 178 500 167 500 c 25
 167 367 167 233 167 100 c 25
 200 100 234 100 267 100 c 25
 267 267 267 433 267 600 c 25
 245 600 222 600 200 600 c 13
133 500 m 9
 133 533 133 567 133 600 c 25
 144 600 156 600 167 600 c 25
 167 633 167 667 167 700 c 25
 223 700 277 700 333 700 c 25
 333 500 333 300 333 100 c 25
 344 100 356 100 367 100 c 25
 367 33 367 -33 367 -100 c 25
 345 -100 322 -100 300 -100 c 25
 300 -67 300 -33 300 0 c 25
 244 0 189 0 133 0 c 25
 133 -33 133 -67 133 -100 c 25
 111 -100 89 -100 67 -100 c 25
 67 -33 67 33 67 100 c 25
 78 100 89 100 100 100 c 25
 100 233 100 367 100 500 c 25
 111 500 122 500 133 500 c 9
EndSplineSet
Validated: 8388609
EndChar

StartChar: uni0415
Encoding: 1045 1045 116
Width: 384
Flags: HW
HStem: 0 100<200 550> 300 100<200 450> 600 100<200 550>
VStem: 100 100<100 300 400 600>
CounterMasks: 1 e0
LayerCount: 2
Back
Fore
SplineSet
367 600 m 13
 289 600 211 600 133 600 c 29
 133 533 133 467 133 400 c 29
 189 400 244 400 300 400 c 29
 300 367 300 333 300 300 c 29
 244 300 189 300 133 300 c 29
 133 233 133 167 133 100 c 29
 211 100 289 100 367 100 c 29
 367 67 367 33 367 0 c 29
 267 0 167 0 67 0 c 29
 67 233 67 467 67 700 c 29
 167 700 267 700 367 700 c 29
 367 667 367 633 367 600 c 13
EndSplineSet
Validated: 1
EndChar

StartChar: uni0416
Encoding: 1046 1046 117
Width: 384
Flags: HW
HStem: 0 21G<50 150 250 350 450 550> 300 100<200 250 350 400> 680 20G<50 149.1 250 350 450 550>
VStem: 50 100<0 200 500 700> 100 100<200 300 400 500> 250 100<0 300 400 700> 400 100<200 300 400 500> 450 100<0 200 500 700>
LayerCount: 2
Back
Fore
SplineSet
33 700 m 13
 55 700 77 700 99 700 c 25
 99 633 100 567 100 500 c 25
 111 500 122 500 133 500 c 25
 133 467 133 433 133 400 c 25
 144 400 156 400 167 400 c 25
 167 500 167 600 167 700 c 25
 189 700 211 700 233 700 c 25
 233 600 233 500 233 400 c 25
 244 400 256 400 267 400 c 25
 267 433 267 467 267 500 c 25
 278 500 289 500 300 500 c 25
 300 567 300 633 300 700 c 25
 322 700 345 700 367 700 c 25
 367 633 367 567 367 500 c 25
 356 500 344 500 333 500 c 25
 333 467 333 433 333 400 c 25
 322 400 311 400 300 400 c 25
 300 367 299 333 299 300 c 25
 310 300 322 300 333 300 c 25
 333 267 333 233 333 200 c 25
 344 200 356 200 367 200 c 25
 367 133 367 67 367 0 c 25
 345 0 322 0 300 0 c 25
 300 67 300 133 300 200 c 25
 289 200 278 200 267 200 c 25
 267 233 267 267 267 300 c 25
 256 300 244 300 233 300 c 25
 233 200 233 100 233 0 c 25
 211 0 189 0 167 0 c 25
 167 100 167 200 167 300 c 25
 156 300 144 300 133 300 c 25
 133 267 133 233 133 200 c 25
 122 200 111 200 100 200 c 25
 100 133 100 67 100 0 c 25
 78 0 55 0 33 0 c 25
 33 67 33 133 33 200 c 25
 44 200 56 200 67 200 c 25
 67 233 67 267 67 300 c 25
 78 300 89 300 100 300 c 25
 100 333 100 367 100 400 c 25
 89 400 78 400 67 400 c 25
 67 433 67 467 67 500 c 25
 56 500 44 500 33 500 c 25
 33 567 33 633 33 700 c 13
EndSplineSet
Validated: 8388609
EndChar

StartChar: uni0417
Encoding: 1047 1047 118
Width: 384
Flags: HW
HStem: 0 100<200 450> 100 100<100 150> 300 100<250 450> 500 100<100 150> 600 100<200 450>
VStem: 100 100<100 200 500 600> 450 100<100 300 400 600>
LayerCount: 2
Back
Fore
SplineSet
67 500 m 13
 67 533 67 567 67 600 c 1
 78 600 89 600 100 600 c 25
 100 633 100 667 100 700 c 25
 178 700 255 700 333 700 c 25
 333 667 333 633 333 600 c 25
 344 600 356 600 367 600 c 25
 367 533 367 467 367 400 c 25
 356 400 344 400 333 400 c 25
 333 367 333 333 333 300 c 25
 344 300 356 300 367 300 c 25
 367 233 367 167 367 100 c 25
 356 100 344 100 333 100 c 25
 333 67 333 33 333 0 c 25
 255 0 178 0 100 0 c 25
 100 33 100 67 100 100 c 25
 89 100 78 100 67 100 c 25
 67 133 67 167 67 200 c 25
 89 200 111 200 133 200 c 25
 133 167 133 133 133 100 c 25
 189 100 244 100 300 100 c 25
 300 167 300 233 300 300 c 25
 256 300 211 300 167 300 c 25
 167 333 167 367 167 400 c 25
 211 400 256 400 300 400 c 25
 300 467 300 533 300 600 c 25
 244 600 189 600 133 600 c 25
 133 567 133 533 133 500 c 1
 111 500 89 500 67 500 c 13
EndSplineSet
Validated: 8388609
EndChar

StartChar: uni0418
Encoding: 1048 1048 119
Width: 384
Flags: HW
HStem: 0 21G<50 200 450 550> 680 20G<50 150 400 550>
VStem: 50 150<0 100> 50 100<200 700> 200 100<200 300> 250 100<300 400> 300 100<400 500> 400 150<600 700> 450 100<0 500>
LayerCount: 2
Back
Fore
SplineSet
33 700 m 13
 55 700 78 700 100 700 c 29
 100 533 100 367 100 200 c 29
 111 200 122 200 133 200 c 29
 133 233 133 267 133 300 c 29
 144 300 156 300 167 300 c 29
 167 333 167 367 167 400 c 29
 178 400 189 400 200 400 c 29
 200 433 200 467 200 500 c 29
 211 500 222 500 233 500 c 29
 233 533 233 567 233 600 c 29
 244 600 256 600 267 600 c 29
 267 633 267 667 267 700 c 29
 300 700 334 700 367 700 c 29
 367 467 367 233 367 0 c 29
 345 0 322 0 300 0 c 29
 300 167 300 333 300 500 c 29
 289 500 278 500 267 500 c 29
 267 467 267 433 267 400 c 29
 256 400 244 400 233 400 c 29
 233 367 233 333 233 300 c 29
 222 300 211 300 200 300 c 29
 200 267 200 233 200 200 c 29
 189 200 178 200 167 200 c 29
 167 167 167 133 167 100 c 29
 156 100 144 100 133 100 c 29
 133 67 133 33 133 0 c 29
 100 0 66 0 33 0 c 29
 33 233 33 467 33 700 c 13
EndSplineSet
Validated: 8388609
EndChar

StartChar: uni0419
Encoding: 1049 1049 120
Width: 384
Flags: HW
HStem: 0 21G<50 200 450 550> 680 20G<50 150 400 550> 700 100<250 300>
VStem: 50 150<0 100> 50 100<200 700> 200 100<200 300> 250 100<300 400> 250 50<700 800> 300 100<400 500> 400 150<600 700> 450 100<0 500>
LayerCount: 2
Back
Fore
SplineSet
167 700 m 13
 167 733 167 767 167 800 c 25
 178 800 189 800 200 800 c 25
 200 767 200 733 200 700 c 25
 189 700 178 700 167 700 c 13
33 700 m 9
 55 700 78 700 100 700 c 25
 100 533 100 367 100 200 c 25
 111 200 122 200 133 200 c 25
 133 233 133 267 133 300 c 25
 144 300 156 300 167 300 c 25
 167 333 167 367 167 400 c 25
 178 400 189 400 200 400 c 25
 200 433 200 467 200 500 c 25
 211 500 222 500 233 500 c 25
 233 533 233 567 233 600 c 25
 244 600 256 600 267 600 c 25
 267 633 267 667 267 700 c 25
 300 700 334 700 367 700 c 25
 367 467 367 233 367 0 c 25
 345 0 322 0 300 0 c 25
 300 167 300 333 300 500 c 25
 289 500 278 500 267 500 c 25
 267 467 267 433 267 400 c 25
 256 400 244 400 233 400 c 25
 233 367 233 333 233 300 c 25
 222 300 211 300 200 300 c 25
 200 267 200 233 200 200 c 25
 189 200 178 200 167 200 c 25
 167 167 167 133 167 100 c 25
 156 100 144 100 133 100 c 25
 133 67 133 33 133 0 c 25
 100 0 66 0 33 0 c 25
 33 233 33 467 33 700 c 9
EndSplineSet
Validated: 8388609
EndChar

StartChar: uni041A
Encoding: 1050 1050 121
Width: 384
Flags: HW
HStem: 0 100<450 550> 200 100<300 350> 300 100<200 250> 400 100<300 350> 600 100<450 550>
VStem: 100 100<0 300 400 700> 250 150<200 300 400 500> 350 100<100 200 500 600> 400 150<0 100 600 700>
LayerCount: 2
Back
Fore
SplineSet
67 700 m 13
 89 700 111 700 133 700 c 25
 133 600 133 500 133 400 c 25
 144 400 156 400 167 400 c 25
 167 433 167 467 167 500 c 25
 189 500 211 500 233 500 c 25
 233 533 233 567 233 600 c 25
 244 600 256 600 267 600 c 25
 267 633 267 667 267 700 c 25
 300 700 334 700 367 700 c 25
 367 667 367 633 367 600 c 25
 345 600 322 600 300 600 c 25
 300 567 300 533 300 500 c 25
 289 500 278 500 267 500 c 25
 267 467 267 433 267 400 c 25
 245 400 222 400 200 400 c 25
 200 367 200 333 200 300 c 25
 222 300 245 300 267 300 c 25
 267 267 267 233 267 200 c 25
 278 200 289 200 300 200 c 25
 300 167 300 133 300 100 c 25
 322 100 345 100 367 100 c 25
 367 67 367 33 367 0 c 25
 334 0 300 0 267 0 c 25
 267 33 267 67 267 100 c 25
 256 100 244 100 233 100 c 25
 233 133 233 167 233 200 c 25
 211 200 189 200 167 200 c 25
 167 233 167 267 167 300 c 25
 156 300 144 300 133 300 c 25
 133 200 133 100 133 0 c 25
 111 0 89 0 67 0 c 25
 67 233 67 467 67 700 c 13
EndSplineSet
Validated: 8388609
EndChar

StartChar: uni041B
Encoding: 1051 1051 122
Width: 384
Flags: HW
HStem: 0 100<100 150> 600 100<300 450>
VStem: 100 100<0 100> 150 100<100 200> 200 100<200 600> 450 100<0 600>
LayerCount: 2
Back
Fore
SplineSet
67 0 m 13
 67 33 67 67 67 100 c 25
 78 100 89 100 100 100 c 25
 100 133 100 167 100 200 c 25
 111 200 122 200 133 200 c 25
 133 333 133 467 133 600 c 25
 144 600 156 600 167 600 c 25
 167 633 167 667 167 700 c 25
 234 700 300 700 367 700 c 25
 367 467 367 233 367 0 c 25
 345 0 322 0 300 0 c 25
 300 200 300 400 300 600 c 25
 267 600 233 600 200 600 c 25
 200 467 200 333 200 200 c 25
 189 200 178 200 167 200 c 25
 167 167 167 133 167 100 c 25
 156 100 144 100 133 100 c 25
 133 67 133 33 133 0 c 25
 111 0 89 0 67 0 c 13
EndSplineSet
Validated: 8388609
EndChar

StartChar: uni041C
Encoding: 1052 1052 123
Width: 384
Flags: HW
HStem: 0 21G<50 150 450 550> 680 20G<50 200 400 550>
VStem: 50 150<600 700> 50 100<0 500> 250 100<300 400> 400 150<600 700> 450 100<0 500>
LayerCount: 2
Back
Fore
SplineSet
100 0 m 13
 78 0 55 0 33 0 c 25
 33 233 33 467 33 700 c 25
 66 700 100 700 133 700 c 25
 133 667 133 633 133 600 c 25
 144 600 156 600 167 600 c 25
 167 567 167 533 167 500 c 25
 189 500 211 500 233 500 c 25
 233 533 233 567 233 600 c 25
 244 600 256 600 267 600 c 25
 267 633 267 667 267 700 c 25
 300 700 334 700 367 700 c 25
 367 467 367 233 367 0 c 25
 345 0 322 0 300 0 c 25
 300 167 300 333 300 500 c 25
 289 500 278 500 267 500 c 25
 267 467 267 433 267 400 c 25
 256 400 244 400 233 400 c 25
 233 367 233 333 233 300 c 25
 211 300 189 300 167 300 c 25
 167 333 167 367 167 400 c 25
 156 400 144 400 133 400 c 25
 133 433 133 467 133 500 c 25
 122 500 111 500 100 500 c 25
 100 333 100 167 100 0 c 13
EndSplineSet
Validated: 8388609
EndChar

StartChar: uni041D
Encoding: 1053 1053 124
Width: 384
Flags: HW
HStem: 0 21G<100 200 450 550> 300 100<200 450> 680 20G<100 200 450 550>
VStem: 100 100<0 300 400 700> 450 100<0 300 400 700>
LayerCount: 2
Back
Fore
SplineSet
67 700 m 13
 89 700 111 700 133 700 c 25
 133 600 133 500 133 400 c 25
 189 400 244 400 300 400 c 25
 300 500 300 600 300 700 c 25
 322 700 345 700 367 700 c 25
 367 467 367 233 367 0 c 25
 345 0 322 0 300 0 c 25
 300 100 300 200 300 300 c 25
 244 300 189 300 133 300 c 25
 133 200 133 100 133 0 c 25
 111 0 89 0 67 0 c 25
 67 233 67 467 67 700 c 13
EndSplineSet
Validated: 1
EndChar

StartChar: uni041E
Encoding: 1054 1054 125
Width: 384
Flags: HW
HStem: 0 100<200 400> 600 100<200 400>
VStem: 50 100<200 500> 100 100<100 200 500 600> 150 300<0 100 600 700> 400 100<100 200 500 600> 450 100<200 500>
LayerCount: 2
Back
Fore
SplineSet
267 100 m 13
 267 133 267 167 267 200 c 25
 278 200 289 200 300 200 c 25
 300 300 300 400 300 500 c 25
 289 500 278 500 267 500 c 25
 267 533 267 567 267 600 c 25
 223 600 177 600 133 600 c 25
 133 567 133 533 133 500 c 25
 122 500 111 500 100 500 c 25
 100 400 100 300 100 200 c 25
 111 200 122 200 133 200 c 25
 133 167 133 133 133 100 c 25
 177 100 223 100 267 100 c 13
300 0 m 9
 233 0 167 0 100 0 c 25
 100 33 100 67 100 100 c 25
 89 100 78 100 67 100 c 25
 67 133 67 167 67 200 c 25
 56 200 44 200 33 200 c 25
 33 300 33 400 33 500 c 25
 44 500 56 500 67 500 c 25
 67 533 67 567 67 600 c 25
 78 600 89 600 100 600 c 25
 100 633 100 667 100 700 c 25
 167 700 233 700 300 700 c 25
 300 667 300 633 300 600 c 25
 311 600 322 600 333 600 c 25
 333 567 333 533 333 500 c 25
 344 500 356 500 367 500 c 25
 367 400 367 300 367 200 c 25
 356 200 344 200 333 200 c 25
 333 167 333 133 333 100 c 25
 322 100 311 100 300 100 c 25
 300 67 300 33 300 0 c 9
EndSplineSet
Validated: 8388609
EndChar

StartChar: uni041F
Encoding: 1055 1055 126
Width: 384
Flags: HW
HStem: 0 21G<100 200 450 550> 600 100<200 450>
VStem: 100 100<0 600> 450 100<0 600>
LayerCount: 2
Back
Fore
SplineSet
67 700 m 13
 167 700 267 700 367 700 c 25
 367 467 367 233 367 0 c 25
 345 0 322 0 300 0 c 25
 300 200 300 400 300 600 c 25
 244 600 189 600 133 600 c 25
 133 400 133 200 133 0 c 25
 111 0 89 0 67 0 c 25
 67 233 67 467 67 700 c 13
EndSplineSet
Validated: 1
EndChar

StartChar: uni0420
Encoding: 1056 1056 127
Width: 384
Flags: HW
HStem: 0 21G<100 200> 300 100<200 450> 600 100<200 450>
VStem: 100 100<0 300 400 600> 450 100<400 600>
LayerCount: 2
Back
Fore
SplineSet
133 600 m 13
 133 533 133 467 133 400 c 25
 189 400 244 400 300 400 c 25
 300 467 300 533 300 600 c 25
 244 600 189 600 133 600 c 13
67 700 m 9
 156 700 244 700 333 700 c 25
 333 683 333 667 333 650 c 25
 344 650 356 650 367 650 c 25
 367 567 367 483 367 400 c 25
 356 400 344 400 333 400 c 25
 333 367 333 333 333 300 c 25
 266 300 200 300 133 300 c 25
 133 200 133 100 133 0 c 25
 111 0 89 0 67 0 c 25
 67 233 67 467 67 700 c 9
EndSplineSet
Validated: 1
EndChar

StartChar: uni0421
Encoding: 1057 1057 128
Width: 384
Flags: HW
HStem: 0 100<250 450> 100 100<500 550> 500 100<500 550> 600 100<250 450>
VStem: 100 100<200 500> 150 100<100 200 500 600> 200 300<0 100 600 700> 450 100<100 200 500 600>
LayerCount: 2
Back
Fore
SplineSet
133 700 m 13
 200 700 266 700 333 700 c 25
 333 667 333 633 333 600 c 25
 344 600 356 600 367 600 c 25
 367 567 367 533 367 500 c 25
 345 500 322 500 300 500 c 25
 300 533 300 567 300 600 c 25
 256 600 211 600 167 600 c 25
 167 567 167 533 167 500 c 25
 156 500 144 500 133 500 c 25
 133 400 133 300 133 200 c 25
 144 200 156 200 167 200 c 25
 167 167 167 133 167 100 c 25
 211 100 256 100 300 100 c 25
 300 133 300 167 300 200 c 25
 322 200 345 200 367 200 c 25
 367 167 367 133 367 100 c 25
 356 100 344 100 333 100 c 25
 333 67 333 33 333 0 c 25
 266 0 200 0 133 0 c 25
 133 33 133 67 133 100 c 25
 122 100 111 100 100 100 c 25
 100 133 100 167 100 200 c 25
 89 200 78 200 67 200 c 25
 67 300 67 400 67 500 c 25
 78 500 89 500 100 500 c 25
 100 533 100 567 100 600 c 25
 111 600 122 600 133 600 c 25
 133 633 133 667 133 700 c 13
EndSplineSet
Validated: 8388609
EndChar

StartChar: uni0422
Encoding: 1058 1058 129
Width: 384
Flags: HW
HStem: 0 21G<250 350> 600 100<50 250 350 550>
VStem: 250 100<0 600>
LayerCount: 2
Back
Fore
SplineSet
33 700 m 1
 144 700 256 700 367 700 c 5
 367 667 367 633 367 600 c 1
 323 600 277 600 233 600 c 1
 233 400 233 200 233 0 c 25
 211 0 189 0 167 0 c 25
 167 200 167 400 167 600 c 1
 123 600 77 600 33 600 c 1
 33 633 33 667 33 700 c 1
EndSplineSet
Validated: 1
EndChar

StartChar: uni0423
Encoding: 1059 1059 130
Width: 384
Flags: HW
HStem: 0 100<200 450> 100 100<100 150> 300 100<200 450> 680 20G<100 200 450 550>
VStem: 100 100<100 200 400 700> 450 100<100 300 400 700>
LayerCount: 2
Back
Fore
SplineSet
67 700 m 13
 89 700 111 700 133 700 c 25
 133 600 133 500 133 400 c 25
 189 400 244 400 300 400 c 25
 300 500 300 600 300 700 c 25
 322 700 345 700 367 700 c 25
 367 500 367 300 367 100 c 25
 356 100 344 100 333 100 c 25
 333 67 333 33 333 0 c 25
 255 0 178 0 100 0 c 25
 100 33 100 67 100 100 c 25
 89 100 78 100 67 100 c 25
 67 133 67 167 67 200 c 25
 89 200 111 200 133 200 c 25
 133 167 133 133 133 100 c 25
 189 100 244 100 300 100 c 25
 300 167 300 233 300 300 c 25
 233 300 167 300 100 300 c 25
 100 333 100 367 100 400 c 25
 89 400 78 400 67 400 c 25
 67 500 67 600 67 700 c 13
EndSplineSet
Validated: 8388609
EndChar

StartChar: uni0424
Encoding: 1060 1060 131
Width: 384
Flags: HW
HStem: 0 21G<250 350> 100 100<150 250 350 450> 500 100<150 250 350 450> 680 20G<250 350>
VStem: 50 100<200 500> 250 100<0 100 200 500 600 700> 450 100<200 500>
CounterMasks: 1 0e
LayerCount: 2
Back
Fore
SplineSet
233 500 m 13
 233 400 233 300 233 200 c 25
 255 200 278 200 300 200 c 25
 300 300 300 400 300 500 c 25
 278 500 255 500 233 500 c 13
100 500 m 9
 100 400 100 300 100 200 c 25
 122 200 145 200 167 200 c 25
 167 300 167 400 167 500 c 25
 145 500 122 500 100 500 c 9
167 600 m 9
 167 633 167 667 167 700 c 1
 189 700 211 700 233 700 c 25
 233 667 233 633 233 600 c 25
 266 600 300 600 333 600 c 25
 333 567 333 533 333 500 c 25
 344 500 356 500 367 500 c 25
 367 400 367 300 367 200 c 25
 356 200 344 200 333 200 c 25
 333 167 333 133 333 100 c 25
 300 100 266 100 233 100 c 25
 233 67 233 33 233 0 c 25
 211 0 189 0 167 0 c 25
 167 33 167 67 167 100 c 25
 134 100 100 100 67 100 c 25
 67 133 67 167 67 200 c 25
 56 200 44 200 33 200 c 25
 33 300 33 400 33 500 c 25
 44 500 56 500 67 500 c 25
 67 533 67 567 67 600 c 1
 100 600 134 600 167 600 c 9
EndSplineSet
Validated: 1
EndChar

StartChar: uni0425
Encoding: 1061 1061 132
Width: 384
Flags: HW
HStem: 0 100<100 150 450 500> 600 100<100 150 450 500>
VStem: 100 100<0 100 600 700> 150 100<100 200 500 600> 200 200<200 300 400 500> 350 100<100 200 500 600> 400 100<0 100 600 700>
LayerCount: 2
Back
Fore
SplineSet
67 700 m 13
 89 700 111 700 133 700 c 25
 133 667 133 633 133 600 c 25
 144 600 156 600 167 600 c 25
 167 567 167 533 167 500 c 25
 189 500 211 500 233 500 c 25
 233 533 233 567 233 600 c 25
 244 600 256 600 267 600 c 25
 267 633 267 667 267 700 c 25
 289 700 311 700 333 700 c 25
 333 667 333 633 333 600 c 25
 322 600 311 600 300 600 c 25
 300 567 300 533 300 500 c 25
 289 500 278 500 267 500 c 25
 267 467 267 433 267 400 c 25
 256 400 244 400 233 400 c 25
 233 367 233 333 233 300 c 25
 244 300 256 300 267 300 c 25
 267 267 267 233 267 200 c 25
 278 200 289 200 300 200 c 25
 300 167 300 133 300 100 c 25
 311 100 322 100 333 100 c 25
 333 67 333 33 333 0 c 25
 311 0 289 0 267 0 c 25
 267 33 267 67 267 100 c 25
 256 100 244 100 233 100 c 25
 233 133 233 167 233 200 c 25
 211 200 189 200 167 200 c 25
 167 167 167 133 167 100 c 25
 156 100 144 100 133 100 c 25
 133 67 133 33 133 0 c 25
 111 0 89 0 67 0 c 25
 67 33 67 67 67 100 c 25
 78 100 89 100 100 100 c 25
 100 133 100 167 100 200 c 25
 111 200 122 200 133 200 c 25
 133 233 133 267 133 300 c 25
 144 300 156 300 167 300 c 25
 167 333 167 367 167 400 c 25
 156 400 144 400 133 400 c 25
 133 433 133 467 133 500 c 25
 122 500 111 500 100 500 c 25
 100 533 100 567 100 600 c 25
 89 600 78 600 67 600 c 25
 67 633 67 667 67 700 c 13
EndSplineSet
Validated: 8388609
EndChar

StartChar: uni0426
Encoding: 1062 1062 133
Width: 384
Flags: HW
HStem: 0 100<200 350> 680 20G<100 200 350 450>
VStem: 100 100<100 700> 350 100<100 700> 450 100<-100 0>
LayerCount: 2
Back
Fore
SplineSet
67 700 m 13
 89 700 111 700 133 700 c 25
 133 500 133 300 133 100 c 25
 166 100 200 100 233 100 c 25
 233 300 233 500 233 700 c 25
 255 700 278 700 300 700 c 25
 300 500 300 300 300 100 c 25
 322 100 345 100 367 100 c 25
 367 33 367 -33 367 -100 c 25
 345 -100 322 -100 300 -100 c 25
 300 -67 300 -33 300 0 c 25
 222 0 145 0 67 0 c 25
 67 233 67 467 67 700 c 13
EndSplineSet
Validated: 8388609
EndChar

StartChar: uni0427
Encoding: 1063 1063 134
Width: 384
Flags: HW
HStem: 0 21G<450 550> 300 100<250 450> 680 20G<100 200 450 550>
VStem: 100 100<500 700> 150 100<400 500> 450 100<0 300 400 700>
LayerCount: 2
Back
Fore
SplineSet
67 700 m 13
 89 700 111 700 133 700 c 25
 133 633 133 567 133 500 c 25
 144 500 156 500 167 500 c 25
 167 467 167 433 167 400 c 25
 211 400 256 400 300 400 c 25
 300 500 300 600 300 700 c 25
 322 700 345 700 367 700 c 25
 367 467 367 233 367 0 c 25
 345 0 322 0 300 0 c 25
 300 100 300 200 300 300 c 25
 244 300 189 300 133 300 c 25
 133 333 133 367 133 400 c 25
 122 400 111 400 100 400 c 25
 100 433 100 467 100 500 c 25
 89 500 78 500 67 500 c 25
 67 567 67 633 67 700 c 13
EndSplineSet
Validated: 8388609
EndChar

StartChar: uni0428
Encoding: 1064 1064 135
Width: 384
Flags: HW
HStem: 0 100<150 250 350 450> 680 20G<50 150 250 350 450 550>
VStem: 50 100<100 700> 250 100<100 700> 450 100<100 700>
CounterMasks: 1 38
LayerCount: 2
Back
Fore
SplineSet
33 700 m 13
 55 700 78 700 100 700 c 25
 100 500 100 300 100 100 c 25
 122 100 145 100 167 100 c 25
 167 300 167 500 167 700 c 25
 189 700 211 700 233 700 c 25
 233 500 233 300 233 100 c 25
 255 100 278 100 300 100 c 25
 300 300 300 500 300 700 c 25
 322 700 345 700 367 700 c 25
 367 467 367 233 367 0 c 25
 256 0 144 0 33 0 c 25
 33 233 33 467 33 700 c 13
EndSplineSet
Validated: 1
EndChar

StartChar: uni0429
Encoding: 1065 1065 136
Width: 384
Flags: HW
HStem: 0 100<150 250 350 450> 680 20G<50 150 250 350 450 550>
VStem: 50 100<100 700> 250 100<100 700> 450 100<100 700> 500 100<-100 0>
LayerCount: 2
Back
Fore
SplineSet
33 700 m 13
 55 700 78 700 100 700 c 25
 100 500 100 300 100 100 c 25
 122 100 145 100 167 100 c 25
 167 300 167 500 167 700 c 25
 189 700 211 700 233 700 c 25
 233 500 233 300 233 100 c 25
 255 100 278 100 300 100 c 25
 300 300 300 500 300 700 c 25
 322 700 345 700 367 700 c 25
 367 500 367 300 367 100 c 25
 378 100 389 100 400 100 c 25
 400 33 400 -33 400 -100 c 25
 378 -100 355 -100 333 -100 c 25
 333 -67 333 -33 333 0 c 25
 233 0 133 0 33 0 c 25
 33 233 33 467 33 700 c 13
EndSplineSet
Validated: 8388609
EndChar

StartChar: uni042A
Encoding: 1066 1066 137
Width: 384
Flags: HW
HStem: 0 100<250 450> 300 100<250 450> 600 100<50 150>
VStem: 150 100<100 300 400 600> 450 100<100 300>
CounterMasks: 1 e0
LayerCount: 2
Back
Fore
SplineSet
167 300 m 13
 167 233 167 167 167 100 c 25
 211 100 256 100 300 100 c 25
 300 167 300 233 300 300 c 25
 256 300 211 300 167 300 c 13
33 700 m 9
 77 700 123 700 167 700 c 25
 167 600 167 500 167 400 c 25
 223 400 277 400 333 400 c 25
 333 367 333 333 333 300 c 25
 344 300 356 300 367 300 c 25
 367 233 367 167 367 100 c 25
 356 100 344 100 333 100 c 25
 333 67 333 33 333 0 c 25
 255 0 178 0 100 0 c 25
 100 200 100 400 100 600 c 25
 78 600 55 600 33 600 c 25
 33 633 33 667 33 700 c 9
EndSplineSet
Validated: 1
EndChar

StartChar: uni042B
Encoding: 1067 1067 138
Width: 384
Flags: HW
HStem: 0 100<150 300> 300 100<150 300> 680 20G<50 150 450 550>
VStem: 50 300<0 100 300 400> 50 100<100 300 400 700> 300 100<100 300> 450 100<0 700>
LayerCount: 2
Back
Fore
SplineSet
200 300 m 13
 167 300 133 300 100 300 c 25
 100 233 100 167 100 100 c 25
 133 100 167 100 200 100 c 25
 200 167 200 233 200 300 c 13
300 700 m 9
 322 700 345 700 367 700 c 25
 367 467 367 233 367 0 c 25
 345 0 322 0 300 0 c 25
 300 233 300 467 300 700 c 9
33 700 m 9
 55 700 78 700 100 700 c 25
 100 600 100 500 100 400 c 25
 144 400 189 400 233 400 c 25
 233 367 233 333 233 300 c 25
 244 300 256 300 267 300 c 25
 267 233 267 167 267 100 c 25
 256 100 244 100 233 100 c 25
 233 67 233 33 233 0 c 25
 166 0 100 0 33 0 c 25
 33 233 33 467 33 700 c 9
EndSplineSet
Validated: 8388609
EndChar

StartChar: uni042C
Encoding: 1068 1068 139
Width: 384
Flags: HW
HStem: 0 100<250 450> 300 100<250 450> 680 20G<150 249>
VStem: 150 99<100 300 400 700> 450 100<101 300>
LayerCount: 2
Back
Fore
SplineSet
167 100 m 13
 211 100 256 100 300 100 c 25
 300 167 300 233 300 300 c 25
 256 300 211 300 167 300 c 25
 167 233 167 167 167 100 c 13
100 700 m 9
 122 700 144 700 166 700 c 25
 166 600 166 500 166 400 c 25
 222 400 277 400 333 400 c 25
 333 367 333 333 333 300 c 25
 344 300 354 300 365 300 c 25
 365 234 367 167 367 101 c 25
 356 101 344 100 333 100 c 25
 333 67 333 33 333 0 c 25
 255 0 178 0 100 0 c 25
 100 233 100 467 100 700 c 9
EndSplineSet
Validated: 1
EndChar

StartChar: uni042D
Encoding: 1069 1069 140
Width: 384
Flags: HW
HStem: 0 100<200 400> 100 100<100 150> 300 100<250 450> 500 100<100 150> 600 100<200 400>
VStem: 100 100<100 200 500 600> 150 300<0 100 600 700> 400 100<100 200 500 600> 450 100<200 300 400 500>
LayerCount: 2
Back
Fore
SplineSet
67 500 m 13
 67 533 67 567 67 600 c 25
 78 600 89 600 100 600 c 25
 100 633 100 667 100 700 c 25
 167 700 233 700 300 700 c 25
 300 667 300 633 300 600 c 25
 311 600 322 600 333 600 c 25
 333 567 333 533 333 500 c 25
 344 500 356 500 367 500 c 25
 367 400 367 300 367 200 c 25
 356 200 344 200 333 200 c 25
 333 167 333 133 333 100 c 25
 322 100 311 100 300 100 c 25
 300 67 300 33 300 0 c 25
 233 0 167 0 100 0 c 25
 100 33 100 67 100 100 c 25
 89 100 78 100 67 100 c 25
 67 133 67 167 67 200 c 25
 89 200 111 200 133 200 c 25
 133 167 133 133 133 100 c 25
 177 100 223 100 267 100 c 25
 267 133 267 167 267 200 c 25
 278 200 289 200 300 200 c 25
 300 233 300 267 300 300 c 25
 256 300 211 300 167 300 c 25
 167 333 167 367 167 400 c 25
 211 400 256 400 300 400 c 25
 300 433 300 467 300 500 c 25
 289 500 278 500 267 500 c 25
 267 533 267 567 267 600 c 25
 223 600 177 600 133 600 c 25
 133 567 133 533 133 500 c 25
 111 500 89 500 67 500 c 13
EndSplineSet
Validated: 8388609
EndChar

StartChar: uni042E
Encoding: 1070 1070 141
Width: 384
Flags: HW
HStem: 0 100<350 450> 300 100<200 250> 600 100<350 450>
VStem: 100 100<0 300 400 700> 250 100<100 300 400 600> 300 200<0 100 600 700> 450 100<100 600>
CounterMasks: 1 e0
LayerCount: 2
Back
Fore
SplineSet
233 600 m 13
 233 433 233 267 233 100 c 25
 255 100 278 100 300 100 c 25
 300 267 300 433 300 600 c 25
 278 600 255 600 233 600 c 13
67 700 m 9
 89 700 111 700 133 700 c 25
 133 600 133 500 133 400 c 25
 144 400 156 400 167 400 c 25
 167 467 167 533 167 600 c 25
 178 600 189 600 200 600 c 25
 200 633 200 667 200 700 c 25
 244 700 289 700 333 700 c 25
 333 667 333 633 333 600 c 25
 344 600 356 600 367 600 c 25
 367 433 367 267 367 100 c 25
 356 100 344 100 333 100 c 25
 333 67 333 33 333 0 c 25
 289 0 244 0 200 0 c 25
 200 33 200 67 200 100 c 25
 189 100 178 100 167 100 c 25
 167 167 167 233 167 300 c 25
 156 300 144 300 133 300 c 25
 133 200 133 100 133 0 c 25
 111 0 89 0 67 0 c 25
 67 233 67 467 67 700 c 9
EndSplineSet
Validated: 8388609
EndChar

StartChar: uni042F
Encoding: 1071 1071 142
Width: 384
Flags: HW
HStem: 0 100<100 200> 300 100<200 300> 600 100<200 450>
VStem: 100 100<400 600> 200 150<100 200> 450 100<0 200 400 600>
CounterMasks: 1 e0
LayerCount: 2
Back
Fore
SplineSet
133 600 m 13
 133 533 133 467 133 400 c 25
 189 400 244 400 300 400 c 25
 300 467 300 533 300 600 c 25
 244 600 189 600 133 600 c 13
100 700 m 9
 189 700 278 700 367 700 c 25
 367 467 367 233 367 0 c 25
 345 0 322 0 300 0 c 25
 300 67 300 133 300 200 c 25
 278 200 255 200 233 200 c 25
 233 167 233 133 233 100 c 25
 222 100 211 100 200 100 c 25
 200 67 200 33 200 0 c 25
 156 0 111 0 67 0 c 25
 67 33 67 67 67 100 c 25
 89 100 111 100 133 100 c 25
 133 133 133 167 133 200 c 25
 155 200 178 200 200 200 c 25
 200 233 200 267 200 300 c 25
 167 300 133 300 100 300 c 25
 100 333 100 367 100 400 c 25
 89 400 78 400 67 400 c 25
 67 467 67 533 67 600 c 25
 78 600 89 600 100 600 c 25
 100 633 100 667 100 700 c 9
EndSplineSet
Validated: 8388609
EndChar

StartChar: uni0430
Encoding: 1072 1072 143
Width: 384
Flags: HW
HStem: 0 100<150 400 500 549> 100 100<50 100> 200 100<150 400> 400 100<100 400>
VStem: 50 100<100 200> 400 100<100 200 300 400>
LayerCount: 2
Back
Fore
SplineSet
100 200 m 13
 100 167 100 133 100 100 c 25
 156 100 211 100 267 100 c 25
 267 133 267 167 267 200 c 25
 211 200 156 200 100 200 c 13
67 500 m 9
 145 500 222 500 300 500 c 25
 300 467 300 433 300 400 c 25
 311 400 322 400 333 400 c 25
 333 300 333 200 333 100 c 25
 344 100 355 100 366 100 c 25
 366 67 367 33 367 0 c 25
 267 0 167 0 67 0 c 25
 67 33 67 67 67 100 c 25
 56 100 44 100 33 100 c 25
 33 133 33 167 33 200 c 25
 44 200 56 200 67 200 c 25
 67 233 67 267 67 300 c 25
 134 300 200 300 267 300 c 25
 267 333 267 367 267 400 c 25
 200 400 134 400 67 400 c 25
 67 433 67 467 67 500 c 9
EndSplineSet
Validated: 8388609
EndChar

StartChar: uni0431
Encoding: 1073 1073 144
Width: 384
Flags: HW
HStem: 0 100<200 450> 300 200<300 450> 300 100<200 300> 600 100<150 200 300 550>
VStem: 100 100<100 300> 200 100<500 600> 300 150<400 500> 450 100<100 300>
LayerCount: 2
Back
Fore
SplineSet
133 300 m 13
 133 233 133 167 133 100 c 25
 189 100 244 100 300 100 c 25
 300 167 300 233 300 300 c 25
 244 300 189 300 133 300 c 13
100 700 m 9
 189 700 278 700 367 700 c 25
 367 667 367 633 367 600 c 25
 311 600 256 600 200 600 c 25
 200 567 200 533 200 500 c 25
 233 500 267 500 300 500 c 25
 300 467 300 433 300 400 c 25
 311 400 322 400 333 400 c 25
 333 367 333 333 333 300 c 25
 344 300 356 300 367 300 c 25
 367 233 367 167 367 100 c 25
 356 100 344 100 333 100 c 25
 333 67 333 33 333 0 c 25
 255 0 178 0 100 0 c 25
 100 33 100 67 100 100 c 25
 89 100 78 100 67 100 c 25
 67 167 67 233 67 300 c 25
 78 300 89 300 100 300 c 25
 100 333 100 367 100 400 c 25
 133 400 167 400 200 400 c 25
 200 433 200 467 200 500 c 25
 178 500 155 500 133 500 c 25
 133 533 133 567 133 600 c 25
 122 600 111 600 100 600 c 25
 100 633 100 667 100 700 c 9
EndSplineSet
Validated: 8388613
EndChar

StartChar: uni0432
Encoding: 1074 1074 145
Width: 384
Flags: HW
HStem: 0 100<200 450> 100 100<500 550> 200 100<200 450> 300 100<500 550> 400 100<200 450>
VStem: 100 400<0 100 200 300 400 500> 100 100<100 200 300 400> 450 100<100 200 300 400>
LayerCount: 2
Back
Fore
SplineSet
133 200 m 13
 133 167 133 133 133 100 c 25
 189 100 244 100 300 100 c 25
 300 133 300 167 300 200 c 25
 244 200 189 200 133 200 c 13
133 400 m 9
 133 367 133 333 133 300 c 25
 189 300 244 300 300 300 c 25
 300 333 300 367 300 400 c 25
 244 400 189 400 133 400 c 9
67 500 m 9
 156 500 244 500 333 500 c 25
 333 467 333 433 333 400 c 25
 344 400 356 400 367 400 c 25
 367 367 367 333 367 300 c 25
 356 300 344 300 333 300 c 25
 333 267 333 233 333 200 c 25
 344 200 356 200 367 200 c 25
 367 167 367 133 367 100 c 25
 356 100 344 100 333 100 c 25
 333 67 333 33 333 0 c 25
 244 0 156 0 67 0 c 25
 67 167 67 333 67 500 c 9
EndSplineSet
Validated: 8388609
EndChar

StartChar: uni0433
Encoding: 1075 1075 146
Width: 384
Flags: HW
HStem: 0 21G<100 200> 400 100<200 550>
VStem: 100 100<0 400>
LayerCount: 2
Back
Fore
SplineSet
67 0 m 13
 67 167 67 333 67 500 c 25
 167 500 267 500 367 500 c 25
 367 467 367 434 367 401 c 25
 289 401 211 400 133 400 c 25
 133 267 133 133 133 0 c 25
 111 0 89 0 67 0 c 13
EndSplineSet
Validated: 1
EndChar

StartChar: uni0434
Encoding: 1076 1076 147
Width: 384
Flags: HW
HStem: -100 200<50 149 450 550> -1 101<149 150 250 350> 400 100<250 350>
VStem: 50 100<-100 -1> 150 100<100 400> 350 100<100 400> 450 100<-100 0>
LayerCount: 2
Back
Fore
SplineSet
167 400 m 13
 167 300 167 200 167 100 c 25
 189 100 211 100 233 100 c 25
 233 200 233 300 233 400 c 25
 211 400 189 400 167 400 c 13
133 500 m 9
 189 500 244 500 300 500 c 25
 300 367 300 233 300 100 c 25
 322 100 345 100 367 100 c 25
 367 33 367 -33 367 -100 c 25
 345 -100 322 -100 300 -100 c 25
 300 -67 300 -33 300 0 c 25
 233 0 166 -1 99 -1 c 25
 99 -34 100 -67 100 -100 c 25
 78 -100 55 -100 33 -100 c 25
 33 -33 33 33 33 100 c 25
 55 100 78 100 100 100 c 25
 100 200 100 300 100 400 c 25
 111 400 122 400 133 400 c 25
 133 433 133 467 133 500 c 9
EndSplineSet
Validated: 8388609
EndChar

StartChar: uni0435
Encoding: 1077 1077 148
Width: 384
Flags: HW
HStem: 0 100<200 500> 200 100<200 450> 400 100<200 450>
VStem: 100 100<100 200 300 400> 450 100<300 400>
CounterMasks: 1 e0
LayerCount: 2
Back
Fore
SplineSet
133 400 m 1
 133 367 133 333 133 300 c 1
 189 300 244 300 300 300 c 1
 300 333 300 367 300 400 c 1
 244 400 189 400 133 400 c 1
100 400 m 1
 100 433 100 467 100 500 c 1
 178 500 255 500 333 500 c 1
 333 467 333 433 333 400 c 25
 344 400 356 400 367 400 c 25
 367 333 367 267 367 200 c 1
 289 200 211 200 133 200 c 1
 133 167 133 133 133 100 c 1
 200 100 266 100 333 100 c 1
 333 67 333 33 333 0 c 1
 255 0 178 0 100 0 c 1
 100 33 100 67 100 100 c 1
 89 100 78 100 67 100 c 1
 67 200 67 300 67 400 c 5
 78 400 89 400 100 400 c 1
EndSplineSet
Validated: 1
EndChar

StartChar: uni0436
Encoding: 1078 1078 149
Width: 384
Flags: HW
HStem: 0 100<50 100 500 550> 200 100<200 250 350 400> 400 100<50 100 500 550>
VStem: 50 100<0 100 400 500> 100 100<100 200 300 400> 250 100<0 200 300 500> 400 100<100 200 300 400> 450 100<0 100 400 500>
CounterMasks: 1 e0
LayerCount: 2
Back
Fore
SplineSet
33 500 m 13
 55 500 78 500 100 500 c 25
 100 467 100 433 100 400 c 25
 111 400 122 400 133 400 c 25
 133 367 133 333 133 300 c 25
 144 300 156 300 167 300 c 25
 167 367 167 433 167 500 c 25
 189 500 211 500 233 500 c 25
 233 433 233 367 233 300 c 25
 244 300 256 300 267 300 c 25
 267 333 267 367 267 400 c 25
 278 400 289 400 300 400 c 25
 300 433 300 467 300 500 c 25
 322 500 345 500 367 500 c 25
 367 467 367 433 367 400 c 25
 356 400 344 400 333 400 c 25
 333 367 333 333 333 300 c 25
 322 300 311 300 300 300 c 25
 300 267 300 233 300 200 c 25
 311 200 322 200 333 200 c 25
 333 167 333 133 333 100 c 25
 344 100 356 100 367 100 c 25
 367 67 367 33 367 0 c 25
 345 0 322 0 300 0 c 25
 300 33 300 67 300 100 c 25
 289 100 278 100 267 100 c 25
 267 133 267 167 267 200 c 25
 256 200 244 200 233 200 c 25
 233 133 233 67 233 0 c 25
 211 0 189 0 167 0 c 25
 167 67 167 133 167 200 c 25
 156 200 144 200 133 200 c 25
 133 167 133 133 133 100 c 25
 122 100 111 100 100 100 c 25
 100 67 100 33 100 0 c 25
 78 0 55 0 33 0 c 25
 33 33 33 67 33 100 c 25
 44 100 56 100 67 100 c 25
 67 133 67 167 67 200 c 25
 78 200 89 200 100 200 c 25
 100 233 100 267 100 300 c 25
 89 300 78 300 67 300 c 25
 67 333 67 367 67 400 c 25
 56 400 44 400 33 400 c 25
 33 433 33 467 33 500 c 13
EndSplineSet
Validated: 8388609
EndChar

StartChar: uni0437
Encoding: 1079 1079 150
Width: 384
Flags: HW
HStem: 0 100<200 450> 100 100<100 150 500 550> 300 100<100 150 500 550> 400 100<200 450>
VStem: 100 100<100 200 300 400> 450 100<100 200 300 400>
LayerCount: 2
Back
Fore
SplineSet
67 400 m 13
 78 400 89 400 100 400 c 1
 100 433 100 467 100 500 c 25
 178 500 255 500 333 500 c 25
 333 467 333 433 333 400 c 25
 344 400 356 400 367 400 c 25
 367 367 367 333 367 300 c 25
 356 300 344 300 333 300 c 25
 333 267 333 233 333 200 c 25
 344 200 356 200 367 200 c 25
 367 167 367 133 367 100 c 25
 356 100 344 100 333 100 c 25
 333 67 333 33 333 0 c 25
 255 0 178 0 100 0 c 25
 100 33 100 67 100 100 c 25
 89 100 78 100 67 100 c 25
 67 133 67 167 67 200 c 25
 89 200 111 200 133 200 c 25
 133 167 133 133 133 100 c 25
 189 100 244 100 300 100 c 25
 300 133 300 167 300 200 c 25
 267 200 233 200 200 200 c 25
 200 233 200 267 200 300 c 25
 233 300 267 300 300 300 c 25
 300 333 300 367 300 400 c 25
 244 400 189 400 133 400 c 25
 133 367 133 333 133 300 c 25
 111 300 89 300 67 300 c 1
 67 333 67 367 67 400 c 13
EndSplineSet
Validated: 8388609
EndChar

StartChar: uni0438
Encoding: 1080 1080 151
Width: 384
Flags: HW
HStem: 0 100<200 250> 100 100<250 300> 200 100<300 350> 300 100<350 400> 400 100<400 450>
VStem: 100 150<0 100> 100 100<100 500> 250 50<100 200> 300 50<200 300> 350 50<300 400> 400 150<400 500> 450 100<0 400>
LayerCount: 2
Back
Fore
SplineSet
67 0 m 13
 67 167 67 333 67 500 c 5
 89 500 111 500 133 500 c 29
 133 367 133 233 133 100 c 29
 144 100 156 100 167 100 c 29
 167 133 167 167 167 200 c 29
 178 200 189 200 200 200 c 29
 200 233 200 267 200 300 c 29
 211 300 222 300 233 300 c 29
 233 333 233 367 233 400 c 29
 244 400 256 400 267 400 c 29
 267 433 267 467 267 500 c 29
 300 500 334 500 367 500 c 29
 367 333 367 167 367 0 c 29
 345 0 322 0 300 0 c 29
 300 133 300 267 300 400 c 29
 289 400 278 400 267 400 c 29
 267 367 267 333 267 300 c 29
 256 300 244 300 233 300 c 29
 233 267 233 233 233 200 c 29
 222 200 211 200 200 200 c 29
 200 167 200 133 200 100 c 29
 189 100 178 100 167 100 c 29
 167 67 167 33 167 0 c 5
 134 0 100 0 67 0 c 13
EndSplineSet
Validated: 8388613
EndChar

StartChar: uni0439
Encoding: 1081 1081 152
Width: 384
Flags: HW
HStem: 0 100<200 250> 100 100<250 300> 200 100<300 350> 300 100<350 400> 400 100<400 450> 600 100<250 400> 700 100<150 200 450 500>
VStem: 100 100<100 500> 150 100<700 800> 250 50<100 200> 300 50<200 300> 350 50<300 400> 400 100<700 800> 450 100<0 400>
LayerCount: 2
Back
Fore
SplineSet
100 800 m 13
 122 800 145 800 167 800 c 29
 167 767 167 733 167 700 c 29
 200 700 234 700 267 700 c 29
 267 733 267 767 267 800 c 29
 289 800 311 800 333 800 c 29
 333 767 333 733 333 700 c 29
 322 700 311 700 300 700 c 29
 300 667 300 633 300 600 c 29
 244 600 189 600 133 600 c 29
 133 633 133 667 133 700 c 29
 122 700 111 700 100 700 c 29
 100 733 100 767 100 800 c 13
67 0 m 9
 67 167 67 333 67 500 c 1
 89 500 111 500 133 500 c 25
 133 367 133 233 133 100 c 25
 144 100 156 100 167 100 c 25
 167 133 167 167 167 200 c 25
 178 200 189 200 200 200 c 25
 200 233 200 267 200 300 c 25
 211 300 222 300 233 300 c 25
 233 333 233 367 233 400 c 25
 244 400 256 400 267 400 c 25
 267 433 267 467 267 500 c 25
 300 500 334 500 367 500 c 25
 367 333 367 167 367 0 c 25
 345 0 322 0 300 0 c 25
 300 133 300 267 300 400 c 25
 289 400 278 400 267 400 c 25
 267 367 267 333 267 300 c 25
 256 300 244 300 233 300 c 25
 233 267 233 233 233 200 c 25
 222 200 211 200 200 200 c 25
 200 167 200 133 200 100 c 25
 189 100 178 100 167 100 c 25
 167 67 167 33 167 0 c 1
 134 0 100 0 67 0 c 9
EndSplineSet
Validated: 8388613
EndChar

StartChar: uni043A
Encoding: 1082 1082 153
Width: 384
Flags: HW
HStem: 0 100<450 550> 200 100<200 350> 400 100<450 550>
VStem: 100 100<0 200 300 500> 350 100<100 200 300 400> 400 150<0 100 400 500>
CounterMasks: 1 e0
LayerCount: 2
Back
Fore
SplineSet
67 500 m 13
 89 500 111 500 133 500 c 25
 133 433 133 367 133 300 c 25
 166 300 200 300 233 300 c 25
 233 333 233 367 233 400 c 25
 244 400 256 400 267 400 c 25
 267 433 267 467 267 500 c 25
 300 500 334 500 367 500 c 25
 367 467 367 433 367 400 c 25
 345 400 322 400 300 400 c 25
 300 367 300 333 300 300 c 25
 289 300 278 300 267 300 c 25
 267 267 267 233 267 200 c 25
 278 200 289 200 300 200 c 25
 300 167 300 133 300 100 c 25
 322 100 345 100 367 100 c 25
 367 67 367 33 367 0 c 25
 334 0 300 0 267 0 c 25
 267 33 267 67 267 100 c 25
 256 100 244 100 233 100 c 25
 233 133 233 167 233 200 c 25
 200 200 166 200 133 200 c 25
 133 133 133 67 133 0 c 25
 111 0 89 0 67 0 c 25
 67 167 67 333 67 500 c 13
EndSplineSet
Validated: 8388609
EndChar

StartChar: uni043B
Encoding: 1083 1083 154
Width: 384
Flags: HW
HStem: 0 100<100 150> 400 100<250 450>
VStem: 100 100<0 100> 150 100<100 400> 450 100<0 400>
LayerCount: 2
Back
Fore
SplineSet
67 100 m 13
 78 100 89 100 100 100 c 25
 100 200 100 300 100 400 c 25
 111 400 122 400 133 400 c 25
 133 433 133 467 133 500 c 25
 211 500 289 500 367 500 c 25
 367 333 367 167 367 0 c 25
 345 0 322 0 300 0 c 25
 300 133 300 267 300 400 c 25
 256 400 211 400 167 400 c 25
 167 300 167 200 167 100 c 25
 156 100 144 100 133 100 c 25
 133 67 133 33 133 0 c 25
 111 0 89 0 67 0 c 25
 67 33 67 67 67 100 c 13
EndSplineSet
Validated: 8388609
EndChar

StartChar: uni043C
Encoding: 1084 1084 155
Width: 384
Flags: HW
HStem: 0 21G<100 200 450 550> 480 20G<100 250 400 550>
VStem: 100 150<400 500> 100 100<0 300> 250 150<200 300> 400 150<400 500> 450 100<0 300>
LayerCount: 2
Back
Fore
SplineSet
67 0 m 13
 67 167 67 333 67 500 c 25
 100 500 134 500 167 500 c 25
 167 467 167 433 167 400 c 25
 178 400 189 400 200 400 c 25
 200 367 200 333 200 300 c 25
 211 300 222 300 233 300 c 25
 233 333 233 367 233 400 c 25
 244 400 256 400 267 400 c 25
 267 433 267 467 267 500 c 25
 300 500 334 500 367 500 c 25
 367 333 367 167 367 0 c 25
 345 0 322 0 300 0 c 25
 300 100 300 200 300 300 c 25
 289 300 278 300 267 300 c 25
 267 267 267 233 267 200 c 25
 256 200 244 200 233 200 c 25
 233 167 233 133 233 100 c 25
 222 100 211 100 200 100 c 25
 200 133 200 167 200 200 c 25
 189 200 178 200 167 200 c 25
 167 233 167 267 167 300 c 25
 156 300 144 300 133 300 c 25
 133 200 133 100 133 0 c 25
 111 0 89 0 67 0 c 13
EndSplineSet
Validated: 8388609
EndChar

StartChar: uni043D
Encoding: 1085 1085 156
Width: 384
Flags: HW
HStem: 0 21G<100 200 400 500> 200 100<200 400> 480 20G<100 200 400 500>
VStem: 100 100<0 200 300 500> 400 100<0 200 300 500>
LayerCount: 2
Back
Fore
SplineSet
67 500 m 9
 89 500 111 500 133 500 c 25
 133 433 133 367 133 300 c 1
 177 300 223 300 267 300 c 1
 267 367 267 433 267 500 c 5
 289 500 311 500 333 500 c 1
 333 333 333 167 333 0 c 1
 311 0 289 0 267 0 c 1
 267 67 267 133 267 200 c 1
 223 200 177 200 133 200 c 1
 133 133 133 67 133 0 c 25
 111 0 89 0 67 0 c 25
 67 167 67 333 67 500 c 9
EndSplineSet
Validated: 1
EndChar

StartChar: uni043E
Encoding: 1086 1086 157
Width: 384
Flags: HW
HStem: 0 100<200 450> 400 100<200 450>
VStem: 100 100<100 400> 450 100<100 400>
LayerCount: 2
Back
Fore
SplineSet
133 400 m 13
 133 300 133 200 133 100 c 25
 189 100 244 100 300 100 c 25
 300 200 300 300 300 400 c 25
 244 400 189 400 133 400 c 13
100 500 m 9
 178 500 255 500 333 500 c 25
 333 467 333 433 333 400 c 25
 344 400 356 400 367 400 c 25
 367 300 367 200 367 100 c 25
 356 100 344 100 333 100 c 25
 333 67 333 33 333 0 c 25
 255 0 178 0 100 0 c 25
 100 33 100 67 100 100 c 25
 89 100 78 100 67 100 c 25
 67 200 67 300 67 400 c 25
 78 400 89 400 100 400 c 25
 100 433 100 467 100 500 c 9
EndSplineSet
Validated: 1
EndChar

StartChar: uni043F
Encoding: 1087 1087 158
Width: 384
Flags: HW
HStem: 0 21G<100 200 450 550> 400 100<200 450>
VStem: 100 100<0 400> 450 100<0 400>
LayerCount: 2
Back
Fore
SplineSet
67 0 m 13
 67 167 67 333 67 500 c 25
 167 500 267 500 367 500 c 25
 367 333 367 167 367 0 c 25
 345 0 322 0 300 0 c 25
 300 133 300 267 300 400 c 25
 244 400 189 400 133 400 c 25
 133 267 133 133 133 0 c 25
 111 0 89 0 67 0 c 13
EndSplineSet
Validated: 1
EndChar

StartChar: uni0440
Encoding: 1088 1088 159
Width: 384
Flags: HW
HStem: -200 21G<100 200> 0 100<250 450> 100 100<200 250> 300 100<200 250> 400 100<250 450>
VStem: 100 150<100 200 300 400> 100 100<-200 100 200 300 400 500> 250 250<0 100 400 500> 450 100<100 400>
LayerCount: 2
Back
Fore
SplineSet
167 300 m 13
 156 300 144 300 133 300 c 25
 133 267 133 233 133 200 c 25
 144 200 156 200 167 200 c 25
 167 167 167 133 167 100 c 25
 211 100 256 100 300 100 c 25
 300 200 300 300 300 400 c 25
 256 400 211 400 167 400 c 25
 167 367 167 333 167 300 c 13
67 500 m 9
 89 500 111 500 133 500 c 25
 133 467 133 433 133 400 c 25
 144 400 156 400 167 400 c 25
 167 433 167 467 167 500 c 25
 223 500 277 500 333 500 c 25
 333 467 333 433 333 400 c 25
 344 400 356 400 367 400 c 25
 367 300 367 200 367 100 c 25
 356 100 344 100 333 100 c 25
 333 67 333 33 333 0 c 25
 277 0 223 0 167 0 c 25
 167 33 167 67 167 100 c 25
 156 100 144 100 133 100 c 25
 133 0 133 -100 133 -200 c 25
 111 -200 89 -200 67 -200 c 25
 67 33 67 267 67 500 c 9
EndSplineSet
Validated: 8388613
EndChar

StartChar: uni0441
Encoding: 1089 1089 160
Width: 384
Flags: HW
HStem: 0 100<250 550> 200 100<100 150> 400 100<250 550>
VStem: 100 100<200 300> 150 100<100 200 300 400>
CounterMasks: 1 e0
LayerCount: 2
Back
Fore
SplineSet
133 500 m 13
 211 500 289 500 367 500 c 25
 367 467 367 433 367 400 c 25
 300 400 234 400 167 400 c 25
 167 367 167 333 167 300 c 25
 156 300 144 300 133 300 c 25
 133 267 133 233 133 200 c 25
 144 200 156 200 167 200 c 25
 167 167 167 133 167 100 c 25
 234 100 300 100 367 100 c 25
 367 67 367 33 367 0 c 25
 289 0 211 0 133 0 c 25
 133 33 133 67 133 100 c 25
 122 100 111 100 100 100 c 25
 100 133 100 167 100 200 c 25
 89 200 78 200 67 200 c 25
 67 233 67 267 67 300 c 25
 78 300 89 300 100 300 c 25
 100 333 100 367 100 400 c 25
 111 400 122 400 133 400 c 25
 133 433 133 467 133 500 c 13
EndSplineSet
Validated: 8388609
EndChar

StartChar: uni0442
Encoding: 1090 1090 161
Width: 384
Flags: HW
HStem: 0 21G<250 350> 400 100<50 250 350 550>
VStem: 250 100<0 400>
LayerCount: 2
Back
Fore
SplineSet
33 500 m 1
 144 500 256 500 367 500 c 1
 367 467 367 433 367 400 c 5
 323 400 277 400 233 400 c 1
 233 267 233 133 233 0 c 25
 211 0 189 0 167 0 c 25
 167 133 167 267 167 400 c 1
 123 400 77 400 33 400 c 1
 33 433 33 467 33 500 c 1
EndSplineSet
Validated: 1
EndChar

StartChar: uni0443
Encoding: 1091 1091 162
Width: 384
Flags: HW
HStem: -200 100<100 200> 400 100<100 150 500 550>
VStem: 100 100<400 500> 150 100<300 400> 200 100<-100 0 200 300> 250 150<100 200> 250 100<0 100> 350 100<200 300> 400 100<300 400> 450 100<400 500>
LayerCount: 2
Back
Fore
SplineSet
67 500 m 13
 89 500 111 500 133 500 c 25
 133 467 133 433 133 400 c 25
 144 400 156 400 167 400 c 25
 167 367 167 333 167 300 c 25
 178 300 189 300 200 300 c 25
 200 267 200 233 200 200 c 25
 211 200 222 200 233 200 c 25
 233 233 233 267 233 300 c 25
 244 300 256 300 267 300 c 25
 267 333 267 367 267 400 c 25
 278 400 289 400 300 400 c 25
 300 433 300 467 300 500 c 25
 322 500 345 500 367 500 c 25
 367 467 367 433 367 400 c 25
 356 400 344 400 333 400 c 25
 333 367 333 333 333 300 c 25
 322 300 311 300 300 300 c 25
 300 267 300 233 300 200 c 25
 289 200 278 200 267 200 c 25
 267 167 267 133 267 100 c 25
 256 100 244 100 233 100 c 25
 233 67 233 33 233 0 c 25
 222 0 211 0 200 0 c 25
 200 -33 200 -67 200 -100 c 25
 189 -100 178 -100 167 -100 c 25
 167 -133 167 -167 167 -200 c 25
 134 -200 100 -200 67 -200 c 25
 67 -167 67 -133 67 -100 c 25
 89 -100 111 -100 133 -100 c 25
 133 -67 133 -33 133 0 c 25
 144 0 156 0 167 0 c 25
 167 67 167 133 167 200 c 25
 156 200 144 200 133 200 c 25
 133 233 133 267 133 300 c 25
 122 300 111 300 100 300 c 25
 100 333 100 367 100 400 c 25
 89 400 78 400 67 400 c 25
 67 433 67 467 67 500 c 13
EndSplineSet
Validated: 8388609
EndChar

StartChar: uni0444
Encoding: 1092 1092 163
Width: 384
Flags: HW
HStem: -200 21G<250 350> 0 100<150 250 350 450> 400 100<150 250 350 450> 680 20G<250 350>
VStem: 50 100<100 400> 250 100<-200 0 100 400 500 700> 450 100<100 400>
CounterMasks: 1 0e
LayerCount: 2
Back
Fore
SplineSet
167 400 m 13
 145 400 122 400 100 400 c 25
 100 300 100 200 100 100 c 25
 122 100 145 100 167 100 c 25
 167 200 167 300 167 400 c 13
233 400 m 9
 233 300 233 200 233 100 c 25
 255 100 278 100 300 100 c 25
 300 200 300 300 300 400 c 25
 278 400 255 400 233 400 c 9
167 700 m 9
 189 700 211 700 233 700 c 25
 233 633 233 567 233 500 c 25
 266 500 300 500 333 500 c 25
 333 467 333 433 333 400 c 25
 344 400 356 400 367 400 c 25
 367 300 367 200 367 100 c 25
 356 100 344 100 333 100 c 25
 333 67 333 33 333 0 c 25
 300 0 266 0 233 0 c 25
 233 -67 233 -133 233 -200 c 25
 211 -200 189 -200 167 -200 c 25
 167 -133 167 -67 167 0 c 25
 134 0 100 0 67 0 c 25
 67 33 67 67 67 100 c 25
 56 100 44 100 33 100 c 25
 33 200 33 300 33 400 c 25
 44 400 56 400 67 400 c 25
 67 433 67 467 67 500 c 25
 100 500 134 500 167 500 c 25
 167 567 167 633 167 700 c 9
EndSplineSet
Validated: 1
EndChar

StartChar: uni0445
Encoding: 1093 1093 164
Width: 384
Flags: HW
HStem: 0 100<50 150 450 550> 200 100<250 350> 400 100<50 150 450 550>
VStem: 50 150<0 100 400 500> 150 100<100 200 300 400> 350 100<100 200 300 400> 400 150<0 100 400 500>
CounterMasks: 1 e0
LayerCount: 2
Back
Fore
SplineSet
33 500 m 13
 66 500 100 500 133 500 c 25
 133 467 133 433 133 400 c 25
 144 400 156 400 167 400 c 25
 167 367 167 333 167 300 c 25
 189 300 211 300 233 300 c 25
 233 333 233 367 233 400 c 25
 244 400 256 400 267 400 c 25
 267 433 267 467 267 500 c 25
 300 500 334 500 367 500 c 25
 367 467 367 433 367 400 c 25
 345 400 322 400 300 400 c 25
 300 367 300 333 300 300 c 25
 289 300 278 300 267 300 c 25
 267 267 267 233 267 200 c 25
 278 200 289 200 300 200 c 25
 300 167 300 133 300 100 c 25
 322 100 345 100 367 100 c 25
 367 67 367 33 367 0 c 25
 334 0 300 0 267 0 c 25
 267 33 267 67 267 100 c 25
 256 100 244 100 233 100 c 25
 233 133 233 167 233 200 c 25
 211 200 189 200 167 200 c 25
 167 167 167 133 167 100 c 25
 156 100 144 100 133 100 c 25
 133 67 133 33 133 0 c 25
 100 0 66 0 33 0 c 25
 33 33 33 67 33 100 c 25
 55 100 78 100 100 100 c 25
 100 133 100 167 100 200 c 25
 111 200 122 200 133 200 c 25
 133 233 133 267 133 300 c 25
 122 300 111 300 100 300 c 25
 100 333 100 367 100 400 c 25
 78 400 55 400 33 400 c 25
 33 433 33 467 33 500 c 13
EndSplineSet
Validated: 8388609
EndChar

StartChar: uni0446
Encoding: 1094 1094 165
Width: 384
Flags: HW
HStem: 0 100<200 350> 480 20G<100 200 350 450>
VStem: 100 100<100 500> 350 100<100 500> 450 100<-100 0>
LayerCount: 2
Back
Fore
SplineSet
67 500 m 13
 89 500 111 500 133 500 c 25
 133 367 133 233 133 100 c 25
 166 100 200 100 233 100 c 25
 233 233 233 367 233 500 c 25
 255 500 278 500 300 500 c 25
 300 367 300 233 300 100 c 25
 322 100 345 100 367 100 c 25
 367 33 367 -33 367 -100 c 25
 345 -100 322 -100 300 -100 c 25
 300 -67 300 -33 300 0 c 25
 222 0 145 0 67 0 c 25
 67 167 67 333 67 500 c 13
EndSplineSet
Validated: 8388609
EndChar

StartChar: uni0447
Encoding: 1095 1095 166
Width: 384
Flags: HW
HStem: 0 21G<450 550> 200 100<200 450> 480 20G<100 200 450 550>
VStem: 100 100<300 500> 450 100<0 200 300 500>
LayerCount: 2
Back
Fore
SplineSet
67 500 m 13
 89 500 111 500 133 500 c 25
 133 433 133 367 133 300 c 25
 189 300 244 300 300 300 c 25
 300 367 300 433 300 500 c 25
 322 500 345 500 367 500 c 25
 367 333 367 167 367 0 c 25
 345 0 322 0 300 0 c 25
 300 67 300 133 300 200 c 25
 233 200 167 200 100 200 c 25
 100 233 100 267 100 300 c 25
 89 300 78 300 67 300 c 25
 67 367 67 433 67 500 c 13
EndSplineSet
Validated: 1
EndChar

StartChar: uni0448
Encoding: 1096 1096 167
Width: 384
Flags: HW
HStem: 0 100<150 250 350 450> 480 20G<50 150 250 350 450 550>
VStem: 50 100<100 500> 250 100<100 500> 450 100<100 500>
CounterMasks: 1 38
LayerCount: 2
Back
Fore
SplineSet
33 500 m 13
 55 500 78 500 100 500 c 25
 100 367 100 233 100 100 c 25
 122 100 145 100 167 100 c 25
 167 233 167 367 167 500 c 25
 189 500 211 500 233 500 c 25
 233 367 233 233 233 100 c 25
 255 100 278 100 300 100 c 25
 300 233 300 367 300 500 c 25
 322 500 345 500 367 500 c 25
 367 333 367 167 367 0 c 25
 256 0 144 0 33 0 c 25
 33 167 33 333 33 500 c 13
EndSplineSet
Validated: 1
EndChar

StartChar: uni0449
Encoding: 1097 1097 168
Width: 384
Flags: HW
HStem: 0 100<150 250 350 450> 480 20G<50 150 250 350 450 550>
VStem: 50 100<100 500> 250 100<100 500> 450 100<100 500> 500 100<-100 0>
LayerCount: 2
Back
Fore
SplineSet
33 500 m 13
 55 500 78 500 100 500 c 25
 100 367 100 233 100 100 c 25
 122 100 145 100 167 100 c 25
 167 233 167 367 167 500 c 25
 189 500 211 500 233 500 c 25
 233 367 233 233 233 100 c 25
 255 100 278 100 300 100 c 25
 300 233 300 367 300 500 c 25
 322 500 345 500 367 500 c 25
 367 367 367 233 367 100 c 25
 378 100 389 100 400 100 c 25
 400 33 400 -33 400 -100 c 25
 378 -100 355 -100 333 -100 c 25
 333 -67 333 -33 333 0 c 25
 233 0 133 0 33 0 c 25
 33 167 33 333 33 500 c 13
EndSplineSet
Validated: 8388609
EndChar

StartChar: uni044A
Encoding: 1098 1098 169
Width: 384
Flags: HW
HStem: 0 100<250 450> 100 100<500 550> 200 100<250 450> 400 100<50 150>
VStem: 150 100<100 200 300 400> 450 100<100 200>
LayerCount: 2
Back
Fore
SplineSet
167 200 m 13
 167 167 167 133 167 100 c 25
 211 100 256 100 300 100 c 25
 300 133 300 167 300 200 c 25
 256 200 211 200 167 200 c 13
33 500 m 9
 77 500 123 500 167 500 c 25
 167 433 167 367 167 300 c 25
 223 300 277 300 333 300 c 25
 333 267 333 233 333 200 c 25
 344 200 356 200 367 200 c 25
 367 167 367 133 367 100 c 25
 356 100 344 100 333 100 c 25
 333 67 333 33 333 0 c 25
 255 0 178 0 100 0 c 25
 100 133 100 267 100 400 c 25
 78 400 55 400 33 400 c 25
 33 433 33 467 33 500 c 9
EndSplineSet
Validated: 8388609
EndChar

StartChar: uni044B
Encoding: 1099 1099 170
Width: 384
Flags: HW
HStem: 0 100<150 300> 100 100<350 400> 200 100<150 300> 480 20G<50 150 450 550>
VStem: 50 300<0 100 200 300> 50 100<100 200 300 500> 300 100<100 200> 450 100<0 500>
LayerCount: 2
Back
Fore
SplineSet
300 0 m 13
 300 167 300 333 300 500 c 25
 322 500 345 500 367 500 c 25
 367 333 367 167 367 0 c 25
 345 0 322 0 300 0 c 13
100 200 m 9
 100 167 100 133 100 100 c 25
 133 100 167 100 200 100 c 25
 200 133 200 167 200 200 c 25
 167 200 133 200 100 200 c 9
33 500 m 9
 55 500 78 500 100 500 c 25
 100 433 100 367 100 300 c 25
 144 300 189 300 233 300 c 25
 233 267 233 233 233 200 c 25
 244 200 256 200 267 200 c 25
 267 167 267 133 267 100 c 25
 256 100 244 100 233 100 c 25
 233 67 233 33 233 0 c 25
 166 0 100 0 33 0 c 25
 33 167 33 333 33 500 c 9
EndSplineSet
Validated: 8388609
EndChar

StartChar: uni044C
Encoding: 1100 1100 171
Width: 384
Flags: HW
HStem: 0 100<200 450> 100 100<500 550> 200 100<200 450> 480 20G<100 200>
VStem: 100 100<100 200 300 500> 450 100<100 200>
LayerCount: 2
Back
Fore
SplineSet
133 100 m 1
 189 100 244 100 300 100 c 1
 300 133 300 167 300 200 c 1
 244 200 189 200 133 200 c 1
 133 167 133 133 133 100 c 1
67 500 m 1
 89 500 111 500 133 500 c 1
 133 433 133 367 133 300 c 5
 200 300 266 300 333 300 c 1
 333 267 333 233 333 200 c 25
 344 200 356 200 367 200 c 25
 367 167 367 133 367 100 c 25
 356 100 344 100 333 100 c 25
 333 67 333 33 333 0 c 1
 244 0 156 0 67 0 c 1
 67 167 67 333 67 500 c 1
EndSplineSet
Validated: 8388609
EndChar

StartChar: uni044D
Encoding: 1101 1101 172
Width: 384
Flags: HW
HStem: 0 100<200 450> 100 100<100 150> 200 100<300 450> 300 100<100 150> 400 100<200 450>
VStem: 100 100<100 200 300 400> 450 100<100 200 300 400>
LayerCount: 2
Back
Fore
SplineSet
67 300 m 13
 67 333 67 367 67 400 c 25
 78 400 89 400 100 400 c 25
 100 433 100 467 100 500 c 25
 178 500 255 500 333 500 c 25
 333 467 333 433 333 400 c 25
 344 400 356 400 367 400 c 25
 367 300 367 200 367 100 c 25
 356 100 344 100 333 100 c 25
 333 67 333 33 333 0 c 25
 255 0 178 0 100 0 c 25
 100 33 100 67 100 100 c 25
 89 100 78 100 67 100 c 25
 67 133 67 167 67 200 c 25
 89 200 111 200 133 200 c 25
 133 167 133 133 133 100 c 25
 189 100 244 100 300 100 c 25
 300 133 300 167 300 200 c 25
 267 200 233 200 200 200 c 25
 200 233 200 267 200 300 c 25
 233 300 267 300 300 300 c 25
 300 333 300 367 300 400 c 25
 244 400 189 400 133 400 c 25
 133 367 133 333 133 300 c 25
 111 300 89 300 67 300 c 13
EndSplineSet
Validated: 8388609
EndChar

StartChar: uni044E
Encoding: 1102 1102 173
Width: 384
Flags: HW
HStem: 0 100<350 450> 200 100<200 250> 400 100<350 450>
VStem: 100 100<0 200 300 500> 250 100<100 200 300 400> 300 200<0 100 400 500> 450 100<100 400>
CounterMasks: 1 e0
LayerCount: 2
Back
Fore
SplineSet
233 100 m 13
 255 100 278 100 300 100 c 25
 300 200 300 300 300 400 c 25
 278 400 255 400 233 400 c 25
 233 300 233 200 233 100 c 13
67 0 m 9
 67 167 67 333 67 500 c 25
 89 500 111 500 133 500 c 25
 133 433 133 367 133 300 c 25
 144 300 156 300 167 300 c 25
 167 333 167 367 167 400 c 25
 178 400 189 400 200 400 c 25
 200 433 200 467 200 500 c 25
 244 500 289 500 333 500 c 25
 333 467 333 433 333 400 c 25
 344 400 356 400 367 400 c 25
 367 300 367 200 367 100 c 25
 356 100 344 100 333 100 c 25
 333 67 333 33 333 0 c 25
 289 0 244 0 200 0 c 25
 200 33 200 67 200 100 c 25
 189 100 178 100 167 100 c 25
 167 133 167 167 167 200 c 25
 156 200 144 200 133 200 c 25
 133 133 133 67 133 0 c 25
 111 0 89 0 67 0 c 9
EndSplineSet
Validated: 8388609
EndChar

StartChar: uni044F
Encoding: 1103 1103 174
Width: 384
Flags: HW
HStem: 0 100<100 200> 200 100<150 200 350 400> 300 100<50 100> 400 100<150 400>
VStem: 50 100<300 400> 100 150<0 100> 200 150<100 200> 400 100<0 200 300 400>
LayerCount: 2
Back
Fore
SplineSet
100 400 m 13
 100 367 100 333 100 300 c 25
 156 300 211 300 267 300 c 25
 267 333 267 367 267 400 c 25
 211 400 156 400 100 400 c 13
33 400 m 9
 44 400 56 400 67 400 c 25
 67 433 67 467 67 500 c 25
 156 500 244 500 333 500 c 25
 333 333 333 167 333 0 c 25
 311 0 289 0 267 0 c 25
 267 67 267 133 267 200 c 25
 256 200 244 200 233 200 c 25
 233 167 233 133 233 100 c 25
 211 100 189 100 167 100 c 25
 167 67 167 33 167 0 c 25
 134 0 100 0 67 0 c 25
 67 33 67 67 67 100 c 25
 89 100 111 100 133 100 c 25
 133 133 133 167 133 200 c 25
 111 200 89 200 67 200 c 25
 67 233 67 267 67 300 c 25
 56 300 44 300 33 300 c 25
 33 333 33 367 33 400 c 9
EndSplineSet
Validated: 8388609
EndChar

StartChar: uni2116
Encoding: 8470 8470 175
Width: 384
Flags: HW
HStem: 0 21G<0 100 200 300> 200 100<350 600> 400 100<450 500> 500 100<350 400 550 600> 600 100<450 500>
VStem: 0 150<400 600> 0 100<0 250 600 700> 150 150<100 250> 200 100<0 100 400 700> 350 100<500 600> 400 150<400 500 600 700> 500 100<500 600>
LayerCount: 2
Back
Fore
SplineSet
233 300 m 13
 289 300 344 300 400 300 c 25
 400 267 400 233 400 200 c 25
 344 200 289 200 233 200 c 25
 233 233 233 267 233 300 c 13
300 600 m 9
 300 567 300 533 300 500 c 25
 311 500 322 500 333 500 c 25
 333 533 333 567 333 600 c 25
 322 600 311 600 300 600 c 9
267 600 m 9
 267 633 267 667 267 700 c 25
 300 700 334 700 367 700 c 25
 367 667 367 633 367 600 c 25
 378 600 389 600 400 600 c 25
 400 567 400 533 400 500 c 25
 389 500 378 500 367 500 c 25
 367 467 367 433 367 400 c 25
 334 400 300 400 267 400 c 25
 267 433 267 467 267 500 c 25
 256 500 244 500 233 500 c 25
 233 533 233 567 233 600 c 25
 244 600 256 600 267 600 c 9
0 0 m 9
 0 233 0 467 0 700 c 25
 22 700 45 700 67 700 c 25
 67 667 67 633 67 600 c 25
 78 600 89 600 100 600 c 25
 100 533 100 467 100 400 c 25
 111 400 122 400 133 400 c 25
 133 500 133 600 133 700 c 25
 155 700 178 700 200 700 c 25
 200 467 200 233 200 0 c 25
 178 0 155 0 133 0 c 25
 133 33 133 67 133 100 c 25
 122 100 111 100 100 100 c 25
 100 150 100 200 100 250 c 25
 89 250 78 250 67 250 c 25
 67 167 67 83 67 0 c 25
 45 0 22 0 0 0 c 9
EndSplineSet
Validated: 8388609
EndChar

StartChar: asciitilde
Encoding: 126 126 176
Width: 384
Flags: HW
HStem: 500 100<100 150 350 450> 600 100<200 300 500 550>
VStem: 100 100<501 600> 450 100<600 700>
LayerCount: 2
Back
Fore
SplineSet
67 600 m 13
 78 600 89 600 100 600 c 25
 100 633 100 667 100 700 c 25
 144 700 189 700 233 700 c 25
 233 667 233 633 233 600 c 25
 255 600 278 600 300 600 c 25
 300 633 300 667 300 700 c 25
 322 700 345 700 367 700 c 25
 367 667 367 633 367 600 c 25
 356 600 344 600 333 600 c 25
 333 567 333 533 333 500 c 25
 289 500 244 500 200 500 c 25
 200 533 200 567 200 600 c 25
 178 600 155 600 133 600 c 25
 133 567 133 533 133 500 c 25
 111 500 89 501 67 501 c 25
 67 534 67 567 67 600 c 13
EndSplineSet
Validated: 8388609
EndChar

StartChar: section
Encoding: 167 167 177
Width: 384
Flags: HW
HStem: 0 100<150 300> 100 100<50 100> 200 100<250 300> 300 100<150 200 400 450> 400 100<300 350> 500 100<500 550> 600 100<300 450>
VStem: 50 100<100 200> 150 100<300 400> 200 100<500 600> 300 100<100 200> 350 100<300 400> 450 100<500 600>
LayerCount: 2
Back
Fore
SplineSet
233 400 m 13
 211 400 189 400 167 400 c 25
 167 367 167 333 167 300 c 25
 189 300 211 300 233 300 c 25
 233 333 233 367 233 400 c 13
300 500 m 9
 300 533 300 567 300 600 c 25
 267 600 233 600 200 600 c 25
 200 567 200 533 200 500 c 25
 222 500 245 500 267 500 c 25
 267 467 267 433 267 400 c 25
 278 400 289 400 300 400 c 25
 300 367 300 333 300 300 c 25
 289 300 278 300 267 300 c 25
 267 233 267 167 267 100 c 25
 256 100 244 100 233 100 c 25
 233 67 233 33 233 0 c 25
 177 0 123 0 67 0 c 25
 67 33 67 67 67 100 c 25
 56 100 44 100 33 100 c 25
 33 133 33 167 33 200 c 25
 55 200 78 200 100 200 c 25
 100 167 100 133 100 100 c 25
 133 100 167 100 200 100 c 25
 200 133 200 167 200 200 c 25
 178 200 155 200 133 200 c 25
 133 233 133 267 133 300 c 25
 122 300 111 300 100 300 c 25
 100 333 100 367 100 400 c 25
 111 400 122 400 133 400 c 25
 133 467 133 533 133 600 c 25
 144 600 156 600 167 600 c 25
 167 633 167 667 167 700 c 25
 223 700 277 700 333 700 c 25
 333 667 333 633 333 600 c 25
 344 600 356 600 367 600 c 25
 367 567 367 533 367 500 c 25
 345 500 322 500 300 500 c 9
EndSplineSet
Validated: 8388609
EndChar

StartChar: parenleft
Encoding: 40 40 178
Width: 384
Flags: HW
HStem: 0 100<300 400> 600 100<300 400>
VStem: 150 100<200 500> 200 100<100 200 500 600> 250 150<0 100 600 700>
LayerCount: 2
Back
Fore
SplineSet
167 600 m 13
 167 633 167 667 167 700 c 25
 200 700 234 700 267 700 c 25
 267 667 267 633 267 600 c 25
 245 600 222 600 200 600 c 25
 200 567 200 533 200 500 c 25
 189 500 178 500 167 500 c 25
 167 400 167 300 167 200 c 25
 178 200 189 200 200 200 c 25
 200 167 200 133 200 100 c 25
 222 100 245 100 267 100 c 25
 267 67 267 33 267 0 c 25
 234 0 200 0 167 0 c 25
 167 33 167 67 167 100 c 25
 156 100 144 100 133 100 c 25
 133 133 133 167 133 200 c 25
 122 200 111 200 100 200 c 25
 100 300 100 400 100 500 c 25
 111 500 122 500 133 500 c 25
 133 533 133 567 133 600 c 25
 144 600 156 600 167 600 c 13
EndSplineSet
Validated: 8388609
EndChar

StartChar: quotedbl
Encoding: 34 34 179
Width: 384
Flags: HW
HStem: 400 100<100 150 350 400> 600 100<100 150 350 400>
VStem: 100 100<400 500> 150 100<500 600> 350 100<400 500> 400 100<500 600>
LayerCount: 2
Back
Fore
SplineSet
233 400 m 13
 233 433 233 467 233 500 c 25
 244 500 256 500 267 500 c 25
 267 533 267 567 267 600 c 25
 256 600 244 600 233 600 c 25
 233 633 233 667 233 700 c 25
 266 700 300 700 333 700 c 25
 333 633 333 567 333 500 c 25
 322 500 311 500 300 500 c 25
 300 467 300 433 300 400 c 25
 278 400 255 400 233 400 c 13
67 600 m 9
 67 633 67 667 67 700 c 25
 100 700 134 700 167 700 c 25
 167 633 167 567 167 500 c 25
 156 500 144 500 133 500 c 25
 133 467 133 433 133 400 c 25
 111 400 89 400 67 400 c 25
 67 433 67 467 67 500 c 25
 78 500 89 500 100 500 c 25
 100 533 100 567 100 600 c 25
 89 600 78 600 67 600 c 9
EndSplineSet
Validated: 8388609
EndChar

StartChar: numbersign
Encoding: 35 35 180
Width: 384
Flags: HW
HStem: 0 21G<150 250 350 450> 200 100<50 150 250 350 450 550> 400 100<50 150 250 350 450 550> 680 20G<150 250 350 450>
VStem: 150 100<0 200 300 400 500 700> 350 100<0 200 300 400 500 700>
LayerCount: 2
Back
Fore
SplineSet
167 300 m 13
 189 300 211 300 233 300 c 25
 233 333 233 367 233 400 c 25
 211 400 189 400 167 400 c 25
 167 367 167 333 167 300 c 13
100 700 m 9
 122 700 145 700 167 700 c 25
 167 633 167 567 167 500 c 25
 189 500 211 500 233 500 c 25
 233 567 233 633 233 700 c 25
 255 700 278 700 300 700 c 25
 300 633 300 567 300 500 c 25
 322 500 345 500 367 500 c 25
 367 467 367 433 367 400 c 25
 345 400 322 400 300 400 c 25
 300 367 300 333 300 300 c 25
 322 300 345 300 367 300 c 25
 367 267 367 233 367 200 c 25
 345 200 322 200 300 200 c 25
 300 133 300 67 300 0 c 25
 278 0 255 0 233 0 c 25
 233 67 233 133 233 200 c 25
 211 200 189 200 167 200 c 25
 167 133 167 67 167 0 c 25
 145 0 122 0 100 0 c 25
 100 67 100 133 100 200 c 25
 78 200 55 200 33 200 c 25
 33 233 33 267 33 300 c 25
 55 300 78 300 100 300 c 25
 100 333 100 367 100 400 c 25
 78 400 55 400 33 400 c 25
 33 433 33 467 33 500 c 25
 55 500 78 500 100 500 c 25
 100 567 100 633 100 700 c 9
EndSplineSet
Validated: 1
EndChar

StartChar: dollar
Encoding: 36 36 181
Width: 384
Flags: HW
HStem: 0 100<150 250 350 450> 100 100<50 100> 300 100<150 250 350 450> 500 100<500 550> 600 100<150 250 350 450>
VStem: 50 100<100 200 400 600> 100 400<0 100 300 400 600 700> 250 100<-100 0 100 300 400 600 700 800> 450 100<100 300 500 600>
LayerCount: 2
Back
Fore
SplineSet
300 100 m 13
 300 167 300 233 300 300 c 25
 278 300 255 300 233 300 c 25
 233 233 233 167 233 100 c 25
 255 100 278 100 300 100 c 13
167 600 m 9
 145 600 122 600 100 600 c 25
 100 533 100 467 100 400 c 25
 122 400 145 400 167 400 c 25
 167 467 167 533 167 600 c 9
233 800 m 9
 233 767 233 733 233 700 c 1
 266 700 300 700 333 700 c 25
 333 667 333 633 333 600 c 25
 344 600 356 600 367 600 c 25
 367 567 367 533 367 500 c 25
 345 500 322 500 300 500 c 25
 300 533 300 567 300 600 c 25
 278 600 255 600 233 600 c 25
 233 533 233 467 233 400 c 25
 266 400 300 400 333 400 c 25
 333 367 333 333 333 300 c 25
 344 300 356 300 367 300 c 25
 367 233 367 167 367 100 c 25
 356 100 344 100 333 100 c 25
 333 67 333 33 333 0 c 25
 300 0 266 0 233 0 c 25
 233 -33 233 -67 233 -100 c 25
 211 -100 189 -100 167 -100 c 25
 167 -67 167 -33 167 0 c 25
 134 0 100 0 67 0 c 25
 67 33 67 67 67 100 c 25
 56 100 44 100 33 100 c 25
 33 133 33 167 33 200 c 25
 55 200 78 200 100 200 c 25
 100 167 100 133 100 100 c 25
 122 100 145 100 167 100 c 25
 167 167 167 233 167 300 c 25
 134 300 100 300 67 300 c 25
 67 333 67 367 67 400 c 25
 56 400 44 400 33 400 c 25
 33 467 33 533 33 600 c 25
 44 600 56 600 67 600 c 25
 67 633 67 667 67 700 c 25
 100 700 134 700 167 700 c 25
 167 733 167 767 167 800 c 1
 189 800 211 800 233 800 c 9
EndSplineSet
Validated: 8388609
EndChar

StartChar: percent
Encoding: 37 37 182
Width: 384
Flags: HW
HStem: 0 100<100 150 450 500> 100 100<350 400 550 600> 200 100<450 500> 400 100<100 150> 500 100<0 50 200 250> 600 100<100 150 450 500>
VStem: 0 100<500 600> 50 150<400 500 600 700> 100 100<0 100> 150 100<100 200 500 600> 200 100<200 300> 250 100<300 400> 300 100<400 500> 350 100<100 200 500 600> 400 150<0 100 200 300> 400 100<600 700> 500 100<100 200>
LayerCount: 2
Back
Fore
SplineSet
267 700 m 13
 289 700 311 700 333 700 c 25
 333 667 333 633 333 600 c 25
 322 600 311 600 300 600 c 25
 300 567 300 533 300 500 c 25
 289 500 278 500 267 500 c 25
 267 467 267 433 267 400 c 25
 256 400 244 400 233 400 c 25
 233 367 233 333 233 300 c 25
 222 300 211 300 200 300 c 25
 200 267 200 233 200 200 c 25
 189 200 178 200 167 200 c 25
 167 167 167 133 167 100 c 25
 156 100 144 100 133 100 c 25
 133 67 133 33 133 0 c 25
 111 0 89 0 67 0 c 25
 67 33 67 67 67 100 c 25
 78 100 89 100 100 100 c 25
 100 133 100 167 100 200 c 25
 111 200 122 200 133 200 c 25
 133 233 133 267 133 300 c 25
 144 300 156 300 167 300 c 25
 167 333 167 367 167 400 c 25
 178 400 189 400 200 400 c 25
 200 433 200 467 200 500 c 25
 211 500 222 500 233 500 c 25
 233 533 233 567 233 600 c 25
 244 600 256 600 267 600 c 25
 267 633 267 667 267 700 c 13
300 100 m 9
 311 100 322 100 333 100 c 25
 333 133 333 167 333 200 c 25
 322 200 311 200 300 200 c 25
 300 167 300 133 300 100 c 9
267 300 m 9
 300 300 334 300 367 300 c 25
 367 267 367 233 367 200 c 25
 378 200 389 200 400 200 c 25
 400 167 400 133 400 100 c 25
 389 100 378 100 367 100 c 25
 367 67 367 33 367 0 c 25
 334 0 300 0 267 0 c 25
 267 33 267 67 267 100 c 25
 256 100 244 100 233 100 c 25
 233 133 233 167 233 200 c 25
 244 200 256 200 267 200 c 25
 267 233 267 267 267 300 c 9
67 600 m 9
 67 567 67 533 67 500 c 25
 78 500 89 500 100 500 c 25
 100 533 100 567 100 600 c 25
 89 600 78 600 67 600 c 9
0 600 m 9
 11 600 22 600 33 600 c 25
 33 633 33 667 33 700 c 25
 66 700 100 700 133 700 c 25
 133 667 133 633 133 600 c 25
 144 600 156 600 167 600 c 25
 167 567 167 533 167 500 c 25
 156 500 144 500 133 500 c 25
 133 467 133 433 133 400 c 25
 100 400 66 400 33 400 c 25
 33 433 33 467 33 500 c 25
 22 500 11 500 0 500 c 25
 0 533 0 567 0 600 c 9
EndSplineSet
Validated: 8388609
EndChar

StartChar: ampersand
Encoding: 38 38 183
Width: 384
Flags: HW
HStem: 0 100<150 350 500 600> 100 100<50 100 400 450> 200 100<500 550> 300 100<200 300> 600 100<200 300>
VStem: 50 100<100 200> 100 100<200 300 400 600> 150 200<300 400 600 700> 300 100<200 300 400 600> 450 150<0 100> 450 100<200 300>
LayerCount: 2
Back
Fore
SplineSet
133 300 m 13
 133 267 133 233 133 200 c 25
 122 200 111 200 100 200 c 25
 100 167 100 133 100 100 c 25
 144 100 189 100 233 100 c 25
 233 133 233 167 233 200 c 25
 222 200 211 200 200 200 c 25
 200 233 200 267 200 300 c 25
 178 300 155 300 133 300 c 13
133 600 m 9
 133 533 133 467 133 400 c 25
 155 400 178 400 200 400 c 25
 200 467 200 533 200 600 c 25
 178 600 155 600 133 600 c 9
100 700 m 9
 144 700 189 700 233 700 c 25
 233 667 233 633 233 600 c 25
 244 600 256 600 267 600 c 25
 267 533 267 467 267 400 c 25
 256 400 244 400 233 400 c 25
 233 367 233 333 233 300 c 25
 244 300 256 300 267 300 c 25
 267 267 267 233 267 200 c 25
 278 200 289 200 300 200 c 25
 300 233 300 267 300 300 c 25
 322 300 345 300 367 300 c 25
 367 267 367 233 367 200 c 25
 356 200 344 200 333 200 c 25
 333 167 333 133 333 100 c 25
 355 100 378 100 400 100 c 25
 400 67 400 33 400 0 c 25
 367 0 333 0 300 0 c 25
 300 33 300 67 300 100 c 25
 289 100 278 100 267 100 c 25
 267 67 267 33 267 0 c 25
 200 0 134 0 67 0 c 25
 67 33 67 67 67 100 c 25
 56 100 44 100 33 100 c 25
 33 133 33 167 33 200 c 25
 44 200 56 200 67 200 c 25
 67 233 67 267 67 300 c 25
 78 300 89 300 100 300 c 25
 100 333 100 367 100 400 c 25
 89 400 78 400 67 400 c 25
 67 467 67 533 67 600 c 25
 78 600 89 600 100 600 c 25
 100 633 100 667 100 700 c 9
EndSplineSet
Validated: 8388609
EndChar

StartChar: quotesingle
Encoding: 39 39 184
Width: 384
Flags: HW
HStem: 400 100<250 300> 600 100<250 300>
VStem: 250 100<400 500> 300 100<500 600>
LayerCount: 2
Back
Fore
SplineSet
167 600 m 13
 167 633 167 667 167 700 c 25
 200 700 234 700 267 700 c 25
 267 633 267 567 267 500 c 25
 256 500 244 500 233 500 c 25
 233 467 233 433 233 400 c 25
 211 400 189 400 167 400 c 25
 167 433 167 467 167 500 c 25
 178 500 189 500 200 500 c 25
 200 533 200 567 200 600 c 25
 189 600 178 600 167 600 c 13
EndSplineSet
Validated: 8388609
EndChar

StartChar: parenright
Encoding: 41 41 185
Width: 384
Flags: HW
HStem: 0 100<200 300> 600 100<200 300>
VStem: 200 150<0 100 600 700> 300 100<100 200 500 600> 350 100<200 500>
LayerCount: 2
Back
Fore
SplineSet
133 700 m 13
 166 700 200 700 233 700 c 25
 233 667 233 633 233 600 c 25
 244 600 256 600 267 600 c 25
 267 567 267 533 267 500 c 25
 278 500 289 500 300 500 c 25
 300 400 300 300 300 200 c 25
 289 200 278 200 267 200 c 25
 267 167 267 133 267 100 c 25
 256 100 244 100 233 100 c 25
 233 67 233 33 233 0 c 25
 200 0 166 0 133 0 c 25
 133 33 133 67 133 100 c 25
 155 100 178 100 200 100 c 25
 200 133 200 167 200 200 c 25
 211 200 222 200 233 200 c 25
 233 300 233 400 233 500 c 25
 222 500 211 500 200 500 c 25
 200 533 200 567 200 600 c 25
 178 600 155 600 133 600 c 25
 133 633 133 667 133 700 c 13
EndSplineSet
Validated: 8388609
EndChar

StartChar: braceleft
Encoding: 123 123 186
Width: 384
Flags: HW
HStem: 0 100<350 450> 300 100<150 250> 600 100<350 450>
VStem: 150 150<300 400> 250 100<100 300 400 600> 300 150<0 100 600 700>
CounterMasks: 1 e0
LayerCount: 2
Back
Fore
SplineSet
300 700 m 13
 300 667 300 633 300 600 c 1
 278 600 255 600 233 600 c 25
 233 533 233 467 233 400 c 25
 222 400 211 400 200 400 c 25
 200 367 200 333 200 300 c 25
 211 300 222 300 233 300 c 25
 233 233 233 167 233 100 c 25
 255 100 278 100 300 100 c 25
 300 67 300 33 300 0 c 25
 267 0 233 0 200 0 c 25
 200 33 200 67 200 100 c 25
 189 100 178 100 167 100 c 25
 167 167 167 233 167 300 c 25
 145 300 122 300 100 300 c 25
 100 333 100 367 100 400 c 25
 122 400 145 400 167 400 c 25
 167 467 167 533 167 600 c 25
 178 600 189 600 200 600 c 25
 200 633 200 667 200 700 c 1
 233 700 267 700 300 700 c 13
EndSplineSet
Validated: 8388609
EndChar

StartChar: bar
Encoding: 124 124 187
Width: 384
Flags: HW
HStem: 0 21G<250 350> 680 20G<250 350>
VStem: 250 100<0 700>
LayerCount: 2
Back
Fore
SplineSet
167 700 m 13
 189 700 211 700 233 700 c 25
 233 467 233 233 233 0 c 25
 211 0 189 0 167 0 c 25
 167 233 167 467 167 700 c 13
EndSplineSet
Validated: 1
EndChar

StartChar: braceright
Encoding: 125 125 188
Width: 384
Flags: HW
HStem: 0 100<150 250> 300 100<350 450> 600 100<150 250>
VStem: 150 150<0 100 600 700> 250 100<100 300 400 600> 300 150<300 400>
CounterMasks: 1 e0
LayerCount: 2
Back
Fore
SplineSet
100 700 m 13
 133 700 167 700 200 700 c 25
 200 667 200 633 200 600 c 25
 211 600 222 600 233 600 c 25
 233 533 233 467 233 400 c 25
 255 400 278 400 300 400 c 25
 300 367 300 333 300 300 c 25
 278 300 255 300 233 300 c 25
 233 233 233 167 233 100 c 25
 222 100 211 100 200 100 c 25
 200 67 200 33 200 0 c 25
 167 0 133 0 100 0 c 25
 100 33 100 67 100 100 c 25
 122 100 145 100 167 100 c 25
 167 167 167 233 167 300 c 25
 178 300 189 300 200 300 c 25
 200 333 200 367 200 400 c 25
 189 400 178 400 167 400 c 25
 167 467 167 533 167 600 c 25
 145 600 122 600 100 600 c 25
 100 633 100 667 100 700 c 13
EndSplineSet
Validated: 8388609
EndChar

StartChar: uni0451
Encoding: 1105 1105 189
Width: 384
Flags: HW
HStem: 0 100<200 500> 200 100<200 450> 400 100<200 450> 600 100<150 250 400 500>
VStem: 100 100<100 200 300 400> 150 100<600 700> 400 100<600 700> 450 100<300 400>
LayerCount: 2
Back
Fore
SplineSet
267 700 m 9
 289 700 311 700 333 700 c 25
 333 667 333 633 333 600 c 25
 311 600 289 600 267 600 c 25
 267 633 267 667 267 700 c 9
100 700 m 9
 122 700 145 700 167 700 c 25
 167 667 167 633 167 600 c 25
 145 600 122 600 100 600 c 25
 100 633 100 667 100 700 c 9
133 400 m 1
 133 367 133 333 133 300 c 1
 189 300 244 300 300 300 c 1
 300 333 300 367 300 400 c 1
 244 400 189 400 133 400 c 1
100 400 m 1
 100 433 101 467 101 500 c 1
 178 500 256 500 333 500 c 1
 333 467 333 433 333 400 c 25
 344 400 356 400 367 400 c 25
 367 333 367 267 367 200 c 1
 289 200 211 200 133 200 c 1
 133 167 133 133 133 100 c 1
 200 100 266 100 333 100 c 1
 333 67 333 33 333 0 c 1
 255 0 178 0 100 0 c 1
 100 33 100 67 100 100 c 1
 89 100 78 100 67 100 c 1
 67 200 67 300 67 400 c 5
 78 400 89 400 100 400 c 1
EndSplineSet
Validated: 8388609
EndChar

StartChar: underscore
Encoding: 95 95 190
Width: 384
Flags: HW
HStem: -100 100<50 550>
LayerCount: 2
Back
Fore
SplineSet
33 -100 m 13
 33 -67 33 -33 33 0 c 1
 144 0 256 0 367 0 c 25
 367 -33 367 -67 367 -100 c 1
 256 -100 144 -100 33 -100 c 13
EndSplineSet
Validated: 1
EndChar

StartChar: asciicircum
Encoding: 94 94 191
Width: 384
Flags: HW
HStem: 400 100<150 200 450 500> 600 100<300 350>
VStem: 150 100<400 500> 200 100<500 600> 350 100<500 600> 400 100<400 500>
LayerCount: 2
Back
Fore
SplineSet
100 400 m 13
 100 433 100 467 100 500 c 25
 111 500 122 500 133 500 c 25
 133 533 133 567 133 600 c 25
 144 600 156 600 167 600 c 25
 167 633 167 667 167 700 c 25
 200 700 234 700 267 700 c 25
 267 667 267 633 267 600 c 25
 278 600 289 600 300 600 c 25
 300 567 300 533 300 500 c 25
 311 500 322 500 333 500 c 25
 333 467 333 433 333 400 c 25
 311 400 289 400 267 400 c 25
 267 433 267 467 267 500 c 25
 256 500 244 500 233 500 c 25
 233 533 233 567 233 600 c 25
 222 600 211 600 200 600 c 25
 200 567 200 533 200 500 c 25
 189 500 178 500 167 500 c 25
 167 467 167 433 167 400 c 25
 145 400 122 400 100 400 c 13
EndSplineSet
Validated: 8388609
EndChar

StartChar: grave
Encoding: 96 96 192
Width: 384
Flags: HW
HStem: 400 100<300 350> 600 100<150 200>
VStem: 150 100<600 700> 200 100<500 600> 250 100<400 500>
LayerCount: 2
Back
Fore
SplineSet
100 700 m 13
 122 700 145 700 167 700 c 25
 167 667 167 633 167 600 c 25
 178 600 189 600 200 600 c 25
 200 567 200 533 200 500 c 25
 211 500 222 500 233 500 c 25
 233 467 233 433 233 400 c 25
 211 400 189 400 167 400 c 25
 167 433 167 467 167 500 c 25
 156 500 144 500 133 500 c 25
 133 533 133 567 133 600 c 25
 122 600 111 600 100 600 c 25
 100 633 100 667 100 700 c 13
EndSplineSet
Validated: 8388609
EndChar

StartChar: bracketleft
Encoding: 91 91 193
Width: 384
Flags: HW
HStem: 0 100<300 400> 600 100<300 400>
VStem: 200 200<0 100 600 700> 200 100<100 600>
LayerCount: 2
Back
Fore
SplineSet
267 600 m 13
 245 600 222 600 200 600 c 25
 200 433 200 267 200 100 c 25
 222 100 245 100 267 100 c 25
 267 67 267 33 267 0 c 25
 223 0 177 0 133 0 c 25
 133 233 133 467 133 700 c 25
 177 700 223 700 267 700 c 25
 267 667 267 633 267 600 c 13
EndSplineSet
Validated: 8388609
EndChar

StartChar: bracketright
Encoding: 93 93 194
Width: 384
Flags: HW
HStem: 0 100<200 300> 600 100<200 300>
VStem: 200 200<0 100 600 700> 300 100<100 600>
LayerCount: 2
Back
Fore
SplineSet
133 700 m 13
 177 700 222 700 266 700 c 1
 266 467 267 233 267 0 c 25
 223 0 177 0 133 0 c 25
 133 33 133 67 133 100 c 25
 155 100 178 100 200 100 c 25
 200 267 200 433 200 600 c 25
 178 600 155 600 133 600 c 1
 133 633 133 667 133 700 c 13
EndSplineSet
Validated: 8388609
EndChar

StartChar: backslash
Encoding: 92 92 195
Width: 384
Flags: HW
HStem: 0 100<450 500> 600 100<100 150>
VStem: 100 100<600 700> 150 100<500 600> 200 100<400 500> 250 100<300 400> 300 100<200 300> 350 100<100 200> 400 100<0 100>
LayerCount: 2
Back
Fore
SplineSet
67 600 m 13
 67 633 67 667 67 700 c 25
 89 700 111 700 133 700 c 25
 133 667 133 633 133 600 c 25
 144 600 156 600 167 600 c 25
 167 567 167 533 167 500 c 25
 178 500 189 500 200 500 c 25
 200 467 200 433 200 400 c 25
 211 400 222 400 233 400 c 25
 233 367 233 333 233 300 c 25
 244 300 256 300 267 300 c 25
 267 267 267 233 267 200 c 25
 278 200 289 200 300 200 c 25
 300 167 300 133 300 100 c 25
 311 100 322 100 333 100 c 25
 333 67 333 33 333 0 c 25
 311 0 289 0 267 0 c 25
 267 33 267 67 267 100 c 25
 256 100 244 100 233 100 c 25
 233 133 233 167 233 200 c 25
 222 200 211 200 200 200 c 25
 200 233 200 267 200 300 c 25
 189 300 178 300 167 300 c 25
 167 333 167 367 167 400 c 25
 156 400 144 400 133 400 c 25
 133 433 133 467 133 500 c 25
 122 500 111 500 100 500 c 25
 100 533 100 567 100 600 c 25
 89 600 78 600 67 600 c 13
EndSplineSet
Validated: 8388609
EndChar

StartChar: Odieresis
Encoding: 214 214 196
Width: 384
Flags: HMW
LayerCount: 2
Back
Fore
SplineSet
133 500 m 13
 133 467 133 433 133 400 c 25
 122 400 111 400 100 400 c 25
 100 333 100 267 100 200 c 25
 111 200 122 200 133 200 c 25
 133 167 133 133 133 100 c 25
 177 100 223 100 267 100 c 25
 267 133 267 167 267 200 c 25
 278 200 289 200 300 200 c 25
 300 267 300 333 300 400 c 25
 289 400 278 400 267 400 c 25
 267 433 267 467 267 500 c 25
 223 500 177 500 133 500 c 13
100 600 m 9
 167 600 233 600 300 600 c 25
 300 567 300 533 300 500 c 25
 311 500 322 500 333 500 c 25
 333 467 333 433 333 400 c 25
 344 400 356 400 367 400 c 25
 367 333 367 267 367 200 c 25
 356 200 344 200 333 200 c 25
 333 167 333 133 333 100 c 25
 322 100 311 100 300 100 c 25
 300 67 300 33 300 0 c 25
 233 0 167 0 100 0 c 25
 100 33 100 67 100 100 c 25
 89 100 78 100 67 100 c 25
 67 133 67 167 67 200 c 25
 56 200 44 200 33 200 c 25
 33 267 33 333 33 400 c 25
 44 400 56 400 67 400 c 25
 67 433 67 467 67 500 c 25
 78 500 89 500 100 500 c 25
 100 533 100 567 100 600 c 9
233 700 m 9
 233 733 233 767 233 800 c 25
 255 800 278 800 300 800 c 25
 300 767 300 733 300 700 c 25
 278 700 255 700 233 700 c 9
100 700 m 9
 100 733 100 767 100 800 c 25
 122 800 145 800 167 800 c 25
 167 767 167 733 167 700 c 25
 145 700 122 700 100 700 c 9
EndSplineSet
Validated: 1
EndChar

StartChar: acute
Encoding: 180 180 197
Width: 384
Flags: HW
HStem: 400 100<150 200> 600 100<300 350>
VStem: 150 100<400 500> 200 100<500 600> 250 100<600 700>
LayerCount: 2
Back
Fore
SplineSet
167 600 m 13
 167 633 167 667 167 700 c 25
 189 700 211 700 233 700 c 25
 233 667 233 633 233 600 c 25
 222 600 211 600 200 600 c 25
 200 567 200 533 200 500 c 25
 189 500 178 500 167 500 c 25
 167 467 167 433 167 400 c 25
 145 400 122 400 100 400 c 25
 100 433 100 467 100 500 c 25
 111 500 122 500 133 500 c 25
 133 533 133 567 133 600 c 25
 144 600 156 600 167 600 c 13
EndSplineSet
Validated: 8388609
EndChar

StartChar: plusminus
Encoding: 177 177 198
Width: 384
Flags: HW
HStem: 100 100<100 500> 451 99<100 250 350 500> 680 20G<250 350>
VStem: 250 100<300 450 550 700>
LayerCount: 2
Back
Fore
SplineSet
67 200 m 13
 156 200 244 200 333 200 c 25
 333 167 333 134 333 101 c 25
 244 101 156 100 67 100 c 25
 67 133 67 167 67 200 c 13
67 550 m 9
 100 550 134 550 167 550 c 25
 167 600 167 650 167 700 c 25
 189 700 211 700 233 700 c 25
 233 650 233 600 233 550 c 25
 266 550 300 551 333 551 c 25
 333 517 333 484 333 450 c 25
 300 450 266 450 233 450 c 25
 233 400 233 350 233 300 c 25
 211 300 189 300 167 300 c 25
 167 350 167 401 167 451 c 25
 134 451 100 451 67 451 c 25
 67 484 67 517 67 550 c 9
EndSplineSet
Validated: 1
EndChar

StartChar: uni20BD
Encoding: 8381 8381 199
Width: 384
Flags: HW
HStem: 0 21G<100 200> 150 100<0 100 200 400> 300 100<0 100 200 450> 600 100<200 450>
VStem: 100 100<0 150 250 300 400 600> 450 100<400 600>
LayerCount: 2
Back
Fore
SplineSet
133 400 m 9
 189 400 244 400 300 400 c 25
 300 467 300 533 300 600 c 25
 244 600 189 600 133 600 c 25
 133 533 133 467 133 400 c 9
67 700 m 9
 156 700 244 700 333 700 c 25
 333 683 333 667 333 650 c 25
 344 650 356 650 367 650 c 25
 367 567 367 483 367 400 c 25
 356 400 344 400 333 400 c 25
 333 367 333 333 333 300 c 25
 266 300 200 300 133 300 c 25
 133 283 133 267 133 250 c 1
 177 250 223 250 267 250 c 5
 267 217 267 183 267 150 c 1
 223 150 177 150 133 150 c 1
 133 100 133 50 133 0 c 25
 111 0 89 0 67 0 c 25
 67 50 67 100 67 150 c 25
 45 150 22 150 0 150 c 25
 0 183 0 217 0 250 c 25
 22 250 45 250 67 250 c 25
 67 267 67 283 67 300 c 25
 45 300 22 300 0 300 c 25
 0 333 0 367 0 400 c 25
 22 400 45 400 67 400 c 25
 67 500 67 600 67 700 c 9
EndSplineSet
Validated: 1
EndChar

StartChar: Udieresis
Encoding: 220 220 200
Width: 384
Flags: HW
HStem: 0 100<200 450> 700 100<150 250 400 500>
VStem: 100 100<100 600> 150 100<700 800> 400 100<700 800> 450 100<100 600>
LayerCount: 2
Back
Fore
SplineSet
267 800 m 13
 289 800 311 800 333 800 c 25
 333 767 333 733 333 700 c 25
 311 700 289 700 267 700 c 25
 267 733 267 767 267 800 c 13
100 700 m 9
 100 733 100 767 100 800 c 25
 122 800 145 800 167 800 c 25
 167 767 167 733 167 700 c 25
 145 700 122 700 100 700 c 9
67 600 m 1
 89 600 111 600 133 600 c 1
 133 433 133 267 133 100 c 1
 189 100 244 100 300 100 c 1
 300 267 300 433 300 600 c 1
 322 600 345 600 367 600 c 1
 367 433 367 267 367 100 c 1
 356 100 344 100 333 100 c 25
 333 67 333 33 333 0 c 25
 255 0 178 0 100 0 c 25
 100 33 100 67 100 100 c 25
 89 100 78 100 67 100 c 1
 67 267 67 433 67 600 c 1
EndSplineSet
Validated: 8388609
EndChar

StartChar: Adieresis
Encoding: 196 196 201
Width: 384
Flags: HW
HStem: 0 21G<50 150 450 550> 200 100<150 450> 500 100<200 400> 700 100<150 250 350 450>
VStem: 50 100<0 200 300 400> 100 100<400 500> 150 100<700 800> 350 100<700 800> 400 100<400 500> 450 100<0 200 300 400>
LayerCount: 2
Back
Fore
SplineSet
233 700 m 9
 233 733 233 767 233 800 c 25
 255 800 278 800 300 800 c 25
 300 767 300 733 300 700 c 25
 278 700 255 700 233 700 c 9
100 700 m 9
 100 733 100 767 100 800 c 25
 122 800 145 800 167 800 c 25
 167 767 167 733 167 700 c 25
 145 700 122 700 100 700 c 9
100 300 m 9
 167 300 233 300 300 300 c 25
 300 333 300 367 300 400 c 25
 289 400 278 400 267 400 c 1
 267 433 267 467 267 500 c 25
 223 500 177 500 133 500 c 1
 133 467 133 433 133 400 c 29
 122 400 111 400 100 400 c 1
 100 367 100 333 100 300 c 9
33 0 m 9
 33 133 33 267 33 400 c 1
 44 400 56 400 67 400 c 25
 67 433 67 467 67 500 c 25
 78 500 89 500 100 500 c 25
 100 533 100 567 100 600 c 25
 167 600 233 600 300 600 c 25
 300 567 300 533 300 500 c 25
 311 500 322 500 333 500 c 25
 333 467 333 433 333 400 c 25
 344 400 356 400 367 400 c 25
 367 267 367 133 367 0 c 25
 345 0 322 0 300 0 c 25
 300 67 300 133 300 200 c 25
 233 200 167 200 100 200 c 25
 100 133 100 67 100 0 c 1
 78 0 55 0 33 0 c 9
EndSplineSet
Validated: 8388609
EndChar

StartChar: adieresis
Encoding: 228 228 202
Width: 384
Flags: HW
HStem: 0 100<150 400 500 549> 100 100<50 100> 200 100<150 400> 400 100<100 400> 600 100<150 250 350 450>
VStem: 50 100<100 200> 150 100<600 700> 350 100<600 700> 400 100<100 200 300 400>
LayerCount: 2
Back
Fore
SplineSet
233 600 m 13
 233 633 233 667 233 700 c 29
 255 700 278 700 300 700 c 29
 300 667 300 633 300 600 c 29
 278 600 255 600 233 600 c 13
100 600 m 13
 100 633 100 667 100 700 c 29
 122 700 145 700 167 700 c 29
 167 667 167 633 167 600 c 29
 145 600 122 600 100 600 c 13
100 200 m 9
 100 167 100 133 100 100 c 25
 156 100 211 100 267 100 c 25
 267 133 267 167 267 200 c 25
 211 200 156 200 100 200 c 9
67 500 m 9
 145 500 222 500 300 500 c 25
 300 467 300 433 300 400 c 25
 311 400 322 400 333 400 c 25
 333 300 333 200 333 100 c 25
 344 100 355 100 366 100 c 25
 366 67 367 33 367 0 c 25
 267 0 167 0 67 0 c 25
 67 33 67 67 67 100 c 25
 56 100 44 100 33 100 c 25
 33 133 33 167 33 200 c 25
 44 200 56 200 67 200 c 25
 67 233 67 267 67 300 c 25
 134 300 200 300 267 300 c 25
 267 333 267 367 267 400 c 25
 200 400 134 400 67 400 c 25
 67 433 67 467 67 500 c 9
EndSplineSet
Validated: 8388609
EndChar

StartChar: odieresis
Encoding: 246 246 203
Width: 384
Flags: HW
HStem: 0 100<200 450> 400 100<200 450> 600 100<150 250 400 500>
VStem: 100 100<100 400> 150 100<600 700> 400 100<600 700> 450 100<100 400>
LayerCount: 2
Back
Fore
SplineSet
267 600 m 13
 267 633 267 667 267 700 c 29
 289 700 311 700 333 700 c 29
 333 667 333 633 333 600 c 29
 311 600 289 600 267 600 c 13
100 600 m 9
 100 633 100 667 100 700 c 25
 122 700 145 700 167 700 c 25
 167 667 167 633 167 600 c 25
 145 600 122 600 100 600 c 9
133 400 m 9
 133 300 133 200 133 100 c 25
 189 100 244 100 300 100 c 25
 300 200 300 300 300 400 c 25
 244 400 189 400 133 400 c 9
100 500 m 9
 178 500 255 500 333 500 c 25
 333 467 333 433 333 400 c 25
 344 400 356 400 367 400 c 25
 367 300 367 200 367 100 c 25
 356 100 344 100 333 100 c 25
 333 67 333 33 333 0 c 25
 255 0 178 0 100 0 c 25
 100 33 100 67 100 100 c 25
 89 100 78 100 67 100 c 25
 67 200 67 300 67 400 c 25
 78 400 89 400 100 400 c 25
 100 433 100 467 100 500 c 9
EndSplineSet
Validated: 8388609
EndChar

StartChar: germandbls
Encoding: 223 223 204
Width: 384
Flags: HW
HStem: 0 100<250 450> 300 100<300 400> 600 100<250 400>
VStem: 100 100<0 500> 150 100<500 600> 300 150<300 400> 400 100<400 600> 450 100<100 300>
CounterMasks: 1 e0
LayerCount: 2
Back
Fore
SplineSet
133 600 m 9
 133 633 133 667 133 700 c 1
 189 700 244 700 300 700 c 25
 300 667 300 633 300 600 c 25
 311 600 322 600 333 600 c 25
 333 533 333 467 333 400 c 25
 322 400 311 400 300 400 c 25
 300 367 300 333 300 300 c 25
 322 300 345 300 367 300 c 25
 367 233 367 167 367 100 c 25
 356 100 344 100 333 100 c 25
 333 67 333 33 333 0 c 25
 277 0 223 0 167 0 c 25
 167 33 167 67 167 100 c 25
 211 100 256 100 300 100 c 25
 300 167 300 233 300 300 c 25
 267 300 233 300 200 300 c 25
 200 333 200 367 200 400 c 25
 222 400 245 400 267 400 c 25
 267 467 267 533 267 600 c 25
 234 600 200 600 167 600 c 25
 167 567 167 533 167 500 c 25
 156 500 144 500 133 500 c 25
 133 333 133 167 133 0 c 25
 111 0 89 0 67 0 c 25
 67 167 67 333 67 500 c 25
 78 500 89 500 100 500 c 25
 100 533 100 567 100 600 c 1
 111 600 122 600 133 600 c 9
EndSplineSet
Validated: 8388613
EndChar

StartChar: uniFFFD
Encoding: 65533 65533 205
Width: 384
Flags: HW
HStem: -200 21G<200 400> 100 100<250 350> 480 20G<250 350> 600 200<200 400>
VStem: 50 100<400 500> 100 150<0 100> 100 100<500 600> 150 300<-100 0 600 700> 200 200<-200 -100 700 800> 250 100<400 500> 350 150<0 100> 400 100<500 600> 450 150<300 400> 450 100<400 500>
LayerCount: 2
Back
Fore
SplineSet
167 200 m 13
 200 200 234 200 267 200 c 25
 267 233 267 267 267 300 c 25
 278 300 289 300 300 300 c 25
 300 367 300 433 300 500 c 25
 289 500 278 500 267 500 c 25
 267 533 267 567 267 600 c 25
 223 600 177 600 133 600 c 25
 133 567 133 533 133 500 c 25
 122 500 111 500 100 500 c 25
 100 467 100 433 100 400 c 25
 122 400 145 400 167 400 c 25
 167 433 167 467 167 500 c 25
 189 500 211 500 233 500 c 25
 233 433 233 367 233 300 c 25
 211 300 189 300 167 300 c 25
 167 267 167 233 167 200 c 13
167 0 m 9
 189 0 211 0 233 0 c 25
 233 33 233 67 233 100 c 25
 211 100 189 100 167 100 c 25
 167 67 167 33 167 0 c 9
0 200 m 9
 0 267 0 333 0 400 c 25
 11 400 22 400 33 400 c 25
 33 433 33 467 33 500 c 25
 44 500 56 500 67 500 c 25
 67 533 67 567 67 600 c 25
 78 600 89 600 100 600 c 25
 100 633 100 667 100 700 c 25
 111 700 122 700 133 700 c 25
 133 733 133 767 133 800 c 25
 177 800 223 800 267 800 c 25
 267 767 267 733 267 700 c 25
 278 700 289 700 300 700 c 25
 300 667 300 633 300 600 c 25
 311 600 322 600 333 600 c 25
 333 567 333 533 333 500 c 25
 344 500 356 500 367 500 c 25
 367 467 367 433 367 400 c 25
 378 400 389 400 400 400 c 25
 400 333 400 267 400 200 c 25
 389 200 378 200 367 200 c 25
 367 167 367 133 367 100 c 25
 356 100 344 100 333 100 c 25
 333 67 333 33 333 0 c 25
 322 0 311 0 300 0 c 25
 300 -33 300 -67 300 -100 c 25
 289 -100 278 -100 267 -100 c 25
 267 -133 267 -167 267 -200 c 25
 223 -200 177 -200 133 -200 c 25
 133 -167 133 -133 133 -100 c 25
 122 -100 111 -100 100 -100 c 25
 100 -67 100 -33 100 0 c 25
 89 0 78 0 67 0 c 25
 67 33 67 67 67 100 c 25
 56 100 44 100 33 100 c 25
 33 133 33 167 33 200 c 25
 22 200 11 200 0 200 c 9
EndSplineSet
Validated: 8388609
EndChar

StartChar: Oslash
Encoding: 216 216 206
Width: 384
Flags: HW
HStem: 0 100<200 400> 600 100<200 400>
VStem: 50 100<200 500> 100 100<100 200 500 600> 150 300<0 100 600 700> 400 100<100 200 500 600> 450 100<200 500>
LayerCount: 2
Back
Fore
SplineSet
267 100 m 13
 267 133 267 167 267 200 c 25
 278 200 289 200 300 200 c 25
 300 300 300 400 300 500 c 25
 289 500 278 500 267 500 c 25
 267 533 267 567 267 600 c 25
 223 600 177 600 133 600 c 25
 133 567 133 533 133 500 c 25
 122 500 111 500 100 500 c 25
 100 400 100 300 100 200 c 25
 111 200 122 200 133 200 c 25
 133 167 133 133 133 100 c 25
 177 100 223 100 267 100 c 13
300 0 m 9
 233 0 167 0 100 0 c 25
 100 33 100 67 100 100 c 25
 89 100 78 100 67 100 c 25
 67 133 67 167 67 200 c 25
 56 200 44 200 33 200 c 25
 33 300 33 400 33 500 c 25
 44 500 56 500 67 500 c 25
 67 533 67 567 67 600 c 25
 78 600 89 600 100 600 c 25
 100 633 100 667 100 700 c 25
 167 700 233 700 300 700 c 25
 300 667 300 633 300 600 c 25
 311 600 322 600 333 600 c 25
 333 567 333 533 333 500 c 25
 344 500 356 500 367 500 c 25
 367 400 367 300 367 200 c 25
 356 200 344 200 333 200 c 25
 333 167 333 133 333 100 c 25
 322 100 311 100 300 100 c 25
 300 67 300 33 300 0 c 9
EndSplineSet
Validated: 8388609
EndChar

StartChar: multiply
Encoding: 215 215 207
Width: 384
Flags: HMW
LayerCount: 2
Back
Fore
SplineSet
100 200 m 13
 100 233 100 267 100 300 c 25
 122 300 145 300 167 300 c 25
 167 333 167 367 167 400 c 25
 145 400 122 400 100 400 c 25
 100 433 100 467 100 500 c 25
 122 500 145 500 167 500 c 25
 167 467 167 433 167 400 c 25
 189 400 211 400 233 400 c 25
 233 433 233 467 233 500 c 25
 255 500 278 500 300 500 c 25
 300 467 300 433 300 400 c 25
 278 400 255 400 233 400 c 25
 233 367 233 333 233 300 c 25
 255 300 278 300 300 300 c 25
 300 267 300 233 300 200 c 25
 278 200 255 200 233 200 c 25
 233 233 233 267 233 300 c 25
 211 300 189 300 167 300 c 25
 167 267 167 233 167 200 c 25
 145 200 122 200 100 200 c 13
EndSplineSet
Validated: 5
EndChar

StartChar: divide
Encoding: 247 247 208
Width: 384
Flags: HMW
LayerCount: 2
Back
Fore
SplineSet
167 100 m 13
 167 133 167 167 167 200 c 25
 189 200 211 200 233 200 c 25
 233 167 233 133 233 100 c 25
 211 100 189 100 167 100 c 13
67 300 m 9
 67 333 67 367 67 400 c 25
 156 400 244 400 333 400 c 25
 333 367 333 333 333 300 c 25
 244 300 156 300 67 300 c 9
167 500 m 9
 167 533 167 567 167 600 c 25
 189 600 211 600 233 600 c 25
 233 567 233 533 233 500 c 25
 211 500 189 500 167 500 c 9
EndSplineSet
Validated: 1
EndChar

StartChar: brokenbar
Encoding: 166 166 209
Width: 384
Flags: HW
HStem: 0 21G<250 350> 680 20G<250 350>
VStem: 250 100<0 700>
LayerCount: 2
Back
Fore
SplineSet
167 700 m 13
 189 700 211 700 233 700 c 25
 233 467 233 233 233 0 c 25
 211 0 189 0 167 0 c 25
 167 233 167 467 167 700 c 13
EndSplineSet
Validated: 1
EndChar

StartChar: degree
Encoding: 176 176 210
Width: 384
Flags: HMW
LayerCount: 2
Back
Fore
SplineSet
167 600 m 13
 167 567 167 533 167 500 c 25
 189 500 211 500 233 500 c 25
 233 533 233 567 233 600 c 25
 211 600 189 600 167 600 c 13
133 600 m 9
 133 633 133 667 133 700 c 25
 177 700 223 700 267 700 c 25
 267 667 267 633 267 600 c 25
 278 600 289 600 300 600 c 25
 300 567 300 533 300 500 c 25
 289 500 278 500 267 500 c 25
 267 467 267 433 267 400 c 25
 223 400 177 400 133 400 c 25
 133 433 133 467 133 500 c 25
 122 500 111 500 100 500 c 25
 100 533 100 567 100 600 c 25
 111 600 122 600 133 600 c 9
EndSplineSet
Validated: 1
EndChar

StartChar: arrowright
Encoding: 8594 8594 211
Width: 384
Flags: HW
HStem: 100 100<250 300> 300 100<0 300 450 550> 500 100<250 300>
VStem: 250 100<100 200 500 600> 300 150<200 300 400 500>
CounterMasks: 1 e0
LayerCount: 2
Back
Fore
SplineSet
167 500 m 13
 167 533 167 567 167 600 c 25
 189 600 211 600 233 600 c 25
 233 567 233 533 233 500 c 25
 255 500 278 500 300 500 c 25
 300 467 300 433 300 400 c 25
 322 400 345 400 367 400 c 25
 367 367 367 333 367 300 c 25
 345 300 322 300 300 300 c 25
 300 267 300 233 300 200 c 25
 278 200 255 200 233 200 c 25
 233 167 233 133 233 100 c 25
 211 100 189 100 167 100 c 25
 167 133 167 167 167 200 c 25
 178 200 189 200 200 200 c 25
 200 233 200 267 200 300 c 25
 133 300 67 300 0 300 c 25
 0 333 0 367 0 400 c 25
 67 400 133 400 200 400 c 25
 200 433 200 467 200 500 c 25
 189 500 178 500 167 500 c 13
EndSplineSet
Validated: 8388609
EndChar

StartChar: arrowleft
Encoding: 8592 8592 212
Width: 384
Flags: HW
HStem: 100 100<350 400> 300 100<100 200 350 600> 500 100<350 400>
VStem: 200 150<200 300 400 500> 300 100<100 200 500 600>
CounterMasks: 1 e0
LayerCount: 2
Back
Fore
SplineSet
200 500 m 13
 200 533 200 567 200 600 c 25
 222 600 245 600 267 600 c 25
 267 567 267 533 267 500 c 25
 256 500 244 500 233 500 c 25
 233 467 233 433 233 400 c 25
 289 400 344 400 400 400 c 25
 400 367 400 333 400 300 c 25
 344 300 289 300 233 300 c 25
 233 267 233 233 233 200 c 25
 244 200 256 200 267 200 c 25
 267 167 267 133 267 100 c 25
 245 100 222 100 200 100 c 25
 200 133 200 167 200 200 c 25
 178 200 155 200 133 200 c 25
 133 233 133 267 133 300 c 25
 111 300 89 300 67 300 c 25
 67 333 67 367 67 400 c 25
 89 400 111 400 133 400 c 25
 133 433 133 467 133 500 c 25
 155 500 178 500 200 500 c 13
EndSplineSet
Validated: 8388609
EndChar

StartChar: arrowup
Encoding: 8593 8593 213
Width: 384
Flags: HW
HStem: 0 21G<250 350> 300 100<100 150 450 500> 680 20G<250 350>
VStem: 100 100<300 400> 250 100<0 400 600 700> 400 100<300 400>
CounterMasks: 1 1c
LayerCount: 2
Back
Fore
SplineSet
133 300 m 13
 111 300 89 300 67 300 c 25
 67 333 67 367 67 400 c 25
 78 400 89 400 100 400 c 25
 100 433 100 467 100 500 c 25
 111 500 122 500 133 500 c 25
 133 533 133 567 133 600 c 25
 144 600 156 600 167 600 c 25
 167 633 167 667 167 700 c 25
 189 700 211 700 233 700 c 25
 233 667 233 633 233 600 c 25
 244 600 256 600 267 600 c 25
 267 567 267 533 267 500 c 25
 278 500 289 500 300 500 c 25
 300 467 300 433 300 400 c 25
 311 400 322 400 333 400 c 25
 333 367 333 333 333 300 c 25
 311 300 289 300 267 300 c 25
 267 333 267 367 267 400 c 25
 256 400 244 400 233 400 c 25
 233 267 233 133 233 0 c 25
 211 0 189 0 167 0 c 25
 167 133 167 267 167 400 c 25
 156 400 144 400 133 400 c 25
 133 367 133 333 133 300 c 13
EndSplineSet
Validated: 1
EndChar

StartChar: arrowdown
Encoding: 8595 8595 214
Width: 384
Flags: HW
HStem: 0 21G<250 350> 300 100<100 150 450 500> 680 20G<250 350>
VStem: 100 100<300 400> 250 100<0 100 300 700> 400 100<300 400>
CounterMasks: 1 1c
LayerCount: 2
Back
Fore
SplineSet
167 300 m 13
 167 433 167 567 167 700 c 1
 189 700 211 700 233 700 c 25
 233 567 233 433 233 300 c 25
 244 300 256 300 267 300 c 25
 267 333 267 367 267 400 c 25
 289 400 311 400 333 400 c 25
 333 367 333 333 333 300 c 25
 322 300 311 300 300 300 c 25
 300 267 300 233 300 200 c 25
 289 200 278 200 267 200 c 25
 267 167 267 133 267 100 c 25
 256 100 244 100 233 100 c 25
 233 67 233 33 233 0 c 25
 211 0 189 0 167 0 c 25
 167 33 167 67 167 100 c 25
 156 100 144 100 133 100 c 25
 133 133 133 167 133 200 c 25
 122 200 111 200 100 200 c 25
 100 233 100 267 100 300 c 25
 89 300 78 300 67 300 c 25
 67 333 67 367 67 400 c 25
 89 400 111 400 133 400 c 25
 133 367 133 333 133 300 c 1
 144 300 156 300 167 300 c 13
EndSplineSet
Validated: 1
EndChar

StartChar: arrowboth
Encoding: 8596 8596 215
Width: 768
Flags: HW
HStem: 100 100<400 500 700 800> 200 300<300 400 800 900> 300 100<200 300 400 800 900 1000> 500 100<400 500 700 800>
VStem: 300 100<200 300 400 500> 400 100<100 200 500 600> 700 100<100 200 500 600> 800 100<200 300 400 500>
LayerCount: 2
Back
Fore
SplineSet
133 300 m 13
 133 333 133 367 133 400 c 25
 155 400 178 400 200 400 c 25
 200 433 200 467 200 500 c 25
 222 500 245 500 267 500 c 25
 267 533 267 567 267 600 c 25
 289 600 311 600 333 600 c 25
 333 567 333 533 333 500 c 25
 311 500 289 500 267 500 c 25
 267 467 267 433 267 400 c 25
 356 400 444 400 533 400 c 25
 533 433 533 467 533 500 c 25
 511 500 489 500 467 500 c 25
 467 533 467 567 467 600 c 25
 489 600 511 600 533 600 c 25
 533 567 533 533 533 500 c 25
 555 500 578 500 600 500 c 25
 600 467 600 433 600 400 c 25
 622 400 645 400 667 400 c 25
 667 367 667 333 667 300 c 25
 645 300 622 300 600 300 c 25
 600 267 600 233 600 200 c 25
 578 200 555 200 533 200 c 25
 533 167 533 133 533 100 c 25
 511 100 489 100 467 100 c 25
 467 133 467 167 467 200 c 25
 489 200 511 200 533 200 c 25
 533 233 533 267 533 300 c 25
 444 300 356 300 267 300 c 25
 267 267 267 233 267 200 c 25
 289 200 311 200 333 200 c 25
 333 167 333 133 333 100 c 25
 311 100 289 100 267 100 c 25
 267 133 267 167 267 200 c 25
 245 200 222 200 200 200 c 25
 200 233 200 267 200 300 c 25
 178 300 155 300 133 300 c 13
EndSplineSet
Validated: 8388613
EndChar

StartChar: arrowupdn
Encoding: 8597 8597 216
Width: 384
Flags: HW
HStem: 0 21G<200 400> 200 100<100 150 450 500> 400 100<100 150 450 500> 680 20G<200 400>
VStem: 100 100<200 300 400 500> 150 300<100 200 500 600> 200 200<0 100 600 700> 400 100<200 300 400 500>
LayerCount: 2
Back
Fore
SplineSet
67 200 m 13
 67 233 67 267 67 300 c 25
 89 300 111 300 133 300 c 25
 133 267 133 233 133 200 c 25
 144 200 156 200 167 200 c 25
 167 300 167 400 167 500 c 25
 156 500 144 500 133 500 c 25
 133 467 133 433 133 400 c 25
 111 400 89 400 67 400 c 25
 67 433 67 467 67 500 c 25
 78 500 89 500 100 500 c 25
 100 533 100 567 100 600 c 25
 111 600 122 600 133 600 c 25
 133 633 133 667 133 700 c 25
 177 700 223 700 267 700 c 25
 267 667 267 633 267 600 c 25
 278 600 289 600 300 600 c 25
 300 567 300 533 300 500 c 25
 311 500 322 500 333 500 c 25
 333 467 333 433 333 400 c 25
 311 400 289 400 267 400 c 25
 267 433 267 467 267 500 c 25
 256 500 244 500 233 500 c 25
 233 400 233 300 233 200 c 25
 244 200 256 200 267 200 c 25
 267 233 267 267 267 300 c 25
 289 300 311 300 333 300 c 25
 333 267 333 233 333 200 c 25
 322 200 311 200 300 200 c 25
 300 167 300 133 300 100 c 25
 289 100 278 100 267 100 c 25
 267 67 267 33 267 0 c 25
 223 0 177 0 133 0 c 25
 133 33 133 67 133 100 c 25
 122 100 111 100 100 100 c 25
 100 133 100 167 100 200 c 25
 89 200 78 200 67 200 c 13
EndSplineSet
Validated: 8388609
EndChar

StartChar: uni2600
Encoding: 9728 9728 217
Width: 768
Flags: HW
HStem: -100 100<550 650> 0 100<300 400 800 900> 200 300<450 550 650 750> 300 100<100 250 350 450 750 850 950 1100> 600 100<250 350 850 950> 700 100<550 650>
VStem: 100 150<300 400> 250 100<600 700> 300 100<0 100> 450 300<200 300 400 500> 550 100<-100 0 100 200 500 600 700 800> 800 100<0 100> 850 100<600 700> 950 150<300 400>
LayerCount: 2
Back
Fore
SplineSet
567 600 m 9
 567 633 567 667 567 700 c 25
 589 700 611 700 633 700 c 25
 633 667 633 633 633 600 c 25
 611 600 589 600 567 600 c 9
367 700 m 9
 367 733 367 767 367 800 c 25
 389 800 411 800 433 800 c 25
 433 767 433 733 433 700 c 25
 411 700 389 700 367 700 c 9
167 600 m 9
 167 633 167 667 167 700 c 25
 189 700 211 700 233 700 c 25
 233 667 233 633 233 600 c 25
 211 600 189 600 167 600 c 9
633 300 m 1
 633 333 633 367 633 400 c 25
 666 400 700 400 733 400 c 1
 733 367 733 333 733 300 c 25
 700 300 666 300 633 300 c 1
67 300 m 1
 67 333 67 367 67 400 c 25
 100 400 134 400 167 400 c 1
 167 367 167 333 167 300 c 25
 134 300 100 300 67 300 c 1
533 0 m 9
 533 33 533 67 533 100 c 25
 555 100 578 100 600 100 c 25
 600 67 600 33 600 0 c 25
 578 0 555 0 533 0 c 9
367 -100 m 9
 367 -67 367 -33 367 0 c 25
 389 0 411 0 433 0 c 25
 433 -33 433 -67 433 -100 c 25
 411 -100 389 -100 367 -100 c 9
200 0 m 9
 200 33 200 67 200 100 c 25
 222 100 245 100 267 100 c 25
 267 67 267 33 267 0 c 25
 245 0 222 0 200 0 c 9
233 300 m 9
 233 333 233 367 233 400 c 1
 255 400 278 400 300 400 c 25
 300 433 300 467 300 500 c 1
 322 500 345 500 367 500 c 1
 367 533 367 567 367 600 c 1
 389 600 411 600 433 600 c 1
 433 567 433 533 433 500 c 25
 455 500 478 500 500 500 c 25
 500 467 500 433 500 400 c 25
 522 400 545 400 567 400 c 25
 567 367 567 333 567 300 c 25
 545 300 522 300 500 300 c 25
 500 267 500 233 500 200 c 25
 478 200 455 200 433 200 c 25
 433 167 433 133 433 100 c 25
 411 100 389 100 367 100 c 25
 367 133 367 167 367 200 c 25
 345 200 322 200 300 200 c 25
 300 233 300 267 300 300 c 1
 278 300 255 300 233 300 c 9
EndSplineSet
Validated: 8388609
EndChar

StartChar: uni2601
Encoding: 9729 9729 218
Width: 384
Flags: HW
HStem: 100 300<100 200 350 500> 200 100<0 100 550 600> 480 20G<200 350>
VStem: 200 150<400 500>
LayerCount: 2
Back
Fore
SplineSet
0 200 m 13
 0 233 0 267 0 300 c 25
 22 300 45 300 67 300 c 25
 67 333 67 367 67 400 c 25
 89 400 111 400 133 400 c 25
 133 433 133 467 133 500 c 25
 166 500 200 500 233 500 c 25
 233 467 233 433 233 400 c 25
 266 400 300 400 333 400 c 25
 333 367 333 333 333 300 c 25
 355 300 378 300 400 300 c 25
 400 267 400 233 400 200 c 25
 389 200 378 200 367 200 c 25
 367 167 367 133 367 100 c 25
 267 100 167 100 67 100 c 25
 67 133 67 167 67 200 c 25
 45 200 22 200 0 200 c 13
EndSplineSet
Validated: 8388609
EndChar

StartChar: uni2602
Encoding: 9730 9730 219
Width: 384
Flags: HW
HStem: -100 100<150 250> 400 200<100 200 400 500> 400 100<0 100 500 600> 680 20G<200 400>
VStem: 150 150<-100 0> 250 100<0 400>
LayerCount: 2
Back
Fore
SplineSet
0 400 m 13
 0 433 0 467 0 500 c 25
 22 500 45 500 67 500 c 25
 67 533 67 567 67 600 c 25
 89 600 111 600 133 600 c 25
 133 633 133 667 133 700 c 25
 177 700 223 700 267 700 c 25
 267 667 267 633 267 600 c 25
 289 600 311 600 333 600 c 25
 333 567 333 533 333 500 c 25
 355 500 378 500 400 500 c 25
 400 467 400 433 400 400 c 25
 344 400 289 400 233 400 c 25
 233 267 233 133 233 0 c 25
 222 0 211 0 200 0 c 25
 200 -33 200 -67 200 -100 c 25
 167 -100 133 -100 100 -100 c 25
 100 -67 100 -33 100 0 c 25
 122 0 145 0 167 0 c 25
 167 133 167 267 167 400 c 25
 111 400 56 400 0 400 c 13
EndSplineSet
Validated: 8388609
EndChar

StartChar: uni2603
Encoding: 9731 9731 220
Width: 384
Flags: HW
HStem: -100 100<50 150 500 600> -100 50<250 300 350 400> 0 100<200 450> 50 50<0 50 550 600> 100 100<100 150 500 550> 150 50<0 50> 200 100<250 300 350 400> 250 50<50 100 550 600> 350 50<0 50 550 600> 400 100<100 150 250 300 350 400 500 550> 500 100<50 100 150 200 450 500 550 600> 600 200<250 400> 650 50<50 100 500 550> 750 50<0 50 150 200 450 500 550 600>
VStem: 0 50<50 100 150 200 350 400 750 800> 50 50<250 300 500 600 650 700> 100 50<400 500> 150 100<300 400 500 600> 150 50<750 800> 200 100<400 500> 250 50<-100 -50> 350 100<400 500> 350 50<-100 -50> 400 100<300 400 500 600> 450 50<750 800> 500 50<400 500 650 700> 550 50<50 100 250 300 350 400 500 600 750 800>
LayerCount: 2
Back
Fore
SplineSet
167 500 m 13
 178 500 189 500 200 500 c 29
 200 467 200 433 200 400 c 29
 189 400 178 400 167 400 c 29
 167 367 167 333 167 300 c 29
 178 300 189 300 200 300 c 29
 200 267 200 233 200 200 c 29
 178 200 155 200 133 200 c 29
 133 167 133 133 133 100 c 29
 189 100 244 100 300 100 c 29
 300 133 300 167 300 200 c 29
 278 200 255 200 233 200 c 29
 233 233 233 267 233 300 c 29
 244 300 256 300 267 300 c 29
 267 333 267 367 267 400 c 29
 256 400 244 400 233 400 c 29
 233 433 233 467 233 500 c 29
 244 500 256 500 267 500 c 29
 267 533 267 567 267 600 c 29
 234 600 200 600 167 600 c 29
 167 567 167 533 167 500 c 13
33 -100 m 13
 33 -67 33 -33 33 0 c 29
 55 0 78 0 100 0 c 29
 100 33 100 67 100 100 c 29
 89 100 78 100 67 100 c 29
 67 133 67 167 67 200 c 29
 78 200 89 200 100 200 c 29
 100 267 100 333 100 400 c 29
 111 400 122 400 133 400 c 29
 133 433 133 467 133 500 c 29
 122 500 111 500 100 500 c 29
 100 533 100 567 100 600 c 29
 111 600 122 600 133 600 c 29
 133 633 133 667 133 700 c 29
 144 700 156 700 167 700 c 29
 167 733 167 767 167 800 c 29
 200 800 234 800 267 800 c 29
 267 767 267 733 267 700 c 29
 278 700 289 700 300 700 c 29
 300 667 300 633 300 600 c 29
 311 600 322 600 333 600 c 29
 333 567 333 533 333 500 c 29
 322 500 311 500 300 500 c 29
 300 467 300 433 300 400 c 29
 311 400 322 400 333 400 c 29
 333 333 333 267 333 200 c 29
 344 200 356 200 367 200 c 29
 367 167 367 133 367 100 c 29
 356 100 344 100 333 100 c 29
 333 67 333 33 333 0 c 29
 355 0 378 0 400 0 c 29
 400 -33 400 -67 400 -100 c 29
 367 -100 333 -100 300 -100 c 29
 300 -67 300 -33 300 0 c 29
 244 0 189 0 133 0 c 29
 133 -33 133 -67 133 -100 c 29
 100 -100 66 -100 33 -100 c 13
67 500 m 13
 78 500 89 500 100 500 c 29
 100 467 100 433 100 400 c 29
 89 400 78 400 67 400 c 29
 67 433 67 467 67 500 c 13
33 600 m 13
 44 600 56 600 67 600 c 29
 67 567 67 533 67 500 c 29
 56 500 44 500 33 500 c 29
 33 533 33 567 33 600 c 13
0 50 m 13
 0 67 0 83 0 100 c 5
 11 100 22 100 33 100 c 29
 33 83 33 67 33 50 c 5
 22 50 11 50 0 50 c 13
0 150 m 13
 0 167 0 183 0 200 c 5
 11 200 22 200 33 200 c 29
 33 183 33 167 33 150 c 5
 22 150 11 150 0 150 c 13
33 250 m 13
 33 267 33 283 33 300 c 5
 44 300 56 300 67 300 c 29
 67 283 67 267 67 250 c 5
 56 250 44 250 33 250 c 13
0 350 m 13
 0 367 0 383 0 400 c 5
 11 400 22 400 33 400 c 29
 33 383 33 367 33 350 c 5
 22 350 11 350 0 350 c 13
167 -100 m 13
 167 -83 167 -67 167 -50 c 29
 178 -50 189 -50 200 -50 c 29
 200 -67 200 -83 200 -100 c 29
 189 -100 178 -100 167 -100 c 13
233 -100 m 13
 233 -83 233 -67 233 -50 c 29
 244 -50 256 -50 267 -50 c 29
 267 -67 267 -83 267 -100 c 29
 256 -100 244 -100 233 -100 c 13
367 50 m 13
 367 67 367 83 367 100 c 29
 378 100 389 100 400 100 c 29
 400 83 400 67 400 50 c 29
 389 50 378 50 367 50 c 13
367 250 m 13
 367 267 367 283 367 300 c 29
 378 300 389 300 400 300 c 29
 400 283 400 267 400 250 c 29
 389 250 378 250 367 250 c 13
367 350 m 13
 367 367 367 383 367 400 c 29
 378 400 389 400 400 400 c 29
 400 383 400 367 400 350 c 29
 389 350 378 350 367 350 c 13
333 400 m 13
 333 433 333 467 333 500 c 29
 344 500 356 500 367 500 c 29
 367 467 367 433 367 400 c 29
 356 400 344 400 333 400 c 13
367 500 m 13
 367 533 367 567 367 600 c 29
 378 600 389 600 400 600 c 29
 400 567 400 533 400 500 c 29
 389 500 378 500 367 500 c 13
333 650 m 13
 333 667 333 683 333 700 c 29
 344 700 356 700 367 700 c 29
 367 683 367 667 367 650 c 29
 356 650 344 650 333 650 c 13
367 750 m 13
 367 767 367 783 367 800 c 29
 378 800 389 800 400 800 c 29
 400 783 400 767 400 750 c 29
 389 750 378 750 367 750 c 13
300 750 m 13
 300 767 300 783 300 800 c 29
 311 800 322 800 333 800 c 29
 333 783 333 767 333 750 c 29
 322 750 311 750 300 750 c 13
100 750 m 13
 100 767 100 783 100 800 c 5
 111 800 122 800 133 800 c 29
 133 783 133 767 133 750 c 5
 122 750 111 750 100 750 c 13
0 750 m 13
 0 767 0 783 0 800 c 5
 11 800 22 800 33 800 c 29
 33 783 33 767 33 750 c 5
 22 750 11 750 0 750 c 13
33 650 m 13
 33 667 33 683 33 700 c 5
 44 700 56 700 67 700 c 29
 67 683 67 667 67 650 c 5
 56 650 44 650 33 650 c 13
EndSplineSet
Validated: 8388613
EndChar

StartChar: uni26C4
Encoding: 9924 9924 221
Width: 384
Flags: HW
HStem: -100 100<50 150 500 600> 100 100<100 150 500 550> 200 100<250 300 350 400> 400 100<100 150 250 300 350 400 500 550> 500 100<50 100 150 200 450 500 550 600> 600 200<250 400>
VStem: 50 50<500 600> 100 100<100 200> 100 50<400 500> 150 100<300 400 500 600> 200 100<400 500> 250 150<700 800> 350 100<400 500> 400 100<300 400 500 600> 450 100<100 200> 500 50<400 500> 550 50<500 600>
LayerCount: 2
Back
Fore
SplineSet
167 500 m 13
 178 500 189 500 200 500 c 29
 200 467 200 433 200 400 c 29
 189 400 178 400 167 400 c 29
 167 367 167 333 167 300 c 29
 178 300 189 300 200 300 c 29
 200 267 200 233 200 200 c 29
 178 200 155 200 133 200 c 29
 133 167 133 133 133 100 c 29
 189 100 244 100 300 100 c 29
 300 133 300 167 300 200 c 29
 278 200 255 200 233 200 c 29
 233 233 233 267 233 300 c 29
 244 300 256 300 267 300 c 29
 267 333 267 367 267 400 c 29
 256 400 244 400 233 400 c 29
 233 433 233 467 233 500 c 29
 244 500 256 500 267 500 c 29
 267 533 267 567 267 600 c 29
 234 600 200 600 167 600 c 29
 167 567 167 533 167 500 c 13
33 -100 m 13
 33 -67 33 -33 33 0 c 29
 55 0 78 0 100 0 c 29
 100 33 100 67 100 100 c 29
 89 100 78 100 67 100 c 29
 67 133 67 167 67 200 c 29
 78 200 89 200 100 200 c 29
 100 267 100 333 100 400 c 29
 111 400 122 400 133 400 c 29
 133 433 133 467 133 500 c 29
 122 500 111 500 100 500 c 29
 100 533 100 567 100 600 c 29
 111 600 122 600 133 600 c 29
 133 633 133 667 133 700 c 29
 144 700 156 700 167 700 c 29
 167 733 167 767 167 800 c 29
 200 800 234 800 267 800 c 29
 267 767 267 733 267 700 c 29
 278 700 289 700 300 700 c 29
 300 667 300 633 300 600 c 29
 311 600 322 600 333 600 c 29
 333 567 333 533 333 500 c 29
 322 500 311 500 300 500 c 29
 300 467 300 433 300 400 c 29
 311 400 322 400 333 400 c 29
 333 333 333 267 333 200 c 29
 344 200 356 200 367 200 c 5
 367 167 367 133 367 100 c 29
 356 100 344 100 333 100 c 5
 333 67 333 33 333 0 c 29
 355 0 378 0 400 0 c 29
 400 -33 400 -67 400 -100 c 29
 367 -100 333 -100 300 -100 c 29
 300 -67 300 -33 300 0 c 29
 244 0 189 0 133 0 c 29
 133 -33 133 -67 133 -100 c 29
 100 -100 66 -100 33 -100 c 13
67 500 m 13
 78 500 89 500 100 500 c 29
 100 467 100 433 100 400 c 29
 89 400 78 400 67 400 c 29
 67 433 67 467 67 500 c 13
33 600 m 13
 44 600 56 600 67 600 c 29
 67 567 67 533 67 500 c 29
 56 500 44 500 33 500 c 29
 33 533 33 567 33 600 c 13
333 400 m 13
 333 433 333 467 333 500 c 29
 344 500 356 500 367 500 c 29
 367 467 367 433 367 400 c 29
 356 400 344 400 333 400 c 13
367 500 m 13
 367 533 367 567 367 600 c 29
 378 600 389 600 400 600 c 29
 400 567 400 533 400 500 c 29
 389 500 378 500 367 500 c 13
EndSplineSet
Validated: 8388613
EndChar

StartChar: uni2614
Encoding: 9748 9748 222
Width: 384
Flags: HW
HStem: -100 100<150 250> 0 100<50 100 500 550> 150 100<0 50 550 600> 250 100<100 150 450 500> 400 200<100 200 400 500> 400 100<0 100 500 600> 600 100<0 50 550 600> 700 100<100 150 450 500>
VStem: 0 50<150 250 600 700> 50 50<0 100> 100 50<250 350 700 800> 150 150<-100 0> 250 100<0 400> 450 50<250 350 700 800> 500 50<0 100> 550 50<150 250 600 700>
LayerCount: 2
Back
Fore
SplineSet
100 -100 m 13
 100 -67 100 -33 100 0 c 25
 122 0 145 0 167 0 c 25
 167 133 167 267 167 400 c 25
 111 400 56 400 0 400 c 25
 0 433 0 467 0 500 c 25
 22 500 45 500 67 500 c 25
 67 533 67 567 67 600 c 25
 89 600 111 600 133 600 c 25
 133 633 133 667 133 700 c 25
 177 700 223 700 267 700 c 25
 267 667 267 633 267 600 c 25
 289 600 311 600 333 600 c 25
 333 567 333 533 333 500 c 25
 355 500 378 500 400 500 c 25
 400 467 400 433 400 400 c 25
 344 400 289 400 233 400 c 25
 233 267 233 133 233 0 c 25
 222 0 211 0 200 0 c 25
 200 -33 200 -67 200 -100 c 25
 167 -100 133 -100 100 -100 c 13
33 0 m 1
 33 33 33 67 33 100 c 1
 44 100 56 100 67 100 c 1
 67 67 67 33 67 0 c 1
 56 0 44 0 33 0 c 1
333 0 m 1
 333 33 333 67 333 100 c 1
 344 100 356 100 367 100 c 1
 367 67 367 33 367 0 c 1
 356 0 344 0 333 0 c 1
0 150 m 1
 0 183 0 217 0 250 c 1
 11 250 22 250 33 250 c 1
 33 217 33 183 33 150 c 1
 22 150 11 150 0 150 c 1
67 250 m 1
 67 283 67 317 67 350 c 1
 78 350 89 350 100 350 c 1
 100 317 100 283 100 250 c 1
 89 250 78 250 67 250 c 1
367 150 m 1
 367 183 367 217 367 250 c 1
 378 250 389 250 400 250 c 1
 400 217 400 183 400 150 c 1
 389 150 378 150 367 150 c 1
300 250 m 1
 300 283 300 317 300 350 c 1
 311 350 322 350 333 350 c 1
 333 317 333 283 333 250 c 1
 322 250 311 250 300 250 c 1
367 600 m 1
 367 633 367 667 367 700 c 1
 378 700 389 700 400 700 c 1
 400 667 400 633 400 600 c 1
 389 600 378 600 367 600 c 1
0 600 m 1
 0 633 0 667 0 700 c 1
 11 700 22 700 33 700 c 1
 33 667 33 633 33 600 c 1
 22 600 11 600 0 600 c 1
300 700 m 1
 300 733 300 767 300 800 c 1
 311 800 322 800 333 800 c 1
 333 767 333 733 333 700 c 1
 322 700 311 700 300 700 c 1
67 700 m 1
 67 733 67 767 67 800 c 1
 78 800 89 800 100 800 c 1
 100 767 100 733 100 700 c 1
 89 700 78 700 67 700 c 1
EndSplineSet
Validated: 8388609
EndChar

StartChar: uni2669
Encoding: 9833 9833 223
Width: 384
Flags: HW
HStem: 0 300<150 350> 100 100<100 150>
VStem: 350 100<300 800>
LayerCount: 2
Back
Fore
SplineSet
100 100 m 13
 89 100 78 100 67 100 c 25
 67 133 67 167 67 200 c 25
 78 200 89 200 100 200 c 25
 100 233 100 267 100 300 c 25
 144 300 189 300 233 300 c 25
 233 467 233 633 233 800 c 25
 255 800 278 800 300 800 c 25
 300 567 300 333 300 100 c 25
 289 100 278 100 267 100 c 25
 267 67 267 33 267 0 c 25
 211 0 156 0 100 0 c 25
 100 33 100 67 100 100 c 13
EndSplineSet
Validated: 8388609
EndChar

StartChar: uni2757
Encoding: 10071 10071 225
Width: 384
Flags: HW
HStem: 0 100<250 350> 680 20G<250 350>
VStem: 250 100<0 100 200 700>
LayerCount: 2
Back
Fore
SplineSet
167 700 m 13
 189 700 211 700 233 700 c 25
 233 533 233 367 233 200 c 25
 211 200 189 200 167 200 c 25
 167 367 167 533 167 700 c 13
233 0 m 9
 211 0 189 0 167 0 c 1
 167 33 167 67 167 100 c 25
 189 100 211 100 233 100 c 1
 233 67 233 33 233 0 c 9
EndSplineSet
Validated: 1
EndChar

StartChar: uni2753
Encoding: 10067 10067 226
Width: 384
Flags: HW
HStem: 0 100<300 400> 200 100<300 400> 300 100<400 450> 600 100<200 450>
VStem: 100 100<400 600> 300 100<0 100 200 300> 400 100<300 400> 450 100<400 600>
LayerCount: 2
Back
Fore
SplineSet
200 300 m 1
 222 300 245 300 267 300 c 1
 267 267 267 233 267 200 c 1
 245 200 222 200 200 200 c 1
 200 233 200 267 200 300 c 1
267 0 m 9
 245 0 222 0 200 0 c 1
 200 33 200 67 200 100 c 25
 222 100 245 100 267 100 c 1
 267 67 267 33 267 0 c 9
67 600 m 9
 78 600 89 600 100 600 c 25
 100 633 100 667 100 700 c 25
 178 700 255 700 333 700 c 25
 333 667 333 633 333 600 c 25
 344 600 356 600 367 600 c 25
 367 533 367 467 367 400 c 25
 356 400 344 400 333 400 c 25
 333 367 333 333 333 300 c 25
 311 300 289 300 267 300 c 25
 267 333 267 367 267 400 c 25
 278 400 289 400 300 400 c 25
 300 467 300 533 300 600 c 25
 244 600 189 600 133 600 c 25
 133 533 133 467 133 400 c 25
 111 400 89 400 67 400 c 25
 67 467 67 533 67 600 c 9
EndSplineSet
Validated: 8388613
EndChar

StartChar: uni2795
Encoding: 10133 10133 227
Width: 384
Flags: HW
HStem: 250 100<100 250 350 500>
VStem: 250 100<50 250 350 550>
LayerCount: 2
Back
Fore
SplineSet
167 550 m 13
 189 550 211 550 233 550 c 25
 233 483 233 417 233 350 c 25
 266 350 300 350 333 350 c 25
 333 317 333 283 333 250 c 25
 300 250 266 250 233 250 c 25
 233 183 233 117 233 50 c 25
 211 50 189 50 167 50 c 25
 167 117 167 183 167 250 c 25
 134 250 100 250 67 250 c 25
 67 283 67 317 67 350 c 25
 100 350 134 350 167 350 c 25
 167 417 167 483 167 550 c 13
EndSplineSet
Validated: 1
EndChar

StartChar: uni2796
Encoding: 10134 10134 228
Width: 384
Flags: HW
HStem: 250 100<100 500>
LayerCount: 2
Back
Fore
SplineSet
67 250 m 13
 67 283 67 317 67 350 c 25
 156 350 244 350 333 350 c 25
 333 317 333 283 333 250 c 25
 244 250 156 250 67 250 c 13
EndSplineSet
Validated: 1
EndChar

StartChar: uni231A
Encoding: 8986 8986 229
Width: 768
Flags: HW
HStem: -100 200<450 750> 0 100<400 450 750 800> 300 100<650 750> 480 20G<550 650> 600 200<450 750> 600 100<400 450 750 800>
VStem: 250 100<200 500> 300 100<100 200 500 600> 450 300<-100 0 700 800> 550 100<400 500> 800 100<100 200 500 600> 850 100<200 500>
LayerCount: 2
Back
Fore
SplineSet
367 500 m 13
 389 500 411 500 433 500 c 25
 433 467 433 433 433 400 c 25
 455 400 478 400 500 400 c 25
 500 367 500 333 500 300 c 25
 456 300 411 300 367 300 c 25
 367 367 367 433 367 500 c 13
267 600 m 9
 267 567 267 533 267 500 c 25
 256 500 244 500 233 500 c 25
 233 400 233 300 233 200 c 25
 244 200 256 200 267 200 c 25
 267 167 267 133 267 100 c 25
 356 100 444 100 533 100 c 25
 533 133 533 167 533 200 c 25
 544 200 556 200 567 200 c 25
 567 300 567 400 567 500 c 25
 556 500 544 500 533 500 c 25
 533 533 533 567 533 600 c 25
 444 600 356 600 267 600 c 9
300 700 m 9
 300 733 300 767 300 800 c 25
 367 800 433 800 500 800 c 25
 500 767 500 733 500 700 c 25
 522 700 545 700 567 700 c 25
 567 667 567 633 567 600 c 25
 578 600 589 600 600 600 c 25
 600 567 600 533 600 500 c 25
 611 500 622 500 633 500 c 25
 633 400 633 300 633 200 c 25
 622 200 611 200 600 200 c 25
 600 167 600 133 600 100 c 25
 589 100 578 100 567 100 c 25
 567 67 567 33 567 0 c 25
 545 0 522 0 500 0 c 25
 500 -33 500 -67 500 -100 c 25
 433 -100 367 -100 300 -100 c 25
 300 -67 300 -33 300 0 c 25
 278 0 255 0 233 0 c 25
 233 33 233 67 233 100 c 25
 222 100 211 100 200 100 c 25
 200 133 200 167 200 200 c 25
 189 200 178 200 167 200 c 25
 167 300 167 400 167 500 c 25
 178 500 189 500 200 500 c 25
 200 533 200 567 200 600 c 25
 211 600 222 600 233 600 c 25
 233 633 233 667 233 700 c 25
 255 700 278 700 300 700 c 9
EndSplineSet
Validated: 8388609
EndChar

StartChar: uni2797
Encoding: 10135 10135 230
Width: 384
Flags: HW
HStem: 100 100<250 350> 300 100<100 500> 500 100<250 350>
VStem: 250 100<100 200 500 600>
CounterMasks: 1 e0
LayerCount: 2
Back
Fore
SplineSet
167 100 m 13
 167 133 167 167 167 200 c 25
 189 200 211 200 233 200 c 25
 233 167 233 133 233 100 c 25
 211 100 189 100 167 100 c 13
67 300 m 9
 67 333 67 367 67 400 c 25
 156 400 244 400 333 400 c 25
 333 367 333 333 333 300 c 25
 244 300 156 300 67 300 c 9
167 500 m 9
 167 533 167 567 167 600 c 25
 189 600 211 600 233 600 c 25
 233 567 233 533 233 500 c 25
 211 500 189 500 167 500 c 9
EndSplineSet
Validated: 1
EndChar

